<?xml version="1.0"?>
<!DOCTYPE svg PUBLIC "-//W3C//DTD SVG 1.1//EN" "http://www.w3.org/Graphics/SVG/1.1/DTD/svg11.dtd">
<svg width="14.28mm" height="14.28mm" viewBox="0 0 14.28 14.28" xmlns="http://www.w3.org/2000/svg" version="1.1">
<g id="ShapeString001" transform="translate(7.140000,7.140000) scale(1,-1)">
<path id="ShapeString001_f0000"  d="M -0.8149681528662418 -3.7063694267515928 Q -0.7640127388535032 -4.103821656050956 -0.5474522292993631 -4.312738853503185 Q -0.3283439490445861 -4.521656050955414 -0.020063694267515864 -4.521656050955414 Q 0.31369426751592355 -4.521656050955414 0.5404458598726114 -4.271974522292994 Q 0.7671974522292992 -4.022292993630574 0.7671974522292992 -3.599363057324841 Q 0.7671974522292992 -3.196815286624204 0.5480891719745222 -2.962420382165605 Q 0.33152866242038215 -2.7280254777070065 0.018152866242038268 -2.7280254777070065 Q -0.18821656050955404 -2.7280254777070065 -0.4761146496815287 -2.8070063694267517 L -0.3563694267515929 -1.912738853503185 Q 0.07929936305732488 -1.9229299363057328 0.30859872611464967 -1.7522292993630577 Q 0.5378980891719745 -1.5815286624203821 0.5378980891719745 -1.298726114649682 Q 0.5378980891719745 -1.056687898089172 0.3697452229299363 -0.9140127388535033 Q 0.2015923566878981 -0.7713375796178346 -0.07611464968152859 -0.7713375796178346 Q -0.35127388535031856 -0.7713375796178346 -0.5474522292993631 -0.9394904458598727 Q -0.7410828025477707 -1.1050955414012744 -0.7843949044585987 -1.4235668789808917 L -1.775477707006369 -1.2783439490445856 Q -1.6710191082802548 -0.7636942675159242 -1.4646496815286625 -0.45541401273885374 Q -1.2557324840764332 -0.1471337579617833 -0.8837579617834395 0.028662420382165266 Q -0.509235668789809 0.2070063694267512 -0.04808917197452223 0.2070063694267512 Q 0.7442675159235668 0.2070063694267512 1.220700636942675 -0.2796178343949043 Q 1.615605095541401 -0.6770700636942681 1.615605095541401 -1.1789808917197453 Q 1.615605095541401 -1.8898089171974526 0.8079617834394903 -2.312738853503185 Q 1.2894904458598724 -2.4197452229299365 1.5773885350318468 -2.789171974522293 Q 1.8678343949044582 -3.156050955414013 1.8678343949044582 -3.6757961783439494 Q 1.8678343949044582 -4.432484076433121 1.3277070063694265 -4.967515923566879 Q 0.7901273885350317 -5.5 -0.012420382165605037 -5.5 Q -0.771656050955414 -5.5 -1.2735668789808918 -5.038853503184713 Q -1.7729299363057325 -4.577707006369427 -1.8544585987261146 -3.8312101910828025 L -0.8149681528662418 -3.7063694267515928 Z " stroke="#000000" stroke-width="0.35 px" style="stroke-width:0.35;stroke-miterlimit:4;stroke-dasharray:none;fill:#cccccc;fill-opacity:1.0;fill-rule: evenodd "/>
<title>b'ShapeString001'</title>
</g>
<g id="Sketch" transform="translate(7.140000,7.140000) scale(1,-1)">
<path id="Sketch_w0000"  d="M -7.0 -6.000000000000103 L -7.0 5.999999999999897 A 1 1 0 0 0 -6 7L 5.999999999999897 7.0 A 1 1 0 0 0 7 6L 7.0 -5.999999999999897 A 1 1 0 0 0 6 -7L -5.999999999999897 -7.0 A 1 1 0 0 0 -7 -6" stroke="#000000" stroke-width="0.35 px" style="stroke-width:0.35;stroke-miterlimit:4;stroke-dasharray:none;fill:none;fill-rule: evenodd "/>
<title>b'Sketch'</title>
</g>
</svg>