<?xml version="1.0"?>
<!DOCTYPE svg PUBLIC "-//W3C//DTD SVG 1.1//EN" "http://www.w3.org/Graphics/SVG/1.1/DTD/svg11.dtd">
<svg width="14.28mm" height="14.28mm" viewBox="0 0 14.28 14.28" xmlns="http://www.w3.org/2000/svg" version="1.1">
<g id="ShapeString001" transform="translate(7.140000,7.140000) scale(1,-1)">
<path id="ShapeString001_f0000"  d="M -5.174649681528662 1.428503184713376 L -3.098216560509554 1.428503184713376 L -3.098216560509554 0.9393312101910831 L -4.609044585987261 0.9393312101910831 L -4.609044585987261 0.28710191082802505 L -3.202675159235669 0.28710191082802505 L -3.202675159235669 -0.20207006369426805 L -4.609044585987261 -0.20207006369426805 L -4.609044585987261 -0.935828025477707 L -3.044713375796178 -0.935828025477707 L -3.044713375796178 -1.425 L -5.174649681528662 -1.425 L -5.174649681528662 1.428503184713376 Z " stroke="#000000" stroke-width="0.35 px" style="stroke-width:0.35;stroke-miterlimit:4;stroke-dasharray:none;fill:#cccccc;fill-opacity:1.0;fill-rule: evenodd "/>
<path id="ShapeString001_f0001"  d="M -2.560636942675159 1.428503184713376 L -2.01031847133758 1.428503184713376 L -0.8638216560509564 -0.5753184713375801 L -0.8638216560509564 1.428503184713376 L -0.33770700636942674 1.428503184713376 L -0.33770700636942674 -1.425 L -0.9058598726114653 -1.425 L -2.034522292993631 0.546974522292994 L -2.034522292993631 -1.425 L -2.560636942675159 -1.425 L -2.560636942675159 1.428503184713376 Z " stroke="#000000" stroke-width="0.35 px" style="stroke-width:0.35;stroke-miterlimit:4;stroke-dasharray:none;fill:#cccccc;fill-opacity:1.0;fill-rule: evenodd "/>
<path id="ShapeString001_f0002"  d="M 0.9183439490445853 0.9393312101910831 L 0.08649681528662434 0.9393312101910831 L 0.08649681528662434 1.428503184713376 L 2.3132484076433117 1.428503184713376 L 2.3132484076433117 0.9393312101910831 L 1.4839490445859864 0.9393312101910831 L 1.4839490445859864 -1.425 L 0.9183439490445853 -1.425 L 0.9183439490445853 0.9393312101910831 Z " stroke="#000000" stroke-width="0.35 px" style="stroke-width:0.35;stroke-miterlimit:4;stroke-dasharray:none;fill:#cccccc;fill-opacity:1.0;fill-rule: evenodd "/>
<path id="ShapeString001_f0003"  d="M 2.653375796178344 1.428503184713376 L 3.8444585987261144 1.428503184713376 Q 4.292866242038216 1.4285031847133756 4.496687898089172 1.353343949044586 Q 4.700509554140127 1.278184713375796 4.8228025477707 1.0858280254777066 Q 4.945095541401273 0.8934713375796177 4.945095541401273 0.6463375796178343 Q 4.945095541401273 0.33296178343949023 4.759108280254776 0.1278662420382164 Q 4.574394904458598 -0.07595541401273898 4.204968152866242 -0.12945859872611476 Q 4.388407643312102 -0.2415605095541402 4.508152866242038 -0.37659235668789814 Q 4.627898089171974 -0.5103503184713377 4.830445859872612 -0.851751592356688 L 5.171847133757962 -1.425 L 4.495414012738853 -1.425 L 4.0864968152866235 -0.802070063694268 Q 3.868662420382166 -0.45175159235668805 3.7884076433121026 -0.3613057324840765 Q 3.708152866242039 -0.2695859872611466 3.617707006369426 -0.23646496815286633 Q 3.5285350318471336 -0.2020700636942676 3.3336305732484073 -0.2020700636942676 L 3.2189808917197444 -0.20207006369426805 L 3.2189808917197444 -1.425 L 2.653375796178344 -1.425 L 2.653375796178344 1.428503184713376 Z M 3.6380891719745216 0.28710191082802505 Q 4.044458598726114 0.2871019108280253 4.1450955414012745 0.31894904458598705 Q 4.247006369426752 0.35079617834394883 4.304331210191083 0.4272292993630571 Q 4.361656050955415 0.5049363057324838 4.361656050955415 0.6208598726114649 Q 4.361656050955415 0.7495222929936303 4.2864968152866245 0.8297770700636942 Q 4.211337579617834 0.9100318471337576 4.07375796178344 0.9304140127388532 Q 4.004968152866241 0.9393312101910827 3.6610191082802546 0.9393312101910827 L 3.2189808917197444 0.9393312101910831 L 3.2189808917197444 0.28710191082802505 L 3.6380891719745216 0.28710191082802505 Z " stroke="#000000" stroke-width="0.35 px" style="stroke-width:0.35;stroke-miterlimit:4;stroke-dasharray:none;fill:#cccccc;fill-opacity:1.0;fill-rule: evenodd "/>
<title>b'ShapeString001'</title>
</g>
<g id="Sketch" transform="translate(7.140000,7.140000) scale(1,-1)">
<path id="Sketch_w0000"  d="M -7.0 -6.000000000000103 L -7.0 5.999999999999897 A 1 1 0 0 0 -6 7L 5.999999999999897 7.0 A 1 1 0 0 0 7 6L 7.0 -5.999999999999897 A 1 1 0 0 0 6 -7L -5.999999999999897 -7.0 A 1 1 0 0 0 -7 -6" stroke="#000000" stroke-width="0.35 px" style="stroke-width:0.35;stroke-miterlimit:4;stroke-dasharray:none;fill:none;fill-rule: evenodd "/>
<title>b'Sketch'</title>
</g>
</svg>