<?xml version="1.0"?>
<!DOCTYPE svg PUBLIC "-//W3C//DTD SVG 1.1//EN" "http://www.w3.org/Graphics/SVG/1.1/DTD/svg11.dtd">
<svg width="14.28mm" height="14.28mm" viewBox="0 0 14.28 14.28" xmlns="http://www.w3.org/2000/svg" version="1.1">
<g id="Sketch" transform="translate(7.140000,7.140000) scale(1,-1)">
<path id="Sketch_w0000"  d="M -7.0 -6.000000000000103 L -7.0 5.999999999999897 A 1 1 0 0 0 -6 7L 5.999999999999897 7.0 A 1 1 0 0 0 7 6L 7.0 -5.999999999999897 A 1 1 0 0 0 6 -7L -5.999999999999897 -7.0 A 1 1 0 0 0 -7 -6" stroke="#000000" stroke-width="0.35 px" style="stroke-width:0.35;stroke-miterlimit:4;stroke-dasharray:none;fill:none;fill-rule: evenodd "/>
<title>b'Sketch'</title>
</g>
<g id="ShapeString" transform="translate(7.140000,7.140000) scale(1,-1)">
<path id="ShapeString_f0000"  d="M -2.95952229299363 3.546815286624204 Q -3.0856369426751593 3.0920382165605096 -3.3786305732484077 2.8703821656050956 Q -3.671624203821656 2.65 -4.122579617834395 2.65 Q -4.680541401273885 2.65 -5.039777070063694 3.035987261146497 Q -5.399012738853503 3.4219745222929934 -5.399012738853503 4.09203821656051 Q -5.399012738853503 4.8003184713375795 -5.038503184713376 5.192675159235669 Q -4.67671974522293 5.585031847133758 -4.088184713375796 5.585031847133758 Q -3.574808917197452 5.585031847133758 -3.2537898089171975 5.2525477707006365 Q -3.062707006369427 5.056369426751592 -2.9671656050955413 4.688216560509554 L -3.52640127388535 4.606687898089172 Q -3.576082802547771 4.83343949044586 -3.7340445859872613 4.9646496815286625 Q -3.8920063694267517 5.095859872611465 -4.117484076433121 5.095859872611465 Q -4.428312101910828 5.095859872611465 -4.6232165605095545 4.8691082802547765 Q -4.816847133757962 4.642356687898089 -4.816847133757962 4.135350318471337 Q -4.816847133757962 3.596496815286624 -4.625764331210191 3.3671974522292993 Q -4.43468152866242 3.139171974522293 -4.128949044585987 3.139171974522293 Q -3.903471337579618 3.139171974522293 -3.741687898089172 3.2767515923566877 Q -3.578630573248408 3.4143312101910825 -3.5072929936305735 3.7098726114649683 L -2.95952229299363 3.546815286624204 Z " stroke="#000000" stroke-width="0.35 px" style="stroke-width:0.35;stroke-miterlimit:4;stroke-dasharray:none;fill:#cccccc;fill-opacity:1.0;fill-rule: evenodd "/>
<path id="ShapeString_f0001"  d="M -2.444872611464968 5.5035031847133755 L -1.2537898089171984 5.5035031847133755 Q -0.8053821656050957 5.5035031847133755 -0.6015605095541403 5.428343949044586 Q -0.39773885350318494 5.353184713375796 -0.2754458598726117 5.160828025477707 Q -0.1531528662420385 4.968471337579618 -0.1531528662420385 4.721337579617835 Q -0.1531528662420385 4.40796178343949 -0.33914012738853483 4.202866242038216 Q -0.5238535031847134 3.999044585987261 -0.8932802547770704 3.945541401273885 Q -0.7098407643312106 3.8334394904458597 -0.5900955414012747 3.698407643312102 Q -0.470350318471338 3.564649681528662 -0.26780254777070045 3.223248407643312 L 0.0735987261146489 2.65 L -0.602834394904459 2.65 L -1.0117515923566875 3.272929936305732 Q -1.2295859872611468 3.623248407643312 -1.3098407643312102 3.7136942675159235 Q -1.3900955414012737 3.8054140127388534 -1.4805414012738858 3.8385350318471336 Q -1.5697133757961783 3.8729299363057326 -1.7646178343949046 3.8729299363057326 L -1.879267515923567 3.8729299363057317 L -1.879267515923567 2.65 L -2.444872611464968 2.65 L -2.444872611464968 5.5035031847133755 Z M -1.4601592356687902 4.3621019108280255 Q -1.0537898089171973 4.3621019108280255 -0.9531528662420383 4.3939490445859875 Q -0.8512420382165606 4.425796178343949 -0.7939171974522301 4.502229299363057 Q -0.7365923566878978 4.579936305732484 -0.7365923566878978 4.695859872611464 Q -0.7365923566878978 4.82452229299363 -0.8117515923566883 4.904777070063695 Q -0.8869108280254778 4.985031847133758 -1.0244904458598727 5.005414012738854 Q -1.0932802547770706 5.014331210191083 -1.4372292993630573 5.014331210191083 L -1.879267515923567 5.014331210191083 L -1.879267515923567 4.3621019108280255 L -1.4601592356687902 4.3621019108280255 Z " stroke="#000000" stroke-width="0.35 px" style="stroke-width:0.35;stroke-miterlimit:4;stroke-dasharray:none;fill:#cccccc;fill-opacity:1.0;fill-rule: evenodd "/>
<path id="ShapeString_f0002"  d="M 0.9691401273885347 5.5035031847133755 L 0.9691401273885347 3.935350318471338 Q 0.9691401273885347 3.560828025477707 0.9895222929936303 3.4512738853503184 Q 1.0264649681528661 3.2729299363057325 1.1627707006369423 3.164649681528662 Q 1.2990764331210185 3.0576433121019106 1.5360191082802546 3.0576433121019106 Q 1.776783439490445 3.0576433121019106 1.8990764331210181 3.1595541401273883 Q 2.0213694267515914 3.261464968152866 2.045573248407643 3.4092356687898087 Q 2.0710509554140124 3.5570063694267513 2.0710509554140124 3.9009554140127385 L 2.0710509554140124 5.5035031847133755 L 2.6366560509554136 5.5035031847133755 L 2.6366560509554136 3.987579617834395 Q 2.6366560509554136 3.4678343949044583 2.5907961783439477 3.252547770700637 Q 2.5449363057324836 3.038535031847134 2.4213694267515917 2.890764331210191 Q 2.2990764331210185 2.7442675159235668 2.0927070063694266 2.6563694267515925 Q 1.8863375796178339 2.5684713375796178 1.5538535031847127 2.5684713375796178 Q 1.1525796178343946 2.5684713375796178 0.944936305732484 2.664012738853503 Q 0.7372929936305725 2.7595541401273884 0.616273885350318 2.9111464968152867 Q 0.4965286624203822 3.0640127388535032 0.4583121019108276 3.2321656050955414 Q 0.4035350318471336 3.479299363057325 0.4035350318471336 3.9646496815286625 L 0.40353503184713446 5.5035031847133755 L 0.9691401273885347 5.5035031847133755 Z " stroke="#000000" stroke-width="0.35 px" style="stroke-width:0.35;stroke-miterlimit:4;stroke-dasharray:none;fill:#cccccc;fill-opacity:1.0;fill-rule: evenodd "/>
<path id="ShapeString_f0003"  d="M 3.667229299363057 3.546815286624204 Q 3.716910828025477 3.2945859872611463 3.868503184713375 3.1761146496815287 Q 4.021369426751591 3.0576433121019106 4.278694267515923 3.0576433121019106 Q 4.552579617834394 3.0576433121019106 4.69015923566879 3.168471337579618 Q 4.8290127388535025 3.2792993630573246 4.8290127388535025 3.4270700636942673 Q 4.8290127388535025 3.521337579617834 4.770414012738853 3.5875796178343946 Q 4.713089171974523 3.655095541401274 4.567866242038217 3.7047770700636944 Q 4.468503184713376 3.742993630573248 4.11436305732484 3.8423566878980893 Q 3.6595859872611465 3.963375796178344 3.4761464968152866 4.140445859872611 Q 3.218821656050955 4.388853503184713 3.218821656050955 4.745541401273885 Q 3.218821656050955 4.97484076433121 3.3398407643312096 5.1748407643312095 Q 3.460859872611464 5.376114649681528 3.688885350318471 5.480573248407643 Q 3.9181847133757968 5.585031847133758 4.240477707006369 5.585031847133758 Q 4.767866242038216 5.585031847133758 5.0341082802547765 5.340445859872611 Q 5.301624203821656 5.095859872611465 5.314363057324841 4.688216560509554 L 4.748757961783439 4.688216560509554 Q 4.713089171974523 4.906050955414012 4.593343949044585 5.000318471337579 Q 4.473598726114649 5.095859872611465 4.235382165605096 5.095859872611465 Q 3.9882484076433125 5.095859872611465 3.849394904458598 4.99140127388535 Q 3.7589490445859868 4.923885350318471 3.7589490445859868 4.810509554140127 Q 3.7589490445859868 4.70859872611465 3.8430254777070063 4.634713375796178 Q 3.950031847133757 4.541719745222929 4.3627707006369425 4.4308917197452224 Q 4.775509554140126 4.321337579617834 4.97296178343949 4.213057324840764 Q 5.171687898089172 4.1060509554140125 5.282515923566879 3.9200636942675158 Q 5.3946178343949045 3.734076433121019 5.3946178343949045 3.4601910828025475 Q 5.3946178343949045 3.213057324840764 5.260859872611465 2.995222929936306 Q 5.127101910828025 2.7786624203821657 4.882515923566879 2.6729299363057324 Q 4.637929936305732 2.5684713375796178 4.27359872611465 2.5684713375796178 Q 3.7423885350318473 2.5684713375796178 3.45703821656051 2.7977707006369426 Q 3.172961783439491 3.0270700636942673 3.1169108280254774 3.4652866242038214 L 3.667229299363057 3.546815286624204 Z " stroke="#000000" stroke-width="0.35 px" style="stroke-width:0.35;stroke-miterlimit:4;stroke-dasharray:none;fill:#cccccc;fill-opacity:1.0;fill-rule: evenodd "/>
<title>b'ShapeString'</title>
</g>
<g id="ShapeString001" transform="translate(7.140000,7.140000) scale(1,-1)">
<path id="ShapeString001_f0000"  d="M -0.8058917197452231 -3.7063694267515928 Q -0.7600318471337582 -4.08343949044586 -0.5358280254777072 -4.302547770700637 Q -0.3090764331210194 -4.521656050955414 -0.016082802547770836 -4.521656050955414 Q 0.3202229299363055 -4.521656050955414 0.5520700636942673 -4.292356687898089 Q 0.7864649681528659 -4.060509554140127 0.7864649681528659 -3.596815286624204 Q 0.7864649681528659 -3.1636942675159236 0.5546178343949042 -2.9471337579617836 Q 0.3253184713375794 -2.7280254777070065 -0.04665605095541414 -2.7280254777070065 Q -0.5078025477707009 -2.7280254777070065 -0.8746815286624205 -3.2171974522292994 L -1.746019108280255 -3.06687898089172 L -1.195700636942675 0.2070063694267512 L 1.642515923566879 0.2070063694267512 L 1.642515923566879 -0.9343949044585989 L -0.38296178343949117 -0.9343949044585989 L -0.5511146496815291 -1.9535031847133761 Q -0.19187898089171984 -1.7496815286624208 0.18264331210191065 -1.7496815286624208 Q 0.8985668789808914 -1.7496815286624208 1.395382165605095 -2.2566878980891723 Q 1.8921974522292992 -2.7636942675159237 1.8921974522292992 -3.5738853503184718 Q 1.8921974522292992 -4.2464968152866245 1.492197452229299 -4.776433121019108 Q 0.9444267515923563 -5.5 -0.026273885350318604 -5.5 Q -0.8007961783439492 -5.5 -1.2899681528662423 -5.046496815286624 Q -1.7791401273885352 -4.590445859872611 -1.875955414012739 -3.8210191082802547 L -0.8058917197452231 -3.7063694267515928 Z " stroke="#000000" stroke-width="0.35 px" style="stroke-width:0.35;stroke-miterlimit:4;stroke-dasharray:none;fill:#cccccc;fill-opacity:1.0;fill-rule: evenodd "/>
<title>b'ShapeString001'</title>
</g>
</svg>