<?xml version="1.0"?>
<!DOCTYPE svg PUBLIC "-//W3C//DTD SVG 1.1//EN" "http://www.w3.org/Graphics/SVG/1.1/DTD/svg11.dtd">
<svg width="14.28mm" height="14.28mm" viewBox="0 0 14.28 14.28" xmlns="http://www.w3.org/2000/svg" version="1.1">
<g id="Sketch005" transform="translate(7.140000,7.140000) scale(1,-1)">
<path id="Sketch005_w0000"  d="M -2.62 4.28 L -1.82 4.28 L -1.82 3.88 L -2.62 3.88 L -2.62 4.28 " stroke="#000000" stroke-width="0.35 px" style="stroke-width:0.35;stroke-miterlimit:4;stroke-dasharray:none;fill:none;fill-rule: evenodd "/>
<path id="Sketch005_w0001"  d="M 4.000000000000103 -5.199999999999897 L 6.000000000000103 -5.199999999999897 L 6.000000000000103 -5.999999999999897 L 4.000000000000103 -5.999999999999897 L 4.000000000000103 -5.199999999999897 " stroke="#000000" stroke-width="0.35 px" style="stroke-width:0.35;stroke-miterlimit:4;stroke-dasharray:none;fill:none;fill-rule: evenodd "/>
<title>b'Sketch005'</title>
</g>
<g id="ShapeString" transform="translate(7.140000,7.140000) scale(1,-1)">
<path id="ShapeString_f0000"  d="M -5.762292993630573 5.5035031847133755 L -4.916433121019108 5.5035031847133755 L -4.4081528662420375 3.5570063694267517 L -3.904968152866242 5.5035031847133755 L -3.05656050955414 5.5035031847133755 L -3.05656050955414 2.65 L -3.582675159235669 2.65 L -3.582675159235669 4.8958598726114655 L -4.1380891719745225 2.65 L -4.683312101910828 2.65 L -5.237452229299363 4.8958598726114655 L -5.237452229299363 2.65 L -5.762292993630573 2.65 L -5.762292993630573 5.5035031847133755 Z " stroke="#000000" stroke-width="0.35 px" style="stroke-width:0.35;stroke-miterlimit:4;stroke-dasharray:none;fill:#cccccc;fill-opacity:1.0;fill-rule: evenodd "/>
<path id="ShapeString_f0001"  d="M -1.0272611464968158 3.546815286624204 Q -0.9775796178343947 3.2945859872611463 -0.8259872611464969 3.1761146496815287 Q -0.6731210191082804 3.0576433121019106 -0.4157961783439488 3.0576433121019106 Q -0.14191082802547772 3.0576433121019106 -0.004331210191082846 3.168471337579618 Q 0.13452229299363072 3.2792993630573246 0.13452229299363072 3.4270700636942673 Q 0.13452229299363072 3.521337579617834 0.07592356687898061 3.5875796178343946 Q 0.01859872611464919 3.655095541401274 -0.12662420382165607 3.7047770700636944 Q -0.22598726114649725 3.742993630573248 -0.5801273885350318 3.8423566878980893 Q -1.0349044585987262 3.963375796178344 -1.218343949044586 4.140445859872611 Q -1.4756687898089176 4.388853503184713 -1.4756687898089176 4.745541401273885 Q -1.4756687898089176 4.97484076433121 -1.3546496815286622 5.1748407643312095 Q -1.2336305732484076 5.376114649681528 -1.0056050955414015 5.480573248407643 Q -0.7763057324840767 5.585031847133758 -0.45401273885350335 5.585031847133758 Q 0.07337579617834411 5.585031847133758 0.3396178343949048 5.340445859872611 Q 0.6071337579617833 5.095859872611465 0.6198726114649675 4.688216560509554 L 0.05426751592356638 4.688216560509554 Q 0.01859872611464919 4.906050955414012 -0.10114649681528665 5.000318471337579 Q -0.22089171974522337 5.095859872611465 -0.45910828025477723 5.095859872611465 Q -0.7062420382165611 5.095859872611465 -0.8450955414012737 4.99140127388535 Q -0.9355414012738859 4.923885350318471 -0.9355414012738859 4.810509554140127 Q -0.9355414012738859 4.70859872611465 -0.8514649681528663 4.634713375796178 Q -0.7444585987261148 4.541719745222929 -0.33171974522293013 4.4308917197452224 Q 0.08101910828025449 4.321337579617834 0.27847133757961817 4.213057324840764 Q 0.47719745222929877 4.1060509554140125 0.5880254777070055 3.9200636942675158 Q 0.700127388535031 3.734076433121019 0.700127388535031 3.4601910828025475 Q 0.700127388535031 3.213057324840764 0.5663694267515922 2.995222929936306 Q 0.4326114649681525 2.7786624203821657 0.18802547770700606 2.6729299363057324 Q -0.05656050955414038 2.5684713375796178 -0.42089171974522355 2.5684713375796178 Q -0.9521019108280253 2.5684713375796178 -1.2374522292993628 2.7977707006369426 Q -1.5215286624203825 3.0270700636942673 -1.5775796178343953 3.4652866242038214 L -1.0272611464968158 3.546815286624204 Z " stroke="#000000" stroke-width="0.35 px" style="stroke-width:0.35;stroke-miterlimit:4;stroke-dasharray:none;fill:#cccccc;fill-opacity:1.0;fill-rule: evenodd "/>
<path id="ShapeString_f0002"  d="M 1.175286624203821 5.5035031847133755 L 3.251719745222929 5.5035031847133755 L 3.251719745222929 5.014331210191083 L 1.740891719745222 5.014331210191083 L 1.740891719745222 4.3621019108280255 L 3.147261146496814 4.3621019108280255 L 3.147261146496814 3.8729299363057317 L 1.740891719745222 3.8729299363057317 L 1.740891719745222 3.139171974522293 L 3.3052229299363054 3.139171974522293 L 3.3052229299363054 2.65 L 1.175286624203821 2.65 L 1.175286624203821 5.5035031847133755 Z " stroke="#000000" stroke-width="0.35 px" style="stroke-width:0.35;stroke-miterlimit:4;stroke-dasharray:none;fill:#cccccc;fill-opacity:1.0;fill-rule: evenodd "/>
<path id="ShapeString_f0003"  d="M 3.799490445859873 5.5035031847133755 L 4.365095541401273 5.5035031847133755 L 4.365095541401273 3.139171974522293 L 5.771464968152865 3.139171974522293 L 5.771464968152865 2.65 L 3.799490445859873 2.65 L 3.799490445859873 5.5035031847133755 Z " stroke="#000000" stroke-width="0.35 px" style="stroke-width:0.35;stroke-miterlimit:4;stroke-dasharray:none;fill:#cccccc;fill-opacity:1.0;fill-rule: evenodd "/>
<title>b'ShapeString'</title>
</g>
<g id="ShapeString001" transform="translate(7.140000,7.140000) scale(1,-1)">
<path id="ShapeString001_f0000"  d="M 1.281656050955414 0.1286624203821649 Q 1.8268789808917196 -0.5592356687898095 1.8268789808917196 -2.1490445859872613 Q 1.8268789808917196 -3.7337579617834393 1.2765605095541397 -4.429299363057325 Q 0.823057324840764 -5.0 0.007770700636942518 -5.0 Q -0.8100636942675161 -5.0 -1.311974522292994 -4.373248407643312 Q -1.8113375796178346 -3.7464968152866245 -1.8113375796178346 -2.1363057324840766 Q -1.8113375796178346 -0.5592356687898095 -1.261019108280255 0.13630573248407618 Q -0.8049681528662422 0.7070063694267512 0.007770700636942518 0.7070063694267512 Q 0.823057324840764 0.7070063694267512 1.2816560509554136 0.1286624203821649 Z M -0.33872611464968205 -0.3910828025477713 Q -0.49159235668789836 -0.5082802547770706 -0.5756687898089174 -0.8140127388535037 Q -0.6877707006369429 -1.2089171974522297 -0.6877707006369429 -2.1490445859872613 Q -0.6877707006369429 -3.086624203821656 -0.5884076433121022 -3.438216560509554 Q -0.4890445859872614 -3.789808917197452 -0.33872611464968183 -3.9070063694267514 Q -0.1858598726114653 -4.021656050955414 0.007770700636942518 -4.021656050955414 Q 0.20394904458598706 -4.021656050955414 0.3568152866242036 -3.904458598726115 Q 0.5096815286624201 -3.784713375796178 0.5937579617834392 -3.478980891719745 Q 0.7033121019108277 -3.086624203821656 0.7033121019108277 -2.1490445859872613 Q 0.7033121019108277 -1.2089171974522297 0.603949044585987 -0.8598726114649686 Q 0.5045859872611462 -0.5082802547770706 0.35426751592356664 -0.3910828025477713 Q 0.20394904458598706 -0.27133757961783456 0.007770700636942518 -0.27133757961783456 Q -0.1858598726114653 -0.27133757961783456 -0.33872611464968183 -0.3910828025477713 Z " stroke="#000000" stroke-width="0.35 px" style="stroke-width:0.35;stroke-miterlimit:4;stroke-dasharray:none;fill:#cccccc;fill-opacity:1.0;fill-rule: evenodd "/>
<title>b'ShapeString001'</title>
</g>
<g id="Sketch" transform="translate(7.140000,7.140000) scale(1,-1)">
<path id="Sketch_w0000"  d="M -7.0 -6.000000000000103 L -7.0 5.999999999999897 A 1 1 0 0 0 -6 7L 5.999999999999897 7.0 A 1 1 0 0 0 7 6L 7.0 -5.999999999999897 A 1 1 0 0 0 6 -7L -5.999999999999897 -7.0 A 1 1 0 0 0 -7 -6" stroke="#000000" stroke-width="0.35 px" style="stroke-width:0.35;stroke-miterlimit:4;stroke-dasharray:none;fill:none;fill-rule: evenodd "/>
<title>b'Sketch'</title>
</g>
</svg>