<?xml version="1.0"?>
<!DOCTYPE svg PUBLIC "-//W3C//DTD SVG 1.1//EN" "http://www.w3.org/Graphics/SVG/1.1/DTD/svg11.dtd">
<svg width="14.28mm" height="14.28mm" viewBox="0 0 14.28 14.28" xmlns="http://www.w3.org/2000/svg" version="1.1">
<g id="ShapeString002" transform="translate(7.140000,7.140000) scale(1,-1)">
<path id="ShapeString002_f0000"  d="M 4.27171974522293 -5.023184713375796 Q 4.321401273885351 -5.275414012738853 4.4729936305732485 -5.393885350318471 Q 4.625859872611465 -5.512356687898089 4.883184713375796 -5.512356687898089 Q 5.157070063694268 -5.512356687898089 5.2946496815286626 -5.401528662420382 Q 5.433503184713375 -5.290700636942675 5.433503184713375 -5.142929936305732 Q 5.433503184713375 -5.048662420382166 5.374904458598726 -4.982420382165605 Q 5.317579617834395 -4.914904458598726 5.172356687898089 -4.865222929936306 Q 5.072993630573248 -4.827006369426751 4.718853503184714 -4.727643312101911 Q 4.264076433121019 -4.6066242038216565 4.080636942675159 -4.429554140127388 Q 3.8233121019108283 -4.181146496815287 3.8233121019108283 -3.824458598726115 Q 3.8233121019108283 -3.59515923566879 3.944331210191083 -3.39515923566879 Q 4.065350318471338 -3.1938853503184714 4.293375796178344 -3.089426751592357 Q 4.522675159235669 -2.984968152866242 4.844968152866242 -2.984968152866242 Q 5.372356687898089 -2.984968152866242 5.638598726114649 -3.2295541401273886 Q 5.906114649681529 -3.474140127388535 5.918853503184714 -3.881783439490446 L 5.353248407643312 -3.881783439490446 Q 5.317579617834395 -3.6639490445859875 5.197834394904459 -3.5696815286624206 Q 5.078089171974522 -3.474140127388535 4.839872611464968 -3.474140127388535 Q 4.592738853503185 -3.474140127388535 4.453885350318472 -3.5785987261146497 Q 4.3634394904458595 -3.646114649681529 4.3634394904458595 -3.7594904458598726 Q 4.3634394904458595 -3.8614012738853503 4.447515923566879 -3.9352866242038216 Q 4.554522292993631 -4.02828025477707 4.967261146496815 -4.139108280254777 Q 5.38 -4.248662420382166 5.577452229299363 -4.356942675159235 Q 5.776178343949045 -4.463949044585988 5.887006369426752 -4.649936305732484 Q 5.999108280254777 -4.83592356687898 5.999108280254777 -5.109808917197452 Q 5.999108280254777 -5.356942675159235 5.865350318471338 -5.5747770700636945 Q 5.731592356687898 -5.791337579617834 5.4870063694267515 -5.897070063694267 Q 5.242420382165605 -6.001528662420382 4.878089171974523 -6.001528662420382 Q 4.34687898089172 -6.001528662420382 4.061528662420383 -5.772229299363057 Q 3.7774522292993633 -5.5429299363057325 3.7214012738853506 -5.1047133757961785 L 4.27171974522293 -5.023184713375796 Z " stroke="#000000" stroke-width="0.35 px" style="stroke-width:0.35;stroke-miterlimit:4;stroke-dasharray:none;fill:#cccccc;fill-opacity:1.0;fill-rule: evenodd "/>
<title>b'ShapeString002'</title>
</g>
<g id="ShapeString001" transform="translate(7.140000,7.140000) scale(1,-1)">
<path id="ShapeString001_f0000"  d="M -1.5128662420382173 -1.961146496815287 Q -1.7014012738853506 -1.6452229299363061 -1.7014012738853506 -1.2707006369426752 Q -1.7014012738853506 -0.6286624203821658 -1.2631847133757965 -0.2108280254777073 Q -0.8249681528662423 0.2070063694267512 -0.019872611464968326 0.2070063694267512 Q 0.7801273885350315 0.2070063694267512 1.2208917197452225 -0.2108280254777073 Q 1.6616560509554135 -0.6286624203821658 1.6616560509554135 -1.2707006369426752 Q 1.6616560509554135 -1.6707006369426756 1.457834394904458 -1.9815286624203825 Q 1.2565605095541397 -2.2923566878980894 0.88968152866242 -2.4554140127388537 Q 1.3559235668789804 -2.6388535031847136 1.59796178343949 -2.9904458598726116 Q 1.8425477707006364 -3.3394904458598726 1.8425477707006364 -3.7980891719745227 Q 1.8425477707006364 -4.5522292993630575 1.3482802547770696 -5.026114649681529 Q 0.8540127388535028 -5.5 0.031082802547770516 -5.5 Q -0.7332484076433123 -5.5 -1.240254777070064 -5.107643312101911 Q -1.8415286624203824 -4.646496815286624 -1.8415286624203824 -3.8414012738853502 Q -1.8415286624203824 -3.3980891719745223 -1.6173248407643315 -3.0286624203821657 Q -1.3905732484076436 -2.656687898089172 -0.9064968152866244 -2.4554140127388537 Q -1.3217834394904462 -2.274522292993631 -1.5128662420382168 -1.961146496815287 Z M -0.5574522292993631 -4.437579617834395 Q -0.32815286624203854 -4.6847133757961785 0.01070063694267498 -4.6847133757961785 Q 0.3444585987261144 -4.6847133757961785 0.5610191082802545 -4.4477707006369425 Q 0.7801273885350315 -4.20828025477707 0.7801273885350315 -3.759872611464968 Q 0.7801273885350315 -3.367515923566879 0.5584713375796175 -3.1305732484076434 Q 0.33681528662420357 -2.891082802547771 -0.004585987261146673 -2.891082802547771 Q -0.396942675159236 -2.891082802547771 -0.5905732484076436 -3.1611464968152867 Q -0.7842038216560512 -3.4312101910828026 -0.7842038216560512 -3.747133757961784 Q -0.7842038216560512 -4.190445859872612 -0.5574522292993633 -4.437579617834395 Z M -0.5039490445859871 -1.8821656050955422 Q -0.3205095541401277 -2.0757961783439494 -0.019872611464968326 -2.0757961783439494 Q 0.2858598726114647 -2.0757961783439494 0.46929936305732456 -1.8796178343949048 Q 0.6527388535031844 -1.6808917197452233 0.6527388535031844 -1.3318471337579618 Q 0.6527388535031844 -1.0031847133757967 0.4718471337579615 -0.8070063694267517 Q 0.2909554140127386 -0.6082802547770703 -0.0071337579617836155 -0.6082802547770703 Q -0.3179617834394908 -0.6082802547770703 -0.5014012738853506 -0.8095541401273891 Q -0.6848407643312104 -1.0082802547770706 -0.6848407643312104 -1.3369426751592357 Q -0.6848407643312104 -1.6859872611464972 -0.5039490445859875 -1.8821656050955418 Z " stroke="#000000" stroke-width="0.35 px" style="stroke-width:0.35;stroke-miterlimit:4;stroke-dasharray:none;fill:#cccccc;fill-opacity:1.0;fill-rule: evenodd "/>
<title>b'ShapeString001'</title>
</g>
<g id="ShapeString" transform="translate(7.140000,7.140000) scale(1,-1)">
<path id="ShapeString_f0000"  d="M -2.870828025477707 5.5035031847133755 L -0.9510828025477713 5.5035031847133755 L -0.9510828025477713 5.014331210191083 L -2.3052229299363063 5.014331210191083 L -2.3052229299363063 4.3621019108280255 L -1.135796178343949 4.3621019108280255 L -1.135796178343949 3.8729299363057317 L -2.3052229299363063 3.8729299363057317 L -2.3052229299363063 2.65 L -2.870828025477707 2.65 L -2.870828025477707 5.5035031847133755 Z " stroke="#000000" stroke-width="0.35 px" style="stroke-width:0.35;stroke-miterlimit:4;stroke-dasharray:none;fill:#cccccc;fill-opacity:1.0;fill-rule: evenodd "/>
<path id="ShapeString_f0001"  d="M -0.528152866242038 5.5035031847133755 L 0.03745222929936265 5.5035031847133755 L 0.03745222929936265 2.65 L -0.528152866242038 2.65 L -0.528152866242038 5.5035031847133755 Z " stroke="#000000" stroke-width="0.35 px" style="stroke-width:0.35;stroke-miterlimit:4;stroke-dasharray:none;fill:#cccccc;fill-opacity:1.0;fill-rule: evenodd "/>
<path id="ShapeString_f0002"  d="M 1.2336305732484067 4.1340764331210185 L 0.3546496815286617 5.5035031847133755 L 1.0157961783439484 5.5035031847133755 L 1.569936305732483 4.65 L 2.127898089171974 5.5035031847133755 L 2.7826751592356676 5.5035031847133755 L 1.9024203821656043 4.137898089171974 L 2.8692993630573245 2.65 L 2.186496815286624 2.65 L 1.566114649681528 3.6168789808917197 L 0.9431847133757945 2.65 L 0.26420382165605094 2.65 L 1.2336305732484067 4.1340764331210185 Z " stroke="#000000" stroke-width="0.35 px" style="stroke-width:0.35;stroke-miterlimit:4;stroke-dasharray:none;fill:#cccccc;fill-opacity:1.0;fill-rule: evenodd "/>
<title>b'ShapeString'</title>
</g>
<g id="Sketch" transform="translate(7.140000,7.140000) scale(1,-1)">
<path id="Sketch_w0000"  d="M -7.0 -6.000000000000103 L -7.0 5.999999999999897 A 1 1 0 0 0 -6 7L 5.999999999999897 7.0 A 1 1 0 0 0 7 6L 7.0 -5.999999999999897 A 1 1 0 0 0 6 -7L -5.999999999999897 -7.0 A 1 1 0 0 0 -7 -6" stroke="#000000" stroke-width="0.35 px" style="stroke-width:0.35;stroke-miterlimit:4;stroke-dasharray:none;fill:none;fill-rule: evenodd "/>
<title>b'Sketch'</title>
</g>
</svg>