<?xml version="1.0"?>
<!DOCTYPE svg PUBLIC "-//W3C//DTD SVG 1.1//EN" "http://www.w3.org/Graphics/SVG/1.1/DTD/svg11.dtd">
<svg width="14.28mm" height="14.28mm" viewBox="0 0 14.28 14.28" xmlns="http://www.w3.org/2000/svg" version="1.1">
<g id="ShapeString" transform="translate(7.140000,7.140000) scale(1,-1)">
<path id="ShapeString_f0000"  d="M -3.6440764331210187 5.014331210191083 L -4.475923566878981 5.014331210191083 L -4.475923566878981 5.5035031847133755 L -2.2491719745222927 5.5035031847133755 L -2.2491719745222927 5.014331210191083 L -3.0784713375796176 5.014331210191083 L -3.0784713375796176 2.65 L -3.6440764331210187 2.65 L -3.6440764331210187 5.014331210191083 Z " stroke="#000000" stroke-width="0.35 px" style="stroke-width:0.35;stroke-miterlimit:4;stroke-dasharray:none;fill:#cccccc;fill-opacity:1.0;fill-rule: evenodd "/>
<path id="ShapeString_f0001"  d="M -1.9281528662420375 5.5035031847133755 L -1.3625477707006368 5.5035031847133755 L -1.3625477707006368 2.65 L -1.9281528662420375 2.65 L -1.9281528662420375 5.5035031847133755 Z " stroke="#000000" stroke-width="0.35 px" style="stroke-width:0.35;stroke-miterlimit:4;stroke-dasharray:none;fill:#cccccc;fill-opacity:1.0;fill-rule: evenodd "/>
<path id="ShapeString_f0002"  d="M -0.8580891719745227 5.5035031847133755 L -0.0122292993630575 5.5035031847133755 L 0.49605095541401223 3.5570063694267517 L 0.999235668789809 5.5035031847133755 L 1.8476433121019111 5.5035031847133755 L 1.8476433121019111 2.65 L 1.3215286624203815 2.65 L 1.3215286624203815 4.8958598726114655 L 0.766114649681529 2.65 L 0.22089171974522248 2.65 L -0.3332484076433122 4.8958598726114655 L -0.3332484076433122 2.65 L -0.8580891719745227 2.65 L -0.8580891719745227 5.5035031847133755 Z " stroke="#000000" stroke-width="0.35 px" style="stroke-width:0.35;stroke-miterlimit:4;stroke-dasharray:none;fill:#cccccc;fill-opacity:1.0;fill-rule: evenodd "/>
<path id="ShapeString_f0003"  d="M 2.410700636942674 5.5035031847133755 L 4.487133757961783 5.5035031847133755 L 4.487133757961783 5.014331210191083 L 2.976305732484076 5.014331210191083 L 2.976305732484076 4.3621019108280255 L 4.382675159235668 4.3621019108280255 L 4.382675159235668 3.8729299363057317 L 2.976305732484076 3.8729299363057317 L 2.976305732484076 3.139171974522293 L 4.540636942675159 3.139171974522293 L 4.540636942675159 2.65 L 2.410700636942674 2.65 L 2.410700636942674 5.5035031847133755 Z " stroke="#000000" stroke-width="0.35 px" style="stroke-width:0.35;stroke-miterlimit:4;stroke-dasharray:none;fill:#cccccc;fill-opacity:1.0;fill-rule: evenodd "/>
<title>b'ShapeString'</title>
</g>
<g id="ShapeString001" transform="translate(7.140000,7.140000) scale(1,-1)">
<path id="ShapeString001_f0000"  d="M 0.7324840764331206 -1.4235668789808917 Q 0.6942675159235665 -1.0898089171974528 0.5337579617834391 -0.9318471337579624 Q 0.3732484076433118 -0.7713375796178346 0.11592356687898064 -0.7713375796178346 Q -0.22292993630573266 -0.7713375796178346 -0.4598726114649685 -1.0872611464968154 Q -0.6942675159235672 -1.4031847133757962 -0.7554140127388538 -2.3866242038216563 Q -0.3528662420382169 -1.912738853503185 0.24331210191082775 -1.912738853503185 Q 0.9159235668789805 -1.912738853503185 1.3949044585987256 -2.404458598726115 Q 1.8738853503184707 -2.8961783439490447 1.8738853503184707 -3.6757961783439494 Q 1.8738853503184707 -4.501273885350319 1.3694267515923562 -5.000636942675159 Q 0.8649681528662416 -5.5 0.07515923566878957 -5.5 Q -0.7732484076433124 -5.5 -1.3210191082802551 -4.842675159235669 Q -1.8662420382165608 -4.185350318471338 -1.8662420382165608 -2.6872611464968155 Q -1.8662420382165608 -1.1509554140127394 -1.2980891719745227 -0.4732484076433128 Q -0.7273885350318474 0.2070063694267512 0.18216560509554114 0.2070063694267512 Q 0.8216560509554136 0.2070063694267512 1.2394904458598721 -0.180254777070064 Q 1.6573248407643306 -0.5675159235668792 1.7719745222929935 -1.303821656050956 L 0.7324840764331206 -1.4235668789808917 Z M -0.4242038216560511 -4.294904458598726 Q -0.18216560509554158 -4.521656050955414 0.12866242038216535 -4.521656050955414 Q 0.4267515923566876 -4.521656050955414 0.6254777070063691 -4.338216560509554 Q 0.8242038216560506 -4.152229299363057 0.8242038216560506 -3.729299363057325 Q 0.8242038216560506 -3.2961783439490446 0.6101910828025474 -3.094904458598726 Q 0.3961783439490443 -2.891082802547771 0.07515923566878957 -2.891082802547771 Q -0.23566878980891737 -2.891082802547771 -0.4496815286624207 -3.0847133757961784 Q -0.6636942675159239 -3.275796178343949 -0.6636942675159239 -3.6528662420382165 Q -0.6636942675159239 -4.0681528662420385 -0.4242038216560513 -4.294904458598726 Z " stroke="#000000" stroke-width="0.35 px" style="stroke-width:0.35;stroke-miterlimit:4;stroke-dasharray:none;fill:#cccccc;fill-opacity:1.0;fill-rule: evenodd "/>
<title>b'ShapeString001'</title>
</g>
<g id="ShapeString002" transform="translate(7.140000,7.140000) scale(1,-1)">
<path id="ShapeString002_f0000"  d="M 3.865350318471338 -3.146496815286624 L 5.941783439490446 -3.146496815286624 L 5.941783439490446 -3.635668789808917 L 4.430955414012739 -3.635668789808917 L 4.430955414012739 -4.287898089171975 L 5.837324840764332 -4.287898089171975 L 5.837324840764332 -4.777070063694268 L 4.430955414012739 -4.777070063694268 L 4.430955414012739 -5.510828025477707 L 5.995286624203822 -5.510828025477707 L 5.995286624203822 -6.0 L 3.865350318471338 -6.0 L 3.865350318471338 -3.146496815286624 Z " stroke="#000000" stroke-width="0.35 px" style="stroke-width:0.35;stroke-miterlimit:4;stroke-dasharray:none;fill:#cccccc;fill-opacity:1.0;fill-rule: evenodd "/>
<title>b'ShapeString002'</title>
</g>
<g id="Sketch" transform="translate(7.140000,7.140000) scale(1,-1)">
<path id="Sketch_w0000"  d="M -7.0 -6.000000000000103 L -7.0 5.999999999999897 A 1 1 0 0 0 -6 7L 5.999999999999897 7.0 A 1 1 0 0 0 7 6L 7.0 -5.999999999999897 A 1 1 0 0 0 6 -7L -5.999999999999897 -7.0 A 1 1 0 0 0 -7 -6" stroke="#000000" stroke-width="0.35 px" style="stroke-width:0.35;stroke-miterlimit:4;stroke-dasharray:none;fill:none;fill-rule: evenodd "/>
<title>b'Sketch'</title>
</g>
</svg>