<?xml version="1.0"?>
<!DOCTYPE svg PUBLIC "-//W3C//DTD SVG 1.1//EN" "http://www.w3.org/Graphics/SVG/1.1/DTD/svg11.dtd">
<svg width="14.28mm" height="14.28mm" viewBox="0 0 14.28 14.28" xmlns="http://www.w3.org/2000/svg" version="1.1">
<g id="ShapeString" transform="translate(7.140000,7.140000) scale(1,-1)">
<path id="ShapeString_f0000"  d="M -1.8945222929936296 2.456815286624204 Q -2.020636942675159 2.0020382165605097 -2.3136305732484073 1.7803821656050955 Q -2.6066242038216556 1.56 -3.057579617834395 1.56 Q -3.615541401273885 1.56 -3.974777070063694 1.9459872611464968 Q -4.334012738853502 2.3319745222929935 -4.334012738853502 3.0020382165605097 Q -4.334012738853502 3.7103184713375796 -3.9735031847133753 4.102675159235669 Q -3.6117197452229295 4.495031847133758 -3.023184713375796 4.495031847133758 Q -2.509808917197452 4.495031847133758 -2.188789808917197 4.162547770700637 Q -1.9977070063694264 3.966369426751592 -1.902165605095541 3.598216560509554 L -2.4614012738853495 3.516687898089172 Q -2.5110828025477705 3.74343949044586 -2.669044585987261 3.874649681528662 Q -2.8270063694267513 4.005859872611465 -3.052484076433121 4.005859872611465 Q -3.363312101910828 4.005859872611465 -3.5582165605095537 3.779108280254777 Q -3.7518471337579613 3.5523566878980892 -3.7518471337579613 3.0453503184713373 Q -3.7518471337579613 2.5064968152866243 -3.5607643312101906 2.2771974522292995 Q -3.36968152866242 2.049171974522293 -3.063949044585987 2.049171974522293 Q -2.838471337579618 2.049171974522293 -2.6766878980891717 2.186751592356688 Q -2.5136305732484074 2.3243312101910827 -2.442292993630573 2.6198726114649684 L -1.8945222929936296 2.456815286624204 Z " stroke="#000000" stroke-width="0.35 px" style="stroke-width:0.35;stroke-miterlimit:4;stroke-dasharray:none;fill:#cccccc;fill-opacity:1.0;fill-rule: evenodd "/>
<path id="ShapeString_f0001"  d="M -1.3671337579617826 3.716687898089172 Q -1.271592356687898 3.9396178343949044 -1.107261146496815 4.116687898089172 Q -0.9416560509554137 4.29375796178344 -0.7442038216560509 4.379108280254777 Q -0.4830573248407646 4.495031847133758 -0.14038216560509564 4.495031847133758 Q 0.47872611464968173 4.495031847133758 0.8494267515923566 4.0950318471337575 Q 1.2214012738853501 3.695031847133758 1.2214012738853501 2.9829299363057324 Q 1.2214012738853501 2.275923566878981 0.8519745222929931 1.8771974522292993 Q 0.4838216560509556 1.478471337579618 -0.13273885350318437 1.478471337579618 Q -0.7582165605095539 1.478471337579618 -1.1276433121019105 1.8746496815286624 Q -1.4957961783439488 2.2721019108280256 -1.4957961783439488 2.968917197452229 Q -1.4957961783439488 3.4147770700636944 -1.367133757961783 3.7166878980891718 Z M -0.6945222929936308 2.22624203821656 Q -0.4741401273885346 1.9676433121019108 -0.13528662420382176 1.9676433121019108 Q 0.2022929936305733 1.9676433121019108 0.4188535031847138 2.224968152866242 Q 0.6366878980891721 2.482292993630573 0.6366878980891721 2.996942675159236 Q 0.6366878980891721 3.5052229299363056 0.4252229299363055 3.754904458598726 Q 0.21375796178343975 4.005859872611465 -0.13528662420382176 4.005859872611465 Q -0.4856050955414011 4.005859872611465 -0.6996178343949042 3.752356687898089 Q -0.9136305732484074 3.498853503184713 -0.9136305732484074 2.9892993630573246 Q -0.9136305732484074 2.4861146496815287 -0.6945222929936303 2.2262420382165606 Z " stroke="#000000" stroke-width="0.35 px" style="stroke-width:0.35;stroke-miterlimit:4;stroke-dasharray:none;fill:#cccccc;fill-opacity:1.0;fill-rule: evenodd "/>
<path id="ShapeString_f0002"  d="M 1.627770700636943 4.413503184713376 L 2.473630573248408 4.413503184713376 L 2.9819108280254776 2.467006369426752 L 3.4850955414012734 4.413503184713376 L 4.333503184713376 4.413503184713376 L 4.333503184713376 1.56 L 3.8073885350318477 1.56 L 3.8073885350318477 3.805859872611465 L 3.2519745222929934 1.56 L 2.706751592356688 1.56 L 2.152611464968153 3.805859872611465 L 2.152611464968153 1.56 L 1.627770700636943 1.56 L 1.627770700636943 4.413503184713376 Z " stroke="#000000" stroke-width="0.35 px" style="stroke-width:0.35;stroke-miterlimit:4;stroke-dasharray:none;fill:#cccccc;fill-opacity:1.0;fill-rule: evenodd "/>
<title>b'ShapeString'</title>
</g>
<g id="ShapeString001" transform="translate(7.140000,7.140000) scale(1,-1)">
<path id="ShapeString001_f0000"  d="M -0.26617834394904505 -4.5 L -0.26617834394904505 -2.460509554140128 Q -0.5604458598726115 -2.736942675159236 -0.9604458598726116 -2.869426751592357 L -0.960445859872611 -2.380254777070064 Q -0.7502547770700637 -2.3089171974522293 -0.5043949044585988 -2.110191082802548 Q -0.2572611464968153 -1.9114649681528664 -0.1655414012738854 -1.6464968152866244 L 0.27012738853503193 -1.646496815286624 L 0.27012738853503193 -4.5 L -0.26617834394904505 -4.5 Z " stroke="#000000" stroke-width="0.35 px" style="stroke-width:0.35;stroke-miterlimit:4;stroke-dasharray:none;fill:#cccccc;fill-opacity:1.0;fill-rule: evenodd "/>
<title>b'ShapeString001'</title>
</g>
<g id="Sketch" transform="translate(7.140000,7.140000) scale(1,-1)">
<circle cx="0.0" cy="0.0" r="7.0" stroke="#000000" stroke-width="0.35 px" style="stroke-width:0.35;stroke-miterlimit:4;stroke-dasharray:none;fill:none"/>
<title>b'Sketch'</title>
</g>
</svg>