<?xml version="1.0"?>
<!DOCTYPE svg PUBLIC "-//W3C//DTD SVG 1.1//EN" "http://www.w3.org/Graphics/SVG/1.1/DTD/svg11.dtd">
<svg width="14.28mm" height="14.28mm" viewBox="0 0 14.28 14.28" xmlns="http://www.w3.org/2000/svg" version="1.1">
<g id="Sketch" transform="translate(7.140000,7.140000) scale(1,-1)">
<path id="Sketch_w0000"  d="M -7.0 -6.000000000000103 L -7.0 5.999999999999897 A 1 1 0 0 0 -6 7L 5.999999999999897 7.0 A 1 1 0 0 0 7 6L 7.0 -5.999999999999897 A 1 1 0 0 0 6 -7L -5.999999999999897 -7.0 A 1 1 0 0 0 -7 -6" stroke="#000000" stroke-width="0.35 px" style="stroke-width:0.35;stroke-miterlimit:4;stroke-dasharray:none;fill:none;fill-rule: evenodd "/>
<title>b'Sketch'</title>
</g>
<g id="ShapeString" transform="translate(7.140000,7.140000) scale(1,-1)">
<path id="ShapeString_f0000"  d="M -4.323280254777069 3.546815286624204 Q -4.273598726114649 3.2945859872611463 -4.122006369426751 3.1761146496815287 Q -3.9691401273885347 3.0576433121019106 -3.7118152866242036 3.0576433121019106 Q -3.437929936305732 3.0576433121019106 -3.300350318471337 3.168471337579618 Q -3.161496815286624 3.2792993630573246 -3.161496815286624 3.4270700636942673 Q -3.161496815286624 3.521337579617834 -3.2200955414012737 3.5875796178343946 Q -3.277420382165605 3.655095541401274 -3.4226433121019104 3.7047770700636944 Q -3.5220063694267516 3.742993630573248 -3.876146496815286 3.8423566878980893 Q -4.3309235668789805 3.963375796178344 -4.51436305732484 4.140445859872611 Q -4.771687898089172 4.388853503184713 -4.771687898089172 4.745541401273885 Q -4.771687898089172 4.97484076433121 -4.6506687898089165 5.1748407643312095 Q -4.529649681528662 5.376114649681528 -4.301624203821656 5.480573248407643 Q -4.072324840764331 5.585031847133758 -3.7500318471337577 5.585031847133758 Q -3.2226433121019107 5.585031847133758 -2.95640127388535 5.340445859872611 Q -2.688885350318471 5.095859872611465 -2.6761464968152864 4.688216560509554 L -3.241751592356688 4.688216560509554 Q -3.277420382165605 4.906050955414012 -3.397165605095541 5.000318471337579 Q -3.5169108280254777 5.095859872611465 -3.7551273885350316 5.095859872611465 Q -4.002261146496815 5.095859872611465 -4.141114649681528 4.99140127388535 Q -4.23156050955414 4.923885350318471 -4.23156050955414 4.810509554140127 Q -4.23156050955414 4.70859872611465 -4.147484076433121 4.634713375796178 Q -4.040477707006369 4.541719745222929 -3.6277388535031845 4.4308917197452224 Q -3.215 4.321337579617834 -3.0175477707006366 4.213057324840764 Q -2.818821656050955 4.1060509554140125 -2.7079936305732484 3.9200636942675158 Q -2.595891719745223 3.734076433121019 -2.595891719745223 3.4601910828025475 Q -2.595891719745223 3.213057324840764 -2.729649681528662 2.995222929936306 Q -2.863407643312102 2.7786624203821657 -3.1079936305732483 2.6729299363057324 Q -3.3525796178343947 2.5684713375796178 -3.7169108280254775 2.5684713375796178 Q -4.24812101910828 2.5684713375796178 -4.533471337579617 2.7977707006369426 Q -4.817547770700637 3.0270700636942673 -4.87359872611465 3.4652866242038214 L -4.323280254777069 3.546815286624204 Z " stroke="#000000" stroke-width="0.35 px" style="stroke-width:0.35;stroke-miterlimit:4;stroke-dasharray:none;fill:#cccccc;fill-opacity:1.0;fill-rule: evenodd "/>
<path id="ShapeString_f0001"  d="M -1.4901592356687896 5.014331210191083 L -2.322006369426752 5.014331210191083 L -2.322006369426752 5.5035031847133755 L -0.09525477707006225 5.5035031847133755 L -0.09525477707006225 5.014331210191083 L -0.9245541401273885 5.014331210191083 L -0.9245541401273885 2.65 L -1.4901592356687896 2.65 L -1.4901592356687896 5.014331210191083 Z " stroke="#000000" stroke-width="0.35 px" style="stroke-width:0.35;stroke-miterlimit:4;stroke-dasharray:none;fill:#cccccc;fill-opacity:1.0;fill-rule: evenodd "/>
<path id="ShapeString_f0002"  d="M 0.24359872611464972 5.5035031847133755 L 1.1506050955414011 5.5035031847133755 Q 1.6665286624203821 5.5035031847133755 1.8232165605095538 5.460191082802547 Q 2.063980891719745 5.395222929936306 2.2257643312101907 5.177388535031847 Q 2.388821656050955 4.960828025477706 2.388821656050955 4.61687898089172 Q 2.388821656050955 4.351910828025478 2.2945541401273886 4.171019108280254 Q 2.20156050955414 3.99140127388535 2.0576114649681534 3.888216560509554 Q 1.913662420382166 3.785031847133758 1.7646178343949046 3.7506369426751593 Q 1.562070063694267 3.7098726114649683 1.1773566878980892 3.7098726114649683 L 0.8092038216560518 3.709872611464968 L 0.8092038216560518 2.65 L 0.24359872611464972 2.65 L 0.24359872611464972 5.5035031847133755 Z M 0.8092038216560518 4.199044585987261 L 1.11875796178344 4.199044585987261 Q 1.4537898089171977 4.199044585987261 1.5658917197452231 4.243630573248407 Q 1.6792675159235673 4.289490445859872 1.7429617834394904 4.3850318471337575 Q 1.8066560509554135 4.481847133757961 1.8066560509554135 4.609235668789809 Q 1.8066560509554135 4.76592356687898 1.7162101910828023 4.867834394904458 Q 1.6270382165605097 4.9697452229299355 1.4894585987261149 4.995222929936306 Q 1.388821656050955 5.014331210191083 1.083089171974522 5.014331210191083 L 0.8092038216560518 5.014331210191083 L 0.8092038216560518 4.199044585987261 Z " stroke="#000000" stroke-width="0.35 px" style="stroke-width:0.35;stroke-miterlimit:4;stroke-dasharray:none;fill:#cccccc;fill-opacity:1.0;fill-rule: evenodd "/>
<path id="ShapeString_f0003"  d="M 3.4830891719745223 5.014331210191083 L 2.6512420382165605 5.014331210191083 L 2.6512420382165605 5.5035031847133755 L 4.877993630573248 5.5035031847133755 L 4.877993630573248 5.014331210191083 L 4.0486942675159225 5.014331210191083 L 4.0486942675159225 2.65 L 3.4830891719745223 2.65 L 3.4830891719745223 5.014331210191083 Z " stroke="#000000" stroke-width="0.35 px" style="stroke-width:0.35;stroke-miterlimit:4;stroke-dasharray:none;fill:#cccccc;fill-opacity:1.0;fill-rule: evenodd "/>
<title>b'ShapeString'</title>
</g>
<g id="ShapeString001" transform="translate(7.140000,7.140000) scale(1,-1)">
<path id="ShapeString001_f0000"  d="M 0.28321656050955424 -4.35859872611465 L -2.0097770700636937 -4.35859872611465 L -2.0097770700636937 -3.222292993630573 L 0.4207961783439491 0.2070063694267512 L 1.3227070063694262 0.2070063694267512 L 1.3227070063694262 -3.217197452229299 L 2.0182484076433123 -3.217197452229299 L 2.0182484076433123 -4.35859872611465 L 1.3227070063694262 -4.35859872611465 L 1.3227070063694262 -5.5 L 0.28321656050955424 -5.5 L 0.28321656050955424 -4.35859872611465 Z M 0.28321656050955424 -1.4031847133757962 L -1.0034076433121017 -3.217197452229299 L 0.28321656050955424 -3.217197452229299 L 0.28321656050955424 -1.4031847133757962 Z " stroke="#000000" stroke-width="0.35 px" style="stroke-width:0.35;stroke-miterlimit:4;stroke-dasharray:none;fill:#cccccc;fill-opacity:1.0;fill-rule: evenodd "/>
<title>b'ShapeString001'</title>
</g>
<g id="ShapeString002" transform="translate(7.140000,7.140000) scale(1,-1)">
<path id="ShapeString002_f0000"  d="M 2.724012738853503 -3.146496815286624 L 3.3023566878980892 -3.146496815286624 L 3.725286624203822 -5.1070063694267525 L 4.237388535031847 -3.146496815286624 L 4.91 -3.146496815286624 L 5.400445859872611 -5.140127388535032 L 5.831019108280255 -3.146496815286624 L 6.400445859872611 -3.146496815286624 L 5.720191082802549 -6.0 L 5.120191082802548 -6.0 L 4.562229299363057 -3.866242038216561 L 4.005541401273885 -6.0 L 3.392802547770701 -6.0 L 2.724012738853503 -3.146496815286624 Z " stroke="#000000" stroke-width="0.35 px" style="stroke-width:0.35;stroke-miterlimit:4;stroke-dasharray:none;fill:#cccccc;fill-opacity:1.0;fill-rule: evenodd "/>
<title>b'ShapeString002'</title>
</g>
</svg>