<?xml version="1.0"?>
<!DOCTYPE svg PUBLIC "-//W3C//DTD SVG 1.1//EN" "http://www.w3.org/Graphics/SVG/1.1/DTD/svg11.dtd">
<svg width="10.2mm" height="10.2mm" viewBox="0 0 10.2 10.2" xmlns="http://www.w3.org/2000/svg" version="1.1">
<g id="Sketch" transform="translate(5.100000,5.100000) scale(1,-1)">
<circle cx="0.0" cy="0.0" r="5.0" stroke="#000000" stroke-width="0.35 px" style="stroke-width:0.35;stroke-miterlimit:4;stroke-dasharray:none;fill:none"/>
<title>b'Sketch'</title>
</g>
<g id="ShapeString" transform="translate(5.100000,5.100000) scale(1,-1)">
<path id="ShapeString_f0000"  d="M -3.125987261146497 1.428503184713376 L -2.5476433121019113 1.428503184713376 L -2.124713375796178 -0.5320063694267521 L -1.612611464968153 1.428503184713376 L -0.94 1.428503184713376 L -0.44955414012738926 -0.5651273885350321 L -0.018980891719745152 1.428503184713376 L 0.5504458598726107 1.428503184713376 L -0.1298089171974519 -1.425 L -0.729808917197452 -1.425 L -1.2877707006369432 0.7087579617834388 L -1.844458598726115 -1.425 L -2.457197452229299 -1.425 L -3.125987261146497 1.428503184713376 Z " stroke="#000000" stroke-width="0.35 px" style="stroke-width:0.35;stroke-miterlimit:4;stroke-dasharray:none;fill:#cccccc;fill-opacity:1.0;fill-rule: evenodd "/>
<path id="ShapeString_f0001"  d="M 1.4982165605095532 0.059076433121018956 L 0.6192356687898091 1.428503184713376 L 1.2803821656050949 1.428503184713376 L 1.8345222929936296 0.575 L 2.3924840764331194 1.428503184713376 L 3.047261146496814 1.428503184713376 L 2.1670063694267507 0.06289808917197393 L 3.133885350318471 -1.425 L 2.4510828025477704 -1.425 L 1.8307006369426735 -0.45812101910828007 L 1.2077707006369418 -1.425 L 0.528789808917197 -1.425 L 1.4982165605095532 0.059076433121018956 Z " stroke="#000000" stroke-width="0.35 px" style="stroke-width:0.35;stroke-miterlimit:4;stroke-dasharray:none;fill:#cccccc;fill-opacity:1.0;fill-rule: evenodd "/>
<title>b'ShapeString'</title>
</g>
</svg>