<?xml version="1.0"?>
<!DOCTYPE svg PUBLIC "-//W3C//DTD SVG 1.1//EN" "http://www.w3.org/Graphics/SVG/1.1/DTD/svg11.dtd">
<svg width="14.28mm" height="14.28mm" viewBox="0 0 14.28 14.28" xmlns="http://www.w3.org/2000/svg" version="1.1">
<g id="ShapeString" transform="translate(7.140000,7.140000) scale(1,-1)">
<path id="ShapeString_f0000"  d="M -1.2788216560509555 -1.43 L -1.5234076433121022 -0.7777707006369426 L -2.6431528662420383 -0.7777707006369426 L -2.875 -1.43 L -3.475 -1.43 L -2.38328025477707 1.4235031847133757 L -1.7858280254777072 1.4235031847133757 L -0.6635350318471338 -1.43 L -1.2788216560509555 -1.43 Z M -2.0915605095541405 0.9343312101910828 L -2.469904458598726 -0.28859872611464965 L -1.7055732484076436 -0.28859872611464965 L -2.0915605095541405 0.9343312101910828 Z " stroke="#000000" stroke-width="0.35 px" style="stroke-width:0.35;stroke-miterlimit:4;stroke-dasharray:none;fill:#cccccc;fill-opacity:1.0;fill-rule: evenodd "/>
<path id="ShapeString_f0001"  d="M -0.40111464968152877 -0.2070700636942675 L 0.6536624203821648 -0.2070700636942675 L 0.6536624203821648 -0.6962420382165605 L -0.40111464968152877 -0.6962420382165605 L -0.40111464968152877 -0.2070700636942675 Z " stroke="#000000" stroke-width="0.35 px" style="stroke-width:0.35;stroke-miterlimit:4;stroke-dasharray:none;fill:#cccccc;fill-opacity:1.0;fill-rule: evenodd "/>
<path id="ShapeString_f0002"  d="M 2.2714968152866244 0.11904458598726109 L 3.4906050955414005 0.11904458598726109 L 3.4906050955414005 -1.0720382165605096 Q 3.3122611464968155 -1.24656050955414 2.9746815286624204 -1.379044585987261 Q 2.638375796178344 -1.511528662420382 2.29187898089172 -1.511528662420382 Q 1.8523885350318472 -1.511528662420382 1.525 -1.3204458598726114 Q 1.1988853503184713 -1.1280891719745223 1.0345541401273883 -0.7714012738853503 Q 0.8702229299363053 -0.4134394904458598 0.8702229299363053 0.006942675159235634 Q 0.8702229299363053 0.46299363057324827 1.0536624203821652 0.8171337579617834 Q 1.237101910828025 1.1712738853503184 1.5912420382165604 1.3598089171974521 Q 1.8600318471337576 1.5050318471337578 2.2613057324840766 1.5050318471337578 Q 2.7835987261146493 1.5050318471337578 3.076592356687898 1.266815286624204 Q 3.369585987261146 1.0285987261146496 3.4536624203821655 0.6082165605095542 L 2.8918789808917196 0.526687898089172 Q 2.8332802547770704 0.7534394904458599 2.6689490445859874 0.8846496815286622 Q 2.505891719745223 1.015859872611465 2.2613057324840766 1.015859872611465 Q 1.8906050955414009 1.015859872611465 1.6714968152866239 0.7674522292993629 Q 1.4536624203821655 0.519044585987261 1.4536624203821655 0.031146496815286584 Q 1.4536624203821655 -0.49624203821656054 1.675318471337579 -0.759936305732484 Q 1.8969745222929935 -1.0223566878980892 2.256210191082802 -1.0223566878980892 Q 2.43328025477707 -1.0223566878980892 2.611624203821656 -0.9459235668789809 Q 2.7912420382165606 -0.8694904458598726 2.918630573248407 -0.759936305732484 L 2.918630573248407 -0.3701273885350318 L 2.2714968152866244 -0.3701273885350318 L 2.2714968152866244 0.11904458598726109 Z " stroke="#000000" stroke-width="0.35 px" style="stroke-width:0.35;stroke-miterlimit:4;stroke-dasharray:none;fill:#cccccc;fill-opacity:1.0;fill-rule: evenodd "/>
<title>b'ShapeString'</title>
</g>
<g id="Sketch" transform="translate(7.140000,7.140000) scale(1,-1)">
<circle cx="0.0" cy="0.0" r="7.0" stroke="#000000" stroke-width="0.35 px" style="stroke-width:0.35;stroke-miterlimit:4;stroke-dasharray:none;fill:none"/>
<title>b'Sketch'</title>
</g>
</svg>