<?xml version="1.0"?>
<!DOCTYPE svg PUBLIC "-//W3C//DTD SVG 1.1//EN" "http://www.w3.org/Graphics/SVG/1.1/DTD/svg11.dtd">
<svg width="14.28mm" height="14.28mm" viewBox="0 0 14.28 14.28" xmlns="http://www.w3.org/2000/svg" version="1.1">
<g id="Sketch" transform="translate(7.140000,7.140000) scale(1,-1)">
<path id="Sketch_w0000"  d="M -7.0 -6.000000000000103 L -7.0 5.999999999999897 A 1 1 0 0 0 -6 7L 5.999999999999897 7.0 A 1 1 0 0 0 7 6L 7.0 -5.999999999999897 A 1 1 0 0 0 6 -7L -5.999999999999897 -7.0 A 1 1 0 0 0 -7 -6" stroke="#000000" stroke-width="0.35 px" style="stroke-width:0.35;stroke-miterlimit:4;stroke-dasharray:none;fill:none;fill-rule: evenodd "/>
<title>b'Sketch'</title>
</g>
<g id="ShapeString" transform="translate(7.140000,7.140000) scale(1,-1)">
<path id="ShapeString_f0000"  d="M -5.717292993630573 5.5035031847133755 L -4.871433121019108 5.5035031847133755 L -4.363152866242038 3.5570063694267517 L -3.859968152866242 5.5035031847133755 L -3.01156050955414 5.5035031847133755 L -3.01156050955414 2.65 L -3.537675159235669 2.65 L -3.537675159235669 4.8958598726114655 L -4.093089171974523 2.65 L -4.638312101910828 2.65 L -5.192452229299363 4.8958598726114655 L -5.192452229299363 2.65 L -5.717292993630573 2.65 L -5.717292993630573 5.5035031847133755 Z " stroke="#000000" stroke-width="0.35 px" style="stroke-width:0.35;stroke-miterlimit:4;stroke-dasharray:none;fill:#cccccc;fill-opacity:1.0;fill-rule: evenodd "/>
<path id="ShapeString_f0001"  d="M -0.5376751592356692 2.65 L -0.7822611464968166 3.3022292993630566 L -1.9020063694267524 3.3022292993630566 L -2.133853503184714 2.65 L -2.733853503184714 2.65 L -1.6421337579617843 5.5035031847133755 L -1.0446815286624211 5.5035031847133755 L 0.07761146496815297 2.65 L -0.5376751592356692 2.65 Z M -1.3504140127388542 5.014331210191083 L -1.7287579617834394 3.79140127388535 L -0.9644267515923568 3.79140127388535 L -1.3504140127388542 5.014331210191083 Z " stroke="#000000" stroke-width="0.35 px" style="stroke-width:0.35;stroke-miterlimit:4;stroke-dasharray:none;fill:#cccccc;fill-opacity:1.0;fill-rule: evenodd "/>
<path id="ShapeString_f0002"  d="M 0.40627388535031805 5.5035031847133755 L 1.5973566878980883 5.5035031847133755 Q 2.045764331210191 5.5035031847133755 2.2495859872611463 5.428343949044586 Q 2.4534076433121017 5.353184713375796 2.575700636942675 5.160828025477707 Q 2.697993630573248 4.968471337579618 2.697993630573248 4.721337579617835 Q 2.697993630573248 4.40796178343949 2.512006369426751 4.202866242038216 Q 2.3272929936305724 3.999044585987261 1.9578662420382154 3.945541401273885 Q 2.141305732484075 3.8334394904458597 2.261050955414011 3.698407643312102 Q 2.3807961783439486 3.564649681528662 2.5833439490445853 3.223248407643312 L 2.9247452229299364 2.65 L 2.2483121019108276 2.65 L 1.8393949044585982 3.272929936305732 Q 1.621560509554139 3.623248407643312 1.5413057324840755 3.7136942675159235 Q 1.461050955414012 3.8054140127388534 1.3706050955414009 3.8385350318471336 Q 1.2814331210191074 3.8729299363057326 1.0865286624203812 3.8729299363057326 L 0.9718789808917192 3.8729299363057317 L 0.9718789808917192 2.65 L 0.40627388535031805 2.65 L 0.40627388535031805 5.5035031847133755 Z M 1.3909872611464973 4.3621019108280255 Q 1.7973566878980884 4.3621019108280255 1.8979936305732474 4.3939490445859875 Q 1.9999044585987251 4.425796178343949 2.0572292993630557 4.502229299363057 Q 2.114554140127388 4.579936305732484 2.114554140127388 4.695859872611464 Q 2.114554140127388 4.82452229299363 2.0393949044585975 4.904777070063695 Q 1.964235668789808 4.985031847133758 1.826656050955413 5.005414012738854 Q 1.757866242038216 5.014331210191083 1.4139171974522284 5.014331210191083 L 0.9718789808917192 5.014331210191083 L 0.9718789808917192 4.3621019108280255 L 1.3909872611464973 4.3621019108280255 Z " stroke="#000000" stroke-width="0.35 px" style="stroke-width:0.35;stroke-miterlimit:4;stroke-dasharray:none;fill:#cccccc;fill-opacity:1.0;fill-rule: evenodd "/>
<path id="ShapeString_f0003"  d="M 3.266146496815286 5.5035031847133755 L 3.831751592356688 5.5035031847133755 L 3.831751592356688 4.311146496815286 L 4.974426751592357 5.5035031847133755 L 5.734936305732483 5.5035031847133755 L 4.68015923566879 4.402866242038216 L 5.7922611464968154 2.65 L 5.059777070063693 2.65 L 4.290350318471337 3.976114649681529 L 3.831751592356688 3.517515923566879 L 3.831751592356688 2.65 L 3.266146496815286 2.65 L 3.266146496815286 5.5035031847133755 Z " stroke="#000000" stroke-width="0.35 px" style="stroke-width:0.35;stroke-miterlimit:4;stroke-dasharray:none;fill:#cccccc;fill-opacity:1.0;fill-rule: evenodd "/>
<title>b'ShapeString'</title>
</g>
<g id="ShapeString001" transform="translate(7.140000,7.140000) scale(1,-1)">
<path id="ShapeString001_f0000"  d="M -1.8412420382165609 0.2070063694267512 L 1.830095541401274 0.2070063694267512 L 1.830095541401274 -0.6082802547770703 Q 1.376592356687898 -1.0694267515923572 0.9052547770700636 -1.9331210191082806 Q 0.4364649681528663 -2.794267515923567 0.1893312101910829 -3.764968152866242 Q -0.057802547770700485 -4.735668789808917 -0.0527070063694266 -5.5 L -1.0896496815286618 -5.5 Q -1.061624203821656 -4.328025477707007 -0.6106687898089171 -3.112738853503185 Q -0.15716560509554123 -1.8949044585987265 0.5995222929936306 -0.9343949044585989 L -1.8412420382165609 -0.9343949044585989 L -1.8412420382165609 0.2070063694267512 Z " stroke="#000000" stroke-width="0.35 px" style="stroke-width:0.35;stroke-miterlimit:4;stroke-dasharray:none;fill:#cccccc;fill-opacity:1.0;fill-rule: evenodd "/>
<title>b'ShapeString001'</title>
</g>
</svg>