<?xml version="1.0"?>
<!DOCTYPE svg PUBLIC "-//W3C//DTD SVG 1.1//EN" "http://www.w3.org/Graphics/SVG/1.1/DTD/svg11.dtd">
<svg width="14.28mm" height="14.28mm" viewBox="0 0 14.28 14.28" xmlns="http://www.w3.org/2000/svg" version="1.1">
<g id="Sketch" transform="translate(7.140000,7.140000) scale(1,-1)">
<path id="Sketch_w0000"  d="M -7.0 -6.000000000000103 L -7.0 5.999999999999897 A 1 1 0 0 0 -6 7L 5.999999999999897 7.0 A 1 1 0 0 0 7 6L 7.0 -5.999999999999897 A 1 1 0 0 0 6 -7L -5.999999999999897 -7.0 A 1 1 0 0 0 -7 -6" stroke="#000000" stroke-width="0.35 px" style="stroke-width:0.35;stroke-miterlimit:4;stroke-dasharray:none;fill:none;fill-rule: evenodd "/>
<title>b'Sketch'</title>
</g>
<g id="ShapeString" transform="translate(7.140000,7.140000) scale(1,-1)">
<path id="ShapeString_f0000"  d="M -3.763821656050955 2.65 L -4.008407643312102 3.3022292993630566 L -5.128152866242038 3.3022292993630566 L -5.36 2.65 L -5.96 2.65 L -4.86828025477707 5.5035031847133755 L -4.270828025477707 5.5035031847133755 L -3.148535031847134 2.65 L -3.763821656050955 2.65 Z M -4.57656050955414 5.014331210191083 L -4.954904458598726 3.79140127388535 L -4.1905732484076434 3.79140127388535 L -4.57656050955414 5.014331210191083 Z " stroke="#000000" stroke-width="0.35 px" style="stroke-width:0.35;stroke-miterlimit:4;stroke-dasharray:none;fill:#cccccc;fill-opacity:1.0;fill-rule: evenodd "/>
<path id="ShapeString_f0001"  d="M -2.8058598726114647 5.5035031847133755 L -2.240254777070064 5.5035031847133755 L -2.240254777070064 3.139171974522293 L -0.8338853503184716 3.139171974522293 L -0.8338853503184716 2.65 L -2.8058598726114647 2.65 L -2.8058598726114647 5.5035031847133755 Z " stroke="#000000" stroke-width="0.35 px" style="stroke-width:0.35;stroke-miterlimit:4;stroke-dasharray:none;fill:#cccccc;fill-opacity:1.0;fill-rule: evenodd "/>
<path id="ShapeString_f0002"  d="M -0.44280254777070116 4.806687898089172 Q -0.34726114649681517 5.029617834394904 -0.18292993630573307 5.2066878980891715 Q -0.017324840764331384 5.38375796178344 0.1801273885350314 5.469108280254777 Q 0.4412738853503182 5.585031847133758 0.7839490445859871 5.585031847133758 Q 1.4030573248407636 5.585031847133758 1.7737579617834394 5.185031847133757 Q 2.145732484076434 4.785031847133758 2.145732484076434 4.072929936305732 Q 2.145732484076434 3.3659235668789806 1.7763057324840759 2.9671974522292994 Q 1.4081528662420384 2.5684713375796178 0.7915923566878975 2.5684713375796178 Q 0.16611464968152845 2.5684713375796178 -0.2033121019108286 2.9646496815286625 Q -0.5714649681528661 3.3621019108280255 -0.5714649681528661 4.058917197452229 Q -0.5714649681528661 4.504777070063694 -0.44280254777070116 4.806687898089171 Z M 0.22980891719745244 3.31624203821656 Q 0.45019108280254727 3.0576433121019106 0.789044585987261 3.0576433121019106 Q 1.1266242038216552 3.0576433121019106 1.3431847133757957 3.314968152866242 Q 1.561019108280255 3.572292993630573 1.561019108280255 4.086942675159236 Q 1.561019108280255 4.595222929936305 1.3495541401273883 4.844904458598726 Q 1.1380891719745216 5.095859872611465 0.789044585987261 5.095859872611465 Q 0.4387261146496817 5.095859872611465 0.22471337579617767 4.842356687898089 Q 0.010700636942674535 4.588853503184713 0.010700636942674535 4.079299363057324 Q 0.010700636942674535 3.5761146496815286 0.22980891719745156 3.3162420382165605 Z " stroke="#000000" stroke-width="0.35 px" style="stroke-width:0.35;stroke-miterlimit:4;stroke-dasharray:none;fill:#cccccc;fill-opacity:1.0;fill-rule: evenodd "/>
<path id="ShapeString_f0003"  d="M 2.2884076433121026 5.5035031847133755 L 2.866751592356688 5.5035031847133755 L 3.2896815286624213 3.542993630573248 L 3.8017834394904453 5.5035031847133755 L 4.474394904458598 5.5035031847133755 L 4.96484076433121 3.509872611464968 L 5.395414012738853 5.5035031847133755 L 5.96484076433121 5.5035031847133755 L 5.2845859872611465 2.65 L 4.684585987261147 2.65 L 4.126624203821655 4.783757961783438 L 3.569936305732484 2.65 L 2.957197452229299 2.65 L 2.2884076433121026 5.5035031847133755 Z " stroke="#000000" stroke-width="0.35 px" style="stroke-width:0.35;stroke-miterlimit:4;stroke-dasharray:none;fill:#cccccc;fill-opacity:1.0;fill-rule: evenodd "/>
<title>b'ShapeString'</title>
</g>
<g id="ShapeString001" transform="translate(7.140000,7.140000) scale(1,-1)">
<path id="ShapeString001_f0000"  d="M 1.889235668789809 -5.5 L -1.8738216560509549 -5.5 Q -1.8126751592356687 -4.934394904458599 -1.5069426751592356 -4.429936305732484 Q -1.2012101910828026 -3.9229299363057324 -0.29929936305732485 -3.0872611464968154 Q 0.42681528662420387 -2.4121019108280257 0.5898726114649682 -2.172611464968153 Q 0.8115286624203821 -1.8388535031847137 0.8115286624203821 -1.5152866242038217 Q 0.8115286624203821 -1.1560509554140133 0.6178980891719745 -0.9649681528662422 Q 0.42681528662420387 -0.7713375796178346 0.08541401273885363 -0.7713375796178346 Q -0.25089171974522295 -0.7713375796178346 -0.44961783439490444 -0.9598726114649683 Q -0.6483439490445859 -1.148407643312102 -0.6789171974522292 -1.586624203821656 L -1.748980891719745 -1.4872611464968157 Q -1.6521656050955413 -0.5828025477707008 -1.1477070063694268 -0.18789808917197437 Q -0.643248407643312 0.2070063694267512 0.11343949044585999 0.2070063694267512 Q 0.9414649681528662 0.2070063694267512 1.4153503184713374 -0.23375796178343933 Q 1.889235668789809 -0.6745222929936308 1.889235668789809 -1.3318471337579618 Q 1.889235668789809 -1.7038216560509558 1.7542038216560507 -2.042675159235669 Q 1.6191719745222928 -2.3789808917197455 1.3236305732484075 -2.748407643312102 Q 1.13 -2.9929936305732485 0.6204458598726115 -3.454140127388535 Q 0.11343949044585999 -3.9127388535031846 -0.024140127388534882 -4.065605095541401 Q -0.15917197452229304 -4.215923566878981 -0.24324840764331213 -4.35859872611465 L 1.889235668789809 -4.35859872611465 L 1.889235668789809 -5.5 Z " stroke="#000000" stroke-width="0.35 px" style="stroke-width:0.35;stroke-miterlimit:4;stroke-dasharray:none;fill:#cccccc;fill-opacity:1.0;fill-rule: evenodd "/>
<title>b'ShapeString001'</title>
</g>
<g id="ShapeString002" transform="translate(7.140000,7.140000) scale(1,-1)">
<path id="ShapeString002_f0000"  d="M 3.780445859872611 -3.146496815286624 L 4.330764331210191 -3.146496815286624 L 5.477261146496815 -5.15031847133758 L 5.477261146496815 -3.146496815286624 L 6.003375796178345 -3.146496815286624 L 6.003375796178345 -6.0 L 5.435222929936306 -6.0 L 4.30656050955414 -4.028025477707006 L 4.30656050955414 -6.0 L 3.780445859872611 -6.0 L 3.780445859872611 -3.146496815286624 Z " stroke="#000000" stroke-width="0.35 px" style="stroke-width:0.35;stroke-miterlimit:4;stroke-dasharray:none;fill:#cccccc;fill-opacity:1.0;fill-rule: evenodd "/>
<title>b'ShapeString002'</title>
</g>
</svg>