<?xml version="1.0"?>
<!DOCTYPE svg PUBLIC "-//W3C//DTD SVG 1.1//EN" "http://www.w3.org/Graphics/SVG/1.1/DTD/svg11.dtd">
<svg width="14.28mm" height="14.28mm" viewBox="0 0 14.28 14.28" xmlns="http://www.w3.org/2000/svg" version="1.1">
<g id="Sketch" transform="translate(7.140000,7.140000) scale(1,-1)">
<path id="Sketch_w0000"  d="M -7.0 -6.000000000000103 L -7.0 5.999999999999897 A 1 1 0 0 0 -6 7L 5.999999999999897 7.0 A 1 1 0 0 0 7 6L 7.0 -5.999999999999897 A 1 1 0 0 0 6 -7L -5.999999999999897 -7.0 A 1 1 0 0 0 -7 -6" stroke="#000000" stroke-width="0.35 px" style="stroke-width:0.35;stroke-miterlimit:4;stroke-dasharray:none;fill:none;fill-rule: evenodd "/>
<title>b'Sketch'</title>
</g>
<g id="Sketch005" transform="translate(7.140000,7.140000) scale(1,-1)">
<path id="Sketch005_w0000"  d="M -2.43 4.28 L -1.43 4.28 L -1.43 3.88 L -2.43 3.88 L -2.43 4.28 " stroke="#000000" stroke-width="0.35 px" style="stroke-width:0.35;stroke-miterlimit:4;stroke-dasharray:none;fill:none;fill-rule: evenodd "/>
<title>b'Sketch005'</title>
</g>
<g id="ShapeString" transform="translate(7.140000,7.140000) scale(1,-1)">
<path id="ShapeString_f0000"  d="M -3.719076433121019 5.014331210191083 L -4.550923566878981 5.014331210191083 L -4.550923566878981 5.5035031847133755 L -2.324171974522293 5.5035031847133755 L -2.324171974522293 5.014331210191083 L -3.1534713375796177 5.014331210191083 L -3.1534713375796177 2.65 L -3.719076433121019 2.65 L -3.719076433121019 5.014331210191083 Z " stroke="#000000" stroke-width="0.35 px" style="stroke-width:0.35;stroke-miterlimit:4;stroke-dasharray:none;fill:#cccccc;fill-opacity:1.0;fill-rule: evenodd "/>
<path id="ShapeString_f0001"  d="M -0.9432802547770698 5.5035031847133755 L -0.3776751592356691 5.5035031847133755 L -0.3776751592356691 2.65 L -0.9432802547770698 2.65 L -0.9432802547770698 5.5035031847133755 Z " stroke="#000000" stroke-width="0.35 px" style="stroke-width:0.35;stroke-miterlimit:4;stroke-dasharray:none;fill:#cccccc;fill-opacity:1.0;fill-rule: evenodd "/>
<path id="ShapeString_f0002"  d="M 0.14971337579617838 5.5035031847133755 L 0.7153184713375795 5.5035031847133755 L 0.7153184713375795 3.139171974522293 L 2.1216878980891725 3.139171974522293 L 2.1216878980891725 2.65 L 0.14971337579617838 2.65 L 0.14971337579617838 5.5035031847133755 Z " stroke="#000000" stroke-width="0.35 px" style="stroke-width:0.35;stroke-miterlimit:4;stroke-dasharray:none;fill:#cccccc;fill-opacity:1.0;fill-rule: evenodd "/>
<path id="ShapeString_f0003"  d="M 2.905127388535031 3.546815286624204 Q 2.954808917197452 3.2945859872611463 3.10640127388535 3.1761146496815287 Q 3.2592675159235664 3.0576433121019106 3.516592356687898 3.0576433121019106 Q 3.790477707006369 3.0576433121019106 3.928057324840763 3.168471337579618 Q 4.0669108280254775 3.2792993630573246 4.0669108280254775 3.4270700636942673 Q 4.0669108280254775 3.521337579617834 4.0083121019108265 3.5875796178343946 Q 3.950987261146496 3.655095541401274 3.80576433121019 3.7047770700636944 Q 3.7064012738853496 3.742993630573248 3.352261146496815 3.8423566878980893 Q 2.8974840764331207 3.963375796178344 2.714044585987261 4.140445859872611 Q 2.4567197452229292 4.388853503184713 2.4567197452229292 4.745541401273885 Q 2.4567197452229292 4.97484076433121 2.5777388535031847 5.1748407643312095 Q 2.698757961783439 5.376114649681528 2.9267834394904453 5.480573248407643 Q 3.15608280254777 5.585031847133758 3.4783757961783426 5.585031847133758 Q 4.005764331210191 5.585031847133758 4.272006369426752 5.340445859872611 Q 4.539522292993629 5.095859872611465 4.552261146496814 4.688216560509554 L 3.986656050955414 4.688216560509554 Q 3.950987261146496 4.906050955414012 3.83124203821656 5.000318471337579 Q 3.7114968152866243 5.095859872611465 3.4732802547770696 5.095859872611465 Q 3.2261464968152858 5.095859872611465 3.087292993630573 4.99140127388535 Q 2.996847133757961 4.923885350318471 2.996847133757961 4.810509554140127 Q 2.996847133757961 4.70859872611465 3.0809235668789805 4.634713375796178 Q 3.187929936305732 4.541719745222929 3.600668789808916 4.4308917197452224 Q 4.013407643312101 4.321337579617834 4.210859872611465 4.213057324840764 Q 4.409585987261146 4.1060509554140125 4.520414012738852 3.9200636942675158 Q 4.632515923566878 3.734076433121019 4.632515923566878 3.4601910828025475 Q 4.632515923566878 3.213057324840764 4.498757961783438 2.995222929936306 Q 4.365 2.7786624203821657 4.120414012738854 2.6729299363057324 Q 3.8758280254777073 2.5684713375796178 3.5114968152866233 2.5684713375796178 Q 2.9802866242038215 2.5684713375796178 2.694936305732484 2.7977707006369426 Q 2.4108598726114643 3.0270700636942673 2.3548089171974516 3.4652866242038214 L 2.905127388535031 3.546815286624204 Z " stroke="#000000" stroke-width="0.35 px" style="stroke-width:0.35;stroke-miterlimit:4;stroke-dasharray:none;fill:#cccccc;fill-opacity:1.0;fill-rule: evenodd "/>
<title>b'ShapeString'</title>
</g>
<g id="ShapeString001" transform="translate(7.140000,7.140000) scale(1,-1)">
<path id="ShapeString001_f0000"  d="M -0.5323566878980892 -5.0 L -0.5323566878980892 -0.9210191082802552 Q -1.120891719745223 -1.4738853503184717 -1.920891719745223 -1.7388535031847137 L -1.920891719745223 -0.7605095541401274 Q -1.5005095541401274 -0.6178343949044587 -1.0087898089171976 -0.22038216560509571 Q -0.5145222929936306 0.17707006369426725 -0.3310828025477708 0.7070063694267512 L 0.540254777070063 0.7070063694267512 L 0.540254777070063 -5.0 L -0.5323566878980892 -5.0 Z " stroke="#000000" stroke-width="0.35 px" style="stroke-width:0.35;stroke-miterlimit:4;stroke-dasharray:none;fill:#cccccc;fill-opacity:1.0;fill-rule: evenodd "/>
<title>b'ShapeString001'</title>
</g>
</svg>