<?xml version="1.0"?>
<!DOCTYPE svg PUBLIC "-//W3C//DTD SVG 1.1//EN" "http://www.w3.org/Graphics/SVG/1.1/DTD/svg11.dtd">
<svg width="14.28mm" height="14.28mm" viewBox="0 0 14.28 14.28" xmlns="http://www.w3.org/2000/svg" version="1.1">
<g id="ShapeString" transform="translate(7.140000,7.140000) scale(1,-1)">
<path id="ShapeString_f0000"  d="M -4.019363057324841 1.4235031847133757 L -3.45375796178344 1.4235031847133757 L -3.45375796178344 -0.9408280254777069 L -2.0473885350318475 -0.9408280254777069 L -2.0473885350318475 -1.43 L -4.019363057324841 -1.43 L -4.019363057324841 1.4235031847133757 Z " stroke="#000000" stroke-width="0.35 px" style="stroke-width:0.35;stroke-miterlimit:4;stroke-dasharray:none;fill:#cccccc;fill-opacity:1.0;fill-rule: evenodd "/>
<path id="ShapeString_f0001"  d="M -1.6881528662420386 1.4235031847133757 L -1.1225477707006375 1.4235031847133757 L -1.1225477707006375 -1.43 L -1.6881528662420386 -1.43 L -1.6881528662420386 1.4235031847133757 Z " stroke="#000000" stroke-width="0.35 px" style="stroke-width:0.35;stroke-miterlimit:4;stroke-dasharray:none;fill:#cccccc;fill-opacity:1.0;fill-rule: evenodd "/>
<path id="ShapeString_f0002"  d="M -0.20407643312101964 -0.5331847133757962 Q -0.1543949044585995 -0.7854140127388535 -0.0028025477707016577 -0.9038853503184713 Q 0.15006369426751576 -1.0223566878980892 0.40738853503184647 -1.0223566878980892 Q 0.6812738853503175 -1.0223566878980892 0.8188535031847124 -0.9115286624203821 Q 0.957707006369426 -0.8007006369426751 0.957707006369426 -0.6529299363057325 Q 0.957707006369426 -0.5586624203821656 0.8991082802547758 -0.49242038216560513 Q 0.8417834394904453 -0.42490445859872605 0.6965605095541392 -0.3752229299363057 Q 0.5971974522292989 -0.33700636942675155 0.24305732484076348 -0.2376433121019108 Q -0.2117197452229309 -0.11662420382165606 -0.3951592356687903 0.06044585987261142 Q -0.6524840764331215 0.3088535031847133 -0.6524840764331215 0.6655414012738852 Q -0.6524840764331215 0.89484076433121 -0.5314649681528669 1.0948407643312101 Q -0.41044585987261195 1.2961146496815286 -0.1824203821656054 1.4005732484076432 Q 0.04687898089171938 1.5050318471337578 0.3691719745222919 1.5050318471337578 Q 0.8965605095541394 1.5050318471337578 1.1628025477707 1.2604458598726114 Q 1.4303184713375785 1.015859872611465 1.4430573248407637 0.6082165605095542 L 0.8774522292993625 0.6082165605095542 Q 0.8417834394904453 0.8260509554140125 0.7220382165605086 0.9203184713375794 Q 0.6022929936305728 1.015859872611465 0.3640764331210189 1.015859872611465 Q 0.11694267515923507 1.015859872611465 -0.0219108280254785 0.9114012738853503 Q -0.11235668789808972 0.8438853503184711 -0.11235668789808972 0.7305095541401274 Q -0.11235668789808972 0.6285987261146497 -0.02828025477707108 0.5547133757961784 Q 0.07872611464968049 0.4617197452229298 0.4914649681528651 0.3508917197452228 Q 0.9042038216560506 0.2413375796178343 1.1016560509554134 0.13305732484076427 Q 1.300382165605095 0.0260509554140127 1.4112101910828017 -0.15993630573248407 Q 1.523312101910827 -0.34592356687898085 1.523312101910827 -0.6198089171974522 Q 1.523312101910827 -0.8669426751592356 1.3895541401273874 -1.0847770700636943 Q 1.2557961783439477 -1.3013375796178344 1.0112101910828013 -1.4070700636942675 Q 0.7666242038216549 -1.511528662420382 0.4022929936305726 -1.511528662420382 Q -0.12891719745223007 -1.511528662420382 -0.4142675159235676 -1.2822292993630573 Q -0.6983439490445864 -1.0529299363057325 -0.7543949044585991 -0.6147133757961784 L -0.20407643312101964 -0.5331847133757962 Z " stroke="#000000" stroke-width="0.35 px" style="stroke-width:0.35;stroke-miterlimit:4;stroke-dasharray:none;fill:#cccccc;fill-opacity:1.0;fill-rule: evenodd "/>
<path id="ShapeString_f0003"  d="M 2.62904458598726 0.9343312101910828 L 1.797197452229299 0.9343312101910828 L 1.797197452229299 1.4235031847133757 L 4.0239490445859865 1.4235031847133757 L 4.0239490445859865 0.9343312101910828 L 3.194649681528661 0.9343312101910828 L 3.194649681528661 -1.43 L 2.62904458598726 -1.43 L 2.62904458598726 0.9343312101910828 Z " stroke="#000000" stroke-width="0.35 px" style="stroke-width:0.35;stroke-miterlimit:4;stroke-dasharray:none;fill:#cccccc;fill-opacity:1.0;fill-rule: evenodd "/>
<title>b'ShapeString'</title>
</g>
<g id="Sketch" transform="translate(7.140000,7.140000) scale(1,-1)">
<circle cx="0.0" cy="0.0" r="7.0" stroke="#000000" stroke-width="0.35 px" style="stroke-width:0.35;stroke-miterlimit:4;stroke-dasharray:none;fill:none"/>
<title>b'Sketch'</title>
</g>
</svg>