<?xml version="1.0"?>
<!DOCTYPE svg PUBLIC "-//W3C//DTD SVG 1.1//EN" "http://www.w3.org/Graphics/SVG/1.1/DTD/svg11.dtd">
<svg width="14.28mm" height="14.28mm" viewBox="0 0 14.28 14.28" xmlns="http://www.w3.org/2000/svg" version="1.1">
<g id="Sketch" transform="translate(7.140000,7.140000) scale(1,-1)">
<path id="Sketch_w0000"  d="M -7.0 -6.000000000000103 L -7.0 5.999999999999897 A 1 1 0 0 0 -6 7L 5.999999999999897 7.0 A 1 1 0 0 0 7 6L 7.0 -5.999999999999897 A 1 1 0 0 0 6 -7L -5.999999999999897 -7.0 A 1 1 0 0 0 -7 -6" stroke="#000000" stroke-width="0.35 px" style="stroke-width:0.35;stroke-miterlimit:4;stroke-dasharray:none;fill:none;fill-rule: evenodd "/>
<title>b'Sketch'</title>
</g>
<g id="ShapeString001" transform="translate(7.140000,7.140000) scale(1,-1)">
<path id="ShapeString001_f0000"  d="M -3.8483757961783436 1.4235031847133761 L -2.6572929936305725 1.4235031847133761 Q -2.2088853503184716 1.4235031847133757 -2.0050636942675157 1.348343949044586 Q -1.8012420382165604 1.273184713375796 -1.6789490445859871 1.0808280254777067 Q -1.556656050955414 0.8884713375796178 -1.556656050955414 0.6413375796178344 Q -1.556656050955414 0.32796178343949034 -1.7426433121019107 0.1228662420382165 Q -1.9273566878980892 -0.08095541401273887 -2.296783439490446 -0.13445859872611465 Q -2.113343949044586 -0.2465605095541401 -1.9935987261146497 -0.38159235668789804 Q -1.8738535031847134 -0.5153503184713376 -1.6713057324840763 -0.8567515923566879 L -1.3299044585987256 -1.43 L -2.006337579617835 -1.43 L -2.415254777070064 -0.8070700636942679 Q -2.633089171974522 -0.45675159235668794 -2.713343949044586 -0.3663057324840764 Q -2.7935987261146495 -0.27458598726114647 -2.8840445859872608 -0.24146496815286622 Q -2.973216560509554 -0.2070700636942675 -3.16812101910828 -0.2070700636942675 L -3.282770700636943 -0.20707006369426795 L -3.282770700636943 -1.43 L -3.8483757961783436 -1.43 L -3.8483757961783436 1.4235031847133761 Z M -2.863662420382166 0.28210191082802516 Q -2.457292993630573 0.2821019108280254 -2.356656050955414 0.31394904458598716 Q -2.2547452229299365 0.34579617834394893 -2.197420382165605 0.4222292993630572 Q -2.1400955414012737 0.49993630573248393 -2.1400955414012737 0.615859872611465 Q -2.1400955414012737 0.7445222929936304 -2.2152547770700637 0.8247770700636943 Q -2.2904140127388537 0.9050318471337577 -2.4279936305732486 0.9254140127388533 Q -2.4967834394904456 0.9343312101910828 -2.840732484076433 0.9343312101910828 L -3.282770700636943 0.9343312101910832 L -3.282770700636943 0.28210191082802516 L -2.863662420382166 0.28210191082802516 Z " stroke="#000000" stroke-width="0.35 px" style="stroke-width:0.35;stroke-miterlimit:4;stroke-dasharray:none;fill:#cccccc;fill-opacity:1.0;fill-rule: evenodd "/>
<path id="ShapeString001_f0001"  d="M 1.3439808917197453 -0.533184713375796 Q 1.217866242038216 -0.9879617834394905 0.9248726114649681 -1.2096178343949044 Q 0.6318789808917193 -1.43 0.18092356687898103 -1.43 Q -0.37703821656050973 -1.43 -0.7362738853503186 -1.0440127388535032 Q -1.0955095541401274 -0.6580254777070064 -1.0955095541401274 0.012038216560509518 Q -1.0955095541401274 0.7203184713375796 -0.7349999999999999 1.1126751592356687 Q -0.3732165605095541 1.5050318471337578 0.21531847133757953 1.5050318471337578 Q 0.7286942675159231 1.5050318471337578 1.0497133757961787 1.1725477707006366 Q 1.240796178343949 0.9763694267515921 1.336337579617835 0.6082165605095542 L 0.7771019108280255 0.526687898089172 Q 0.7274203821656045 0.7534394904458599 0.5694585987261149 0.8846496815286622 Q 0.41149681528662363 1.015859872611465 0.18601910828025492 1.015859872611465 Q -0.12480891719745202 1.015859872611465 -0.3197133757961783 0.7891082802547771 Q -0.5133439490445859 0.5623566878980892 -0.5133439490445859 0.055350318471337534 Q -0.5133439490445859 -0.48350318471337583 -0.32226114649681525 -0.7128025477707006 Q -0.1311783439490446 -0.9408280254777069 0.17455414012738846 -0.9408280254777069 Q 0.40003184713375806 -0.9408280254777069 0.5618152866242037 -0.8032484076433121 Q 0.724872611464968 -0.6656687898089172 0.7962101910828023 -0.3701273885350318 L 1.3439808917197453 -0.533184713375796 Z " stroke="#000000" stroke-width="0.35 px" style="stroke-width:0.35;stroke-miterlimit:4;stroke-dasharray:none;fill:#cccccc;fill-opacity:1.0;fill-rule: evenodd "/>
<path id="ShapeString001_f0002"  d="M 1.8726433121019106 1.4235031847133761 L 2.4382484076433126 1.4235031847133761 L 2.4382484076433126 -0.9408280254777069 L 3.844617834394904 -0.9408280254777069 L 3.844617834394904 -1.43 L 1.8726433121019106 -1.43 L 1.8726433121019106 1.4235031847133761 Z " stroke="#000000" stroke-width="0.35 px" style="stroke-width:0.35;stroke-miterlimit:4;stroke-dasharray:none;fill:#cccccc;fill-opacity:1.0;fill-rule: evenodd "/>
<title>b'ShapeString001'</title>
</g>
</svg>