<?xml version="1.0"?>
<!DOCTYPE svg PUBLIC "-//W3C//DTD SVG 1.1//EN" "http://www.w3.org/Graphics/SVG/1.1/DTD/svg11.dtd">
<svg width="14.28mm" height="14.28mm" viewBox="0 0 14.28 14.28" xmlns="http://www.w3.org/2000/svg" version="1.1">
<g id="Sketch" transform="translate(7.140000,7.140000) scale(1,-1)">
<path id="Sketch_w0000"  d="M -7.0 -6.000000000000103 L -7.0 5.999999999999897 A 1 1 0 0 0 -6 7L 5.999999999999897 7.0 A 1 1 0 0 0 7 6L 7.0 -5.999999999999897 A 1 1 0 0 0 6 -7L -5.999999999999897 -7.0 A 1 1 0 0 0 -7 -6" stroke="#000000" stroke-width="0.35 px" style="stroke-width:0.35;stroke-miterlimit:4;stroke-dasharray:none;fill:none;fill-rule: evenodd "/>
<title>b'Sketch'</title>
</g>
<g id="Sketch005" transform="translate(7.140000,7.140000) scale(1,-1)">
<path id="Sketch005_w0000"  d="M -3.1 4.28 L -2.4 4.28 L -2.4 3.88 L -3.1 3.88 L -3.1 4.28 " stroke="#000000" stroke-width="0.35 px" style="stroke-width:0.35;stroke-miterlimit:4;stroke-dasharray:none;fill:none;fill-rule: evenodd "/>
<title>b'Sketch005'</title>
</g>
<g id="ShapeString" transform="translate(7.140000,7.140000) scale(1,-1)">
<path id="ShapeString_f0000"  d="M -3.6688216560509552 2.65 L -3.913407643312102 3.3022292993630566 L -5.033152866242038 3.3022292993630566 L -5.265000000000001 2.65 L -5.865 2.65 L -4.77328025477707 5.5035031847133755 L -4.175828025477707 5.5035031847133755 L -3.0535350318471344 2.65 L -3.6688216560509552 2.65 Z M -4.48156050955414 5.014331210191083 L -4.859904458598726 3.79140127388535 L -4.095573248407643 3.79140127388535 L -4.48156050955414 5.014331210191083 Z " stroke="#000000" stroke-width="0.35 px" style="stroke-width:0.35;stroke-miterlimit:4;stroke-dasharray:none;fill:#cccccc;fill-opacity:1.0;fill-rule: evenodd "/>
<path id="ShapeString_f0001"  d="M 0.5107961783439485 3.546815286624204 Q 0.3846815286624192 3.0920382165605096 0.09168789808917133 2.8703821656050956 Q -0.20130573248407746 2.65 -0.6522611464968158 2.65 Q -1.2102229299363065 2.65 -1.569458598726115 3.035987261146497 Q -1.9286942675159242 3.4219745222929934 -1.9286942675159242 4.09203821656051 Q -1.9286942675159242 4.8003184713375795 -1.5681847133757971 5.192675159235669 Q -1.2064012738853513 5.585031847133758 -0.6178662420382173 5.585031847133758 Q -0.10449044585987366 5.585031847133758 0.21652866242038193 5.2525477707006365 Q 0.40761146496815215 5.056369426751592 0.5031528662420381 4.688216560509554 L -0.056082802547771315 4.606687898089172 Q -0.10576433121019235 4.83343949044586 -0.2637261146496819 4.9646496815286625 Q -0.4216878980891732 5.095859872611465 -0.6471656050955419 5.095859872611465 Q -0.9579936305732488 5.095859872611465 -1.1528980891719751 4.8691082802547765 Q -1.3465286624203827 4.642356687898089 -1.3465286624203827 4.135350318471337 Q -1.3465286624203827 3.596496815286624 -1.1554458598726125 3.3671974522292993 Q -0.9643630573248414 3.139171974522293 -0.6586305732484083 3.139171974522293 Q -0.43315286624203875 3.139171974522293 -0.27136942675159315 3.2767515923566877 Q -0.10831210191082885 3.4143312101910825 -0.03697452229299447 3.7098726114649683 L 0.5107961783439485 3.546815286624204 Z " stroke="#000000" stroke-width="0.35 px" style="stroke-width:0.35;stroke-miterlimit:4;stroke-dasharray:none;fill:#cccccc;fill-opacity:1.0;fill-rule: evenodd "/>
<path id="ShapeString_f0002"  d="M 2.9349999999999987 2.65 L 2.6904140127388523 3.3022292993630566 L 1.5706687898089164 3.3022292993630566 L 1.3388216560509534 2.65 L 0.7388216560509546 2.65 L 1.8305414012738845 5.5035031847133755 L 2.4279936305732477 5.5035031847133755 L 3.550286624203821 2.65 L 2.9349999999999987 2.65 Z M 2.1222611464968146 5.014331210191083 L 1.7439171974522285 3.79140127388535 L 2.508248407643311 3.79140127388535 L 2.1222611464968146 5.014331210191083 Z " stroke="#000000" stroke-width="0.35 px" style="stroke-width:0.35;stroke-miterlimit:4;stroke-dasharray:none;fill:#cccccc;fill-opacity:1.0;fill-rule: evenodd "/>
<path id="ShapeString_f0003"  d="M 3.8929617834394907 5.5035031847133755 L 4.458566878980891 5.5035031847133755 L 4.458566878980891 3.139171974522293 L 5.864936305732483 3.139171974522293 L 5.864936305732483 2.65 L 3.8929617834394907 2.65 L 3.8929617834394907 5.5035031847133755 Z " stroke="#000000" stroke-width="0.35 px" style="stroke-width:0.35;stroke-miterlimit:4;stroke-dasharray:none;fill:#cccccc;fill-opacity:1.0;fill-rule: evenodd "/>
<title>b'ShapeString'</title>
</g>
<g id="ShapeString001" transform="translate(7.140000,7.140000) scale(1,-1)">
<path id="ShapeString001_f0000"  d="M -0.723821656050956 -3.869426751592357 Q -0.6856050955414015 -4.2006369426751595 -0.5250955414012741 -4.361146496815286 Q -0.36458598726114677 -4.521656050955414 -0.10216560509554151 -4.521656050955414 Q 0.2315923566878979 -4.521656050955414 0.46343949044585964 -4.205732484076433 Q 0.6978343949044583 -3.8898089171974526 0.7615286624203819 -2.9114649681528664 Q 0.35643312101910807 -3.3802547770700637 -0.24993630573248438 -3.3802547770700637 Q -0.9123566878980893 -3.3802547770700637 -1.3913375796178347 -2.891082802547771 Q -1.8703184713375798 -2.399363057324841 -1.8703184713375798 -1.6146496815286628 Q -1.8703184713375798 -0.7942675159235675 -1.3658598726114652 -0.2949044585987268 Q -0.8588535031847135 0.2070063694267512 -0.07414012738853515 0.2070063694267512 Q 0.7768152866242035 0.2070063694267512 1.3220382165605091 -0.45031847133757985 Q 1.8698089171974521 -1.107643312101911 1.8698089171974521 -2.613375796178344 Q 1.8698089171974521 -4.144585987261147 1.2991082802547766 -4.822292993630573 Q 0.7309554140127386 -5.5 -0.18114649681528694 -5.5 Q -0.838471337579618 -5.5 -1.243566878980892 -5.122929936305733 Q -1.6486624203821658 -4.743312101910828 -1.7633121019108282 -3.989171974522293 L -0.723821656050956 -3.869426751592357 Z M 0.4277707006369429 -0.9980891719745228 Q 0.19082802547770683 -0.7713375796178346 -0.12254777070063705 -0.7713375796178346 Q -0.4206369426751595 -0.7713375796178346 -0.619363057324841 -0.9573248407643318 Q -0.8155414012738855 -1.143312101910828 -0.8155414012738855 -1.5687898089171974 Q -0.8155414012738855 -1.999363057324841 -0.6015286624203824 -2.2006369426751595 Q -0.38751592356687925 -2.401910828025478 -0.06649681528662432 -2.401910828025478 Q 0.24433121019108262 -2.401910828025478 0.4557961783439488 -2.2082802547770704 Q 0.667261146496815 -2.0146496815286628 0.667261146496815 -1.6375796178343953 Q 0.667261146496815 -1.2248407643312103 0.42777070063694245 -0.9980891719745228 Z " stroke="#000000" stroke-width="0.35 px" style="stroke-width:0.35;stroke-miterlimit:4;stroke-dasharray:none;fill:#cccccc;fill-opacity:1.0;fill-rule: evenodd "/>
<title>b'ShapeString001'</title>
</g>
</svg>