<?xml version="1.0" encoding="UTF-8"?>
<svg xmlns="http://www.w3.org/2000/svg" width="127.000mm" height="109.100mm" viewBox="51.070995 -154.550003 126.999985 109.099998">
    <circle transform="matrix(1,0,0,-1,98.570999,-61.549999)" style="stroke:#000000;stroke-width:0.05mm;fill:none" r="6.2" cx="0" cy="0"/>
    <path transform="matrix(1,0,0,-1,49.800999,-155.820007)" style="stroke:#000000;stroke-width:0.05mm;fill:none" d="M46.269997,-57.77C46.269997,-58.322285,45.822281,-58.77,45.269997,-58.77C45.822281,-58.77,46.269997,-58.322285,46.269997,-57.77z"/>
    <path transform="matrix(1,0,0,-1,49.800999,-155.820007)" style="stroke:#000000;stroke-width:0.05mm;fill:none" d="M45.269997,-43.77C45.822281,-43.77,46.269997,-44.217716,46.269997,-44.77C46.269997,-44.217716,45.822281,-43.77,45.269997,-43.77z"/>
    <circle transform="matrix(1,0,0,-1,161.371002,-71.550003)" style="stroke:#000000;stroke-width:0.05mm;fill:none" r="6.2" cx="0" cy="0"/>
    <path transform="matrix(1,0,0,-1,49.800999,-155.820007)" style="stroke:#000000;stroke-width:0.05mm;fill:none" d="M45.269997,-23.77L32.269997,-23.77L45.269997,-23.77z"/>
    <path transform="matrix(1,0,0,-1,49.800999,-155.820007)" style="stroke:#000000;stroke-width:0.05mm;fill:none" d="M126.269997,-99.369995C125.775543,-99.600571,125.342209,-99.957497,124.970001,-100.440788C125.342209,-99.957497,125.775543,-99.600571,126.269997,-99.369995z"/>
    <path transform="matrix(1,0,0,-1,49.800999,-155.820007)" style="stroke:#000000;stroke-width:0.05mm;fill:none" d="M51.269997,-44.77C51.269997,-44.217716,51.717712,-43.77,52.269997,-43.77C51.717712,-43.77,51.269997,-44.217716,51.269997,-44.77z"/>
    <path transform="matrix(1,0,0,-1,49.800999,-155.820007)" style="stroke:#000000;stroke-width:0.05mm;fill:none" d="M123.269997,-108.370003L123.259338,-108.370003L123.269997,-108.370003z"/>
    <path transform="matrix(1,0,0,-1,49.800999,-155.820007)" style="stroke:#000000;stroke-width:0.05mm;fill:none" d="M32.269997,-78.770004C31.717712,-78.770004,31.269997,-78.322281,31.269997,-77.770004C31.269997,-78.322281,31.717712,-78.770004,32.269997,-78.770004z"/>
    <path transform="matrix(1,0,0,-1,49.800999,-155.820007)" style="stroke:#000000;stroke-width:0.05mm;fill:none" d="M91.269997,-57.77C91.269997,-58.322285,90.822281,-58.77,90.269997,-58.77C90.822281,-58.77,91.269997,-58.322285,91.269997,-57.77z"/>
    <path transform="matrix(1,0,0,-1,49.800999,-155.820007)" style="stroke:#000000;stroke-width:0.05mm;fill:none" d="M11.269997,-24.77L11.269997,-37.77L11.269997,-24.77z"/>
    <path transform="matrix(1,0,0,-1,49.800999,-155.820007)" style="stroke:#000000;stroke-width:0.05mm;fill:none" d="M71.269997,-64.770004L71.269997,-77.770004L71.269997,-64.770004z"/>
    <path transform="matrix(1,0,0,-1,49.800999,-155.820007)" style="stroke:#000000;stroke-width:0.05mm;fill:none" d="M3.269997,-20.27L3.269997,-12.27L3.269997,-20.27z"/>
    <path transform="matrix(1,0,0,-1,49.800999,-155.820007)" style="stroke:#000000;stroke-width:0.05mm;fill:none" d="M6.113995,-105.225853C6.053871,-104.682137,5.976372,-104.174362,5.881493,-103.702499C6.152733,-103.038849,6.855682,-102.659927,7.559174,-102.798141C8.262661,-102.936363,8.769997,-103.553062,8.769997,-104.269997C8.769997,-104.902634,8.373138,-105.467216,7.777916,-105.681427C7.182697,-105.89563,6.517075,-105.713387,6.113998,-105.225899L6.113995,-105.225853z"/>
    <path transform="matrix(1,0,0,-1,49.800999,-155.820007)" style="stroke:#000000;stroke-width:0.05mm;fill:none" d="M25.269997,-43.77C25.822281,-43.77,26.269997,-44.217716,26.269997,-44.77C26.269997,-44.217716,25.822281,-43.77,25.269997,-43.77z"/>
    <path transform="matrix(1,0,0,-1,49.800999,-155.820007)" style="stroke:#000000;stroke-width:0.05mm;fill:none" d="M24.019997,-103.519997C24.019997,-104.072281,23.572281,-104.519997,23.019997,-104.519997C23.572281,-104.519997,24.019997,-104.072281,24.019997,-103.519997z"/>
    <circle transform="matrix(1,0,0,-1,64.570999,-144.550003)" style="stroke:#000000;stroke-width:0.05mm;fill:none" r="7.5" cx="0" cy="0"/>
    <path transform="matrix(1,0,0,-1,49.800999,-155.820007)" style="stroke:#000000;stroke-width:0.05mm;fill:none" d="M90.269997,-43.77C90.822281,-43.77,91.269997,-44.217716,91.269997,-44.77C91.269997,-44.217716,90.822281,-43.77,90.269997,-43.77z"/>
    <path transform="matrix(1,0,0,-1,49.800999,-155.820007)" style="stroke:#000000;stroke-width:0.05mm;fill:none" d="M66.269997,-57.77C66.269997,-58.322285,65.822281,-58.77,65.269997,-58.77C65.822281,-58.77,66.269997,-58.322285,66.269997,-57.77z"/>
    <path transform="matrix(1,0,0,-1,49.800999,-155.820007)" style="stroke:#000000;stroke-width:0.05mm;fill:none" d="M13.519997,-85.020004C13.519997,-84.467712,13.967712,-84.020004,14.519997,-84.020004C13.967712,-84.020004,13.519997,-84.467712,13.519997,-85.020004z"/>
    <path transform="matrix(1,0,0,-1,49.800999,-155.820007)" style="stroke:#000000;stroke-width:0.05mm;fill:none" d="M31.269997,-24.77C31.269997,-24.217716,31.717712,-23.77,32.269997,-23.77C31.717712,-23.77,31.269997,-24.217716,31.269997,-24.77z"/>
    <path transform="matrix(1,0,0,-1,49.800999,-155.820007)" style="stroke:#000000;stroke-width:0.05mm;fill:none" d="M12.269997,-78.770004L25.269997,-78.770004L12.269997,-78.770004z"/>
    <path transform="matrix(1,0,0,-1,49.800999,-155.820007)" style="stroke:#000000;stroke-width:0.05mm;fill:none" d="M32.269997,-58.77L45.269997,-58.77L32.269997,-58.77z"/>
    <path transform="matrix(1,0,0,-1,49.800999,-155.820007)" style="stroke:#000000;stroke-width:0.05mm;fill:none" d="M31.269997,-64.770004C31.269997,-64.217712,31.717712,-63.77,32.269997,-63.77C31.717712,-63.77,31.269997,-64.217712,31.269997,-64.770004z"/>
    <path transform="matrix(1,0,0,-1,49.800999,-155.820007)" style="stroke:#000000;stroke-width:0.05mm;fill:none" d="M45.269997,-23.77C45.822281,-23.77,46.269997,-24.217716,46.269997,-24.77C46.269997,-24.217716,45.822281,-23.77,45.269997,-23.77z"/>
    <path transform="matrix(1,0,0,-1,49.800999,-155.820007)" style="stroke:#000000;stroke-width:0.05mm;fill:none" d="M126.269997,-28.27L126.269997,-99.369995L126.269997,-28.27z"/>
    <path transform="matrix(1,0,0,-1,49.800999,-155.820007)" style="stroke:#000000;stroke-width:0.05mm;fill:none" d="M90.269997,-23.77C90.822281,-23.77,91.269997,-24.217716,91.269997,-24.77C91.269997,-24.217716,90.822281,-23.77,90.269997,-23.77z"/>
    <path transform="matrix(1,0,0,-1,49.800999,-155.820007)" style="stroke:#000000;stroke-width:0.05mm;fill:none" d="M125.269997,-1.27C125.269997,-6.337387,126.269997,-9.337387,128.269989,-10.27C126.269997,-9.337387,125.269997,-6.337387,125.269997,-1.27z"/>
    <path transform="matrix(1,0,0,-1,49.800999,-155.820007)" style="stroke:#000000;stroke-width:0.05mm;fill:none" d="M52.269997,-58.77C51.717712,-58.77,51.269997,-58.322285,51.269997,-57.77C51.269997,-58.322285,51.717712,-58.77,52.269997,-58.77z"/>
    <path transform="matrix(1,0,0,-1,49.800999,-155.820007)" style="stroke:#000000;stroke-width:0.05mm;fill:none" d="M14.519997,-104.519997C13.967712,-104.519997,13.519997,-104.072281,13.519997,-103.519997C13.519997,-104.072281,13.967712,-104.519997,14.519997,-104.519997z"/>
    <path transform="matrix(1,0,0,-1,49.800999,-155.820007)" style="stroke:#000000;stroke-width:0.05mm;fill:none" d="M72.269997,-78.770004C71.717712,-78.770004,71.269997,-78.322281,71.269997,-77.770004C71.269997,-78.322281,71.717712,-78.770004,72.269997,-78.770004z"/>
    <path transform="matrix(1,0,0,-1,49.800999,-155.820007)" style="stroke:#000000;stroke-width:0.05mm;fill:none" d="M6.269997,-3.27C6.269997,-8.337387,5.269997,-11.337387,3.269997,-12.27C5.269997,-11.337387,6.269997,-8.337387,6.269997,-3.27z"/>
    <path transform="matrix(1,0,0,-1,49.800999,-155.820007)" style="stroke:#000000;stroke-width:0.05mm;fill:none" d="M45.269997,-63.77L32.269997,-63.77L45.269997,-63.77z"/>
    <path transform="matrix(1,0,0,-1,49.800999,-155.820007)" style="stroke:#000000;stroke-width:0.05mm;fill:none" d="M31.269997,-44.77L31.269997,-57.77L31.269997,-44.77z"/>
    <path transform="matrix(1,0,0,-1,49.800999,-155.820007)" style="stroke:#000000;stroke-width:0.05mm;fill:none" d="M125.269997,-110.370003L4.269997,-110.370003L125.269997,-110.370003z"/>
    <path transform="matrix(1,0,0,-1,49.800999,-155.820007)" style="stroke:#000000;stroke-width:0.05mm;fill:none" d="M123.269997,-108.340683L123.259338,-108.370003L123.269997,-108.370003C123.269997,-108.360207,123.269997,-108.350449,123.269997,-108.340683z"/>
    <path transform="matrix(1,0,0,-1,49.800999,-155.820007)" style="stroke:#000000;stroke-width:0.05mm;fill:none" d="M52.269997,-38.77L65.269997,-38.77L52.269997,-38.77z"/>
    <path transform="matrix(1,0,0,-1,49.800999,-155.820007)" style="stroke:#000000;stroke-width:0.05mm;fill:none" d="M65.269997,-23.77L52.269997,-23.77L65.269997,-23.77z"/>
    <path transform="matrix(1,0,0,-1,49.800999,-155.820007)" style="stroke:#000000;stroke-width:0.05mm;fill:none" d="M1.269997,-10.27C3.269997,-9.337387,4.269997,-6.337387,4.269997,-1.27C4.269997,-6.337387,3.269997,-9.337387,1.269997,-10.27z"/>
    <path transform="matrix(1,0,0,-1,49.800999,-155.820007)" style="stroke:#000000;stroke-width:0.05mm;fill:none" d="M77.269997,-58.77C76.717712,-58.77,76.269997,-58.322285,76.269997,-57.77C76.269997,-58.322285,76.717712,-58.77,77.269997,-58.77z"/>
    <path transform="matrix(1,0,0,-1,49.800999,-155.820007)" style="stroke:#000000;stroke-width:0.05mm;fill:none" d="M51.269997,-24.77C51.269997,-24.217716,51.717712,-23.77,52.269997,-23.77C51.717712,-23.77,51.269997,-24.217716,51.269997,-24.77z"/>
    <path transform="matrix(1,0,0,-1,49.800999,-155.820007)" style="stroke:#000000;stroke-width:0.05mm;fill:none" d="M52.269997,-78.770004L65.269997,-78.770004L52.269997,-78.770004z"/>
    <path transform="matrix(1,0,0,-1,49.800999,-155.820007)" style="stroke:#000000;stroke-width:0.05mm;fill:none" d="M119.019997,-108.370003L10.519997,-108.370003L119.019997,-108.370003z"/>
    <circle transform="matrix(1,0,0,-1,84.570999,-144.550003)" style="stroke:#000000;stroke-width:0.05mm;fill:none" r="7.5" cx="0" cy="0"/>
    <path transform="matrix(1,0,0,-1,49.800999,-155.820007)" style="stroke:#000000;stroke-width:0.05mm;fill:none" d="M65.269997,-43.77C65.822281,-43.77,66.269997,-44.217716,66.269997,-44.77C66.269997,-44.217716,65.822281,-43.77,65.269997,-43.77z"/>
    <path transform="matrix(1,0,0,-1,49.800999,-155.820007)" style="stroke:#000000;stroke-width:0.05mm;fill:none" d="M66.269997,-37.77C66.269997,-38.322285,65.822281,-38.77,65.269997,-38.77C65.822281,-38.77,66.269997,-38.322285,66.269997,-37.77z"/>
    <path transform="matrix(1,0,0,-1,49.800999,-155.820007)" style="stroke:#000000;stroke-width:0.05mm;fill:none" d="M123.658501,-103.702499C123.563622,-104.174362,123.486122,-104.682137,123.425987,-105.225853C123.486122,-104.682137,123.563622,-104.174362,123.658501,-103.702499z"/>
    <path transform="matrix(1,0,0,-1,49.800999,-155.820007)" style="stroke:#000000;stroke-width:0.05mm;fill:none" d="M115.819992,-47.02L107.319992,-47.02L115.819992,-47.02z"/>
    <path transform="matrix(1,0,0,-1,49.800999,-155.820007)" style="stroke:#000000;stroke-width:0.05mm;fill:none" d="M11.269997,-44.77L11.269997,-57.77L11.269997,-44.77z"/>
    <path transform="matrix(1,0,0,-1,49.800999,-155.820007)" style="stroke:#000000;stroke-width:0.05mm;fill:none" d="M4.269997,-110.370003C4.269997,-105.302612,3.269997,-102.302612,1.269997,-101.370003C3.269997,-102.302612,4.269997,-105.302612,4.269997,-110.370003z"/>
    <path transform="matrix(1,0,0,-1,49.800999,-155.820007)" style="stroke:#000000;stroke-width:0.05mm;fill:none" d="M12.269997,-78.770004C11.717712,-78.770004,11.269997,-78.322281,11.269997,-77.770004C11.269997,-78.322281,11.717712,-78.770004,12.269997,-78.770004z"/>
    <path transform="matrix(1,0,0,-1,49.800999,-155.820007)" style="stroke:#000000;stroke-width:0.05mm;fill:none" d="M51.269997,-64.770004L51.269997,-77.770004L51.269997,-64.770004z"/>
    <path transform="matrix(1,0,0,-1,49.800999,-155.820007)" style="stroke:#000000;stroke-width:0.05mm;fill:none" d="M123.269997,-3.27C123.269997,-8.337387,124.269997,-11.337387,126.269997,-12.27L126.269997,-20.27L126.269997,-28.27L126.269997,-99.369995C125.775543,-99.600571,125.342209,-99.957497,124.970001,-100.440788L124.970001,-103.669998L123.269997,-108.340683C123.269997,-108.350449,123.269997,-108.360207,123.269997,-108.370003L123.259338,-108.370003L119.019997,-108.370003L10.519997,-108.370003L6.280655,-108.370003L6.269997,-108.370003C6.269997,-108.360207,6.269993,-108.350449,6.269985,-108.340683L4.569996,-103.669998L4.569996,-100.440788C4.197784,-99.957497,3.76445,-99.600571,3.269997,-99.369995L3.269997,-28.27L3.269997,-20.27L3.269997,-12.27C5.269997,-11.337387,6.269997,-8.337387,6.269997,-3.27L123.269997,-3.27z"/>
    <circle transform="matrix(1,0,0,-1,104.570999,-144.550003)" style="stroke:#000000;stroke-width:0.05mm;fill:none" r="7.5" cx="0" cy="0"/>
    <path transform="matrix(1,0,0,-1,49.800999,-155.820007)" style="stroke:#000000;stroke-width:0.05mm;fill:none" d="M31.269997,-24.77L31.269997,-37.77L31.269997,-24.77z"/>
    <path transform="matrix(1,0,0,-1,49.800999,-155.820007)" style="stroke:#000000;stroke-width:0.05mm;fill:none" d="M71.269997,-64.770004C71.269997,-64.217712,71.717712,-63.77,72.269997,-63.77C71.717712,-63.77,71.269997,-64.217712,71.269997,-64.770004z"/>
    <path transform="matrix(1,0,0,-1,49.800999,-155.820007)" style="stroke:#000000;stroke-width:0.05mm;fill:none" d="M107.319992,-67.520004L115.819992,-67.520004L107.319992,-67.520004z"/>
    <path transform="matrix(1,0,0,-1,49.800999,-155.820007)" style="stroke:#000000;stroke-width:0.05mm;fill:none" d="M12.269997,-38.77L25.269997,-38.77L12.269997,-38.77z"/>
    <path transform="matrix(1,0,0,-1,49.800999,-155.820007)" style="stroke:#000000;stroke-width:0.05mm;fill:none" d="M123.269997,-3.27L6.269997,-3.27L123.269997,-3.27z"/>
    <path transform="matrix(1,0,0,-1,49.800999,-155.820007)" style="stroke:#000000;stroke-width:0.05mm;fill:none" d="M32.269997,-38.77L45.269997,-38.77L32.269997,-38.77z"/>
    <path transform="matrix(1,0,0,-1,49.800999,-155.820007)" style="stroke:#000000;stroke-width:0.05mm;fill:none" d="M91.269997,-37.77L91.269997,-24.77L91.269997,-37.77z"/>
    <path transform="matrix(1,0,0,-1,49.800999,-155.820007)" style="stroke:#000000;stroke-width:0.05mm;fill:none" d="M10.519997,-108.370003L6.280655,-108.370003L10.519997,-108.370003z"/>
    <path transform="matrix(1,0,0,-1,49.800999,-155.820007)" style="stroke:#000000;stroke-width:0.05mm;fill:none" d="M123.259338,-108.370003L119.019997,-108.370003L123.259338,-108.370003z"/>
    <path transform="matrix(1,0,0,-1,49.800999,-155.820007)" style="stroke:#000000;stroke-width:0.05mm;fill:none" d="M116.819992,-66.520004L116.819992,-48.02L116.819992,-66.520004z"/>
    <circle transform="matrix(1,0,0,-1,164.570999,-144.550003)" style="stroke:#000000;stroke-width:0.05mm;fill:none" r="7.5" cx="0" cy="0"/>
    <path transform="matrix(1,0,0,-1,49.800999,-155.820007)" style="stroke:#000000;stroke-width:0.05mm;fill:none" d="M52.269997,-38.77C51.717712,-38.77,51.269997,-38.322285,51.269997,-37.77C51.269997,-38.322285,51.717712,-38.77,52.269997,-38.77z"/>
    <path transform="matrix(1,0,0,-1,49.800999,-155.820007)" style="stroke:#000000;stroke-width:0.05mm;fill:none" d="M72.269997,-78.770004L85.269997,-78.770004L72.269997,-78.770004z"/>
    <path transform="matrix(1,0,0,-1,49.800999,-155.820007)" style="stroke:#000000;stroke-width:0.05mm;fill:none" d="M124.970001,-100.440788L124.970001,-103.669998L124.970001,-100.169998L124.970001,-100.440788z"/>
    <path transform="matrix(1,0,0,-1,49.800999,-155.820007)" style="stroke:#000000;stroke-width:0.05mm;fill:none" d="M12.269997,-38.77C11.717712,-38.77,11.269997,-38.322285,11.269997,-37.77C11.269997,-38.322285,11.717712,-38.77,12.269997,-38.77z"/>
    <path transform="matrix(1,0,0,-1,49.800999,-155.820007)" style="stroke:#000000;stroke-width:0.05mm;fill:none" d="M46.269997,-57.77L46.269997,-44.77L46.269997,-57.77z"/>
    <path transform="matrix(1,0,0,-1,49.800999,-155.820007)" style="stroke:#000000;stroke-width:0.05mm;fill:none" d="M11.269997,-64.770004L11.269997,-77.770004L11.269997,-64.770004z"/>
    <path transform="matrix(1,0,0,-1,49.800999,-155.820007)" style="stroke:#000000;stroke-width:0.05mm;fill:none" d="M46.269997,-37.77C46.269997,-38.322285,45.822281,-38.77,45.269997,-38.77C45.822281,-38.77,46.269997,-38.322285,46.269997,-37.77z"/>
    <path transform="matrix(1,0,0,-1,49.800999,-155.820007)" style="stroke:#000000;stroke-width:0.05mm;fill:none" d="M86.269997,-77.770004C86.269997,-78.322281,85.822281,-78.770004,85.269997,-78.770004C85.822281,-78.770004,86.269997,-78.322281,86.269997,-77.770004z"/>
    <path transform="matrix(1,0,0,-1,49.800999,-155.820007)" style="stroke:#000000;stroke-width:0.05mm;fill:none" d="M26.269997,-57.77C26.269997,-58.322285,25.822281,-58.77,25.269997,-58.77C25.822281,-58.77,26.269997,-58.322285,26.269997,-57.77z"/>
    <path transform="matrix(1,0,0,-1,49.800999,-155.820007)" style="stroke:#000000;stroke-width:0.05mm;fill:none" d="M77.269997,-58.77L90.269997,-58.77L77.269997,-58.77z"/>
    <path transform="matrix(1,0,0,-1,49.800999,-155.820007)" style="stroke:#000000;stroke-width:0.05mm;fill:none" d="M4.269997,-1.27L125.269997,-1.27L4.269997,-1.27z"/>
    <path transform="matrix(1,0,0,-1,49.800999,-155.820007)" style="stroke:#000000;stroke-width:0.05mm;fill:none" d="M51.269997,-64.770004C51.269997,-64.217712,51.717712,-63.77,52.269997,-63.77C51.717712,-63.77,51.269997,-64.217712,51.269997,-64.770004z"/>
    <path transform="matrix(1,0,0,-1,49.800999,-155.820007)" style="stroke:#000000;stroke-width:0.05mm;fill:none" d="M51.269997,-24.77L51.269997,-37.77L51.269997,-24.77z"/>
    <path transform="matrix(1,0,0,-1,49.800999,-155.820007)" style="stroke:#000000;stroke-width:0.05mm;fill:none" d="M128.269989,-10.27L128.269989,-101.370003L128.269989,-10.27z"/>
    <path transform="matrix(1,0,0,-1,49.800999,-155.820007)" style="stroke:#000000;stroke-width:0.05mm;fill:none" d="M25.269997,-43.77L12.269997,-43.77L25.269997,-43.77z"/>
    <path transform="matrix(1,0,0,-1,49.800999,-155.820007)" style="stroke:#000000;stroke-width:0.05mm;fill:none" d="M65.269997,-23.77C65.822281,-23.77,66.269997,-24.217716,66.269997,-24.77C66.269997,-24.217716,65.822281,-23.77,65.269997,-23.77z"/>
    <path transform="matrix(1,0,0,-1,49.800999,-155.820007)" style="stroke:#000000;stroke-width:0.05mm;fill:none" d="M25.269997,-63.77C25.822281,-63.77,26.269997,-64.217712,26.269997,-64.770004C26.269997,-64.217712,25.822281,-63.77,25.269997,-63.77z"/>
    <path transform="matrix(1,0,0,-1,49.800999,-155.820007)" style="stroke:#000000;stroke-width:0.05mm;fill:none" d="M116.819992,-66.520004C116.819992,-67.072289,116.372276,-67.520004,115.819992,-67.520004C116.372276,-67.520004,116.819992,-67.072289,116.819992,-66.520004z"/>
    <path transform="matrix(1,0,0,-1,49.800999,-155.820007)" style="stroke:#000000;stroke-width:0.05mm;fill:none" d="M52.269997,-58.77L65.269997,-58.77L52.269997,-58.77z"/>
    <path transform="matrix(1,0,0,-1,49.800999,-155.820007)" style="stroke:#000000;stroke-width:0.05mm;fill:none" d="M31.269997,-44.77C31.269997,-44.217716,31.717712,-43.77,32.269997,-43.77C31.717712,-43.77,31.269997,-44.217716,31.269997,-44.77z"/>
    <path transform="matrix(1,0,0,-1,49.800999,-155.820007)" style="stroke:#000000;stroke-width:0.05mm;fill:none" d="M91.269997,-37.77C91.269997,-38.322285,90.822281,-38.77,90.269997,-38.77C90.822281,-38.77,91.269997,-38.322285,91.269997,-37.77z"/>
    <circle transform="matrix(1,0,0,-1,161.371002,-119.949997)" style="stroke:#000000;stroke-width:0.05mm;fill:none" r="5.5" cx="0" cy="0"/>
    <path transform="matrix(1,0,0,-1,49.800999,-155.820007)" style="stroke:#000000;stroke-width:0.05mm;fill:none" d="M66.269997,-37.77L66.269997,-24.77L66.269997,-37.77z"/>
    <path transform="matrix(1,0,0,-1,49.800999,-155.820007)" style="stroke:#000000;stroke-width:0.05mm;fill:none" d="M52.269997,-78.770004C51.717712,-78.770004,51.269997,-78.322281,51.269997,-77.770004C51.269997,-78.322281,51.717712,-78.770004,52.269997,-78.770004z"/>
    <path transform="matrix(1,0,0,-1,49.800999,-155.820007)" style="stroke:#000000;stroke-width:0.05mm;fill:none" d="M123.269997,-108.340683C123.269997,-108.350449,123.269997,-108.360207,123.269997,-108.370003C123.269997,-108.360207,123.269997,-108.350449,123.269997,-108.340683z"/>
    <path transform="matrix(1,0,0,-1,49.800999,-155.820007)" style="stroke:#000000;stroke-width:0.05mm;fill:none" d="M128.269989,-101.370003C126.269997,-102.302612,125.269997,-105.302612,125.269997,-110.370003C125.269997,-105.302612,126.269997,-102.302612,128.269989,-101.370003z"/>
    <path transform="matrix(1,0,0,-1,49.800999,-155.820007)" style="stroke:#000000;stroke-width:0.05mm;fill:none" d="M12.269997,-58.77L25.269997,-58.77L12.269997,-58.77z"/>
    <path transform="matrix(1,0,0,-1,49.800999,-155.820007)" style="stroke:#000000;stroke-width:0.05mm;fill:none" d="M106.319992,-48.02L106.319992,-66.520004L106.319992,-48.02z"/>
    <path transform="matrix(1,0,0,-1,49.800999,-155.820007)" style="stroke:#000000;stroke-width:0.05mm;fill:none" d="M107.319992,-67.520004C106.767723,-67.520004,106.319992,-67.072289,106.319992,-66.520004C106.319992,-67.072289,106.767723,-67.520004,107.319992,-67.520004z"/>
    <path transform="matrix(1,0,0,-1,49.800999,-155.820007)" style="stroke:#000000;stroke-width:0.05mm;fill:none" d="M4.569996,-100.440788L4.569996,-103.669998L4.569996,-100.169998L4.569996,-100.440788z"/>
    <path transform="matrix(1,0,0,-1,49.800999,-155.820007)" style="stroke:#000000;stroke-width:0.05mm;fill:none" d="M23.019997,-84.020004C23.572281,-84.020004,24.019997,-84.467712,24.019997,-85.020004C24.019997,-84.467712,23.572281,-84.020004,23.019997,-84.020004z"/>
    <path transform="matrix(1,0,0,-1,49.800999,-155.820007)" style="stroke:#000000;stroke-width:0.05mm;fill:none" d="M126.269997,-12.27L126.269997,-20.27L126.269997,-12.27z"/>
    <path transform="matrix(1,0,0,-1,49.800999,-155.820007)" style="stroke:#000000;stroke-width:0.05mm;fill:none" d="M25.269997,-63.77L12.269997,-63.77L25.269997,-63.77z"/>
    <path transform="matrix(1,0,0,-1,49.800999,-155.820007)" style="stroke:#000000;stroke-width:0.05mm;fill:none" d="M91.269997,-57.77L91.269997,-44.77L91.269997,-57.77z"/>
    <path transform="matrix(1,0,0,-1,49.800999,-155.820007)" style="stroke:#000000;stroke-width:0.05mm;fill:none" d="M86.269997,-77.770004L86.269997,-64.770004L86.269997,-77.770004z"/>
    <path transform="matrix(1,0,0,-1,49.800999,-155.820007)" style="stroke:#000000;stroke-width:0.05mm;fill:none" d="M25.269997,-23.77C25.822281,-23.77,26.269997,-24.217716,26.269997,-24.77C26.269997,-24.217716,25.822281,-23.77,25.269997,-23.77z"/>
    <path transform="matrix(1,0,0,-1,49.800999,-155.820007)" style="stroke:#000000;stroke-width:0.05mm;fill:none" d="M4.569996,-100.440788C4.197784,-99.957497,3.76445,-99.600571,3.269997,-99.369995C3.76445,-99.600571,4.197784,-99.957497,4.569996,-100.440788z"/>
    <path transform="matrix(1,0,0,-1,49.800999,-155.820007)" style="stroke:#000000;stroke-width:0.05mm;fill:none" d="M45.269997,-63.77C45.822281,-63.77,46.269997,-64.217712,46.269997,-64.770004C46.269997,-64.217712,45.822281,-63.77,45.269997,-63.77z"/>
    <path transform="matrix(1,0,0,-1,49.800999,-155.820007)" style="stroke:#000000;stroke-width:0.05mm;fill:none" d="M85.269997,-63.77C85.822281,-63.77,86.269997,-64.217712,86.269997,-64.770004C86.269997,-64.217712,85.822281,-63.77,85.269997,-63.77z"/>
    <path transform="matrix(1,0,0,-1,49.800999,-155.820007)" style="stroke:#000000;stroke-width:0.05mm;fill:none" d="M76.269997,-24.77L76.269997,-37.77L76.269997,-24.77z"/>
    <path transform="matrix(1,0,0,-1,49.800999,-155.820007)" style="stroke:#000000;stroke-width:0.05mm;fill:none" d="M46.269997,-37.77L46.269997,-24.77L46.269997,-37.77z"/>
    <path transform="matrix(1,0,0,-1,49.800999,-155.820007)" style="stroke:#000000;stroke-width:0.05mm;fill:none" d="M123.425987,-105.225853C122.996193,-105.745667,122.272293,-105.914673,121.656738,-105.638924C121.041191,-105.363159,120.685387,-104.710457,120.787163,-104.043694C120.888931,-103.376907,121.423218,-102.860062,122.093002,-102.780479C122.762779,-102.700897,123.403313,-103.07814,123.658493,-103.702499C123.563622,-104.174362,123.486122,-104.682137,123.425987,-105.225853z"/>
    <path transform="matrix(1,0,0,-1,49.800999,-155.820007)" style="stroke:#000000;stroke-width:0.05mm;fill:none" d="M66.269997,-57.77L66.269997,-44.77L66.269997,-57.77z"/>
    <path transform="matrix(1,0,0,-1,49.800999,-155.820007)" style="stroke:#000000;stroke-width:0.05mm;fill:none" d="M65.269997,-63.77C65.822281,-63.77,66.269997,-64.217712,66.269997,-64.770004C66.269997,-64.217712,65.822281,-63.77,65.269997,-63.77z"/>
    <path transform="matrix(1,0,0,-1,49.800999,-155.820007)" style="stroke:#000000;stroke-width:0.05mm;fill:none" d="M14.519997,-104.519997L23.019997,-104.519997L14.519997,-104.519997z"/>
    <path transform="matrix(1,0,0,-1,49.800999,-155.820007)" style="stroke:#000000;stroke-width:0.05mm;fill:none" d="M11.269997,-44.77C11.269997,-44.217716,11.717712,-43.77,12.269997,-43.77C11.717712,-43.77,11.269997,-44.217716,11.269997,-44.77z"/>
    <path transform="matrix(1,0,0,-1,49.800999,-155.820007)" style="stroke:#000000;stroke-width:0.05mm;fill:none" d="M115.819992,-47.02C116.372276,-47.02,116.819992,-47.467716,116.819992,-48.02C116.819992,-47.467716,116.372276,-47.02,115.819992,-47.02z"/>
    <path transform="matrix(1,0,0,-1,49.800999,-155.820007)" style="stroke:#000000;stroke-width:0.05mm;fill:none" d="M76.269997,-44.77C76.269997,-44.217716,76.717712,-43.77,77.269997,-43.77C76.717712,-43.77,76.269997,-44.217716,76.269997,-44.77z"/>
    <path transform="matrix(1,0,0,-1,49.800999,-155.820007)" style="stroke:#000000;stroke-width:0.05mm;fill:none" d="M25.269997,-23.77L12.269997,-23.77L25.269997,-23.77z"/>
    <path transform="matrix(1,0,0,-1,49.800999,-155.820007)" style="stroke:#000000;stroke-width:0.05mm;fill:none" d="M126.269997,-12.27C124.269997,-11.337387,123.269997,-8.337387,123.269997,-3.27C123.269997,-8.337387,124.269997,-11.337387,126.269997,-12.27z"/>
    <path transform="matrix(1,0,0,-1,49.800999,-155.820007)" style="stroke:#000000;stroke-width:0.05mm;fill:none" d="M11.269997,-64.770004C11.269997,-64.217712,11.717712,-63.77,12.269997,-63.77C11.717712,-63.77,11.269997,-64.217712,11.269997,-64.770004z"/>
    <path transform="matrix(1,0,0,-1,49.800999,-155.820007)" style="stroke:#000000;stroke-width:0.05mm;fill:none" d="M6.113995,-105.225853C6.053871,-104.682137,5.976372,-104.174362,5.881493,-103.702499C5.976372,-104.174362,6.053871,-104.682137,6.113995,-105.225853z"/>
    <path transform="matrix(1,0,0,-1,49.800999,-155.820007)" style="stroke:#000000;stroke-width:0.05mm;fill:none" d="M11.269997,-24.77C11.269997,-24.217716,11.717712,-23.77,12.269997,-23.77C11.717712,-23.77,11.269997,-24.217716,11.269997,-24.77z"/>
    <path transform="matrix(1,0,0,-1,49.800999,-155.820007)" style="stroke:#000000;stroke-width:0.05mm;fill:none" d="M1.269997,-101.370003L1.269997,-10.27L1.269997,-101.370003z"/>
    <circle transform="matrix(1,0,0,-1,144.570999,-144.550003)" style="stroke:#000000;stroke-width:0.05mm;fill:none" r="7.5" cx="0" cy="0"/>
    <path transform="matrix(1,0,0,-1,49.800999,-155.820007)" style="stroke:#000000;stroke-width:0.05mm;fill:none" d="M26.269997,-57.77L26.269997,-44.77L26.269997,-57.77z"/>
    <path transform="matrix(1,0,0,-1,49.800999,-155.820007)" style="stroke:#000000;stroke-width:0.05mm;fill:none" d="M90.269997,-43.77L77.269997,-43.77L90.269997,-43.77z"/>
    <path transform="matrix(1,0,0,-1,49.800999,-155.820007)" style="stroke:#000000;stroke-width:0.05mm;fill:none" d="M26.269997,-77.770004C26.269997,-78.322281,25.822281,-78.770004,25.269997,-78.770004C25.822281,-78.770004,26.269997,-78.322281,26.269997,-77.770004z"/>
    <path transform="matrix(1,0,0,-1,49.800999,-155.820007)" style="stroke:#000000;stroke-width:0.05mm;fill:none" d="M106.319992,-48.02C106.319992,-47.467716,106.767723,-47.02,107.319992,-47.02C106.767723,-47.02,106.319992,-47.467716,106.319992,-48.02z"/>
    <path transform="matrix(1,0,0,-1,49.800999,-155.820007)" style="stroke:#000000;stroke-width:0.05mm;fill:none" d="M90.269997,-23.77L77.269997,-23.77L90.269997,-23.77z"/>
    <path transform="matrix(1,0,0,-1,49.800999,-155.820007)" style="stroke:#000000;stroke-width:0.05mm;fill:none" d="M6.269997,-108.370003C6.269997,-108.360207,6.269993,-108.350449,6.269985,-108.340683L6.280655,-108.370003L6.269997,-108.370003z"/>
    <path transform="matrix(1,0,0,-1,49.800999,-155.820007)" style="stroke:#000000;stroke-width:0.05mm;fill:none" d="M76.269997,-24.77C76.269997,-24.217716,76.717712,-23.77,77.269997,-23.77C76.717712,-23.77,76.269997,-24.217716,76.269997,-24.77z"/>
    <path transform="matrix(1,0,0,-1,49.800999,-155.820007)" style="stroke:#000000;stroke-width:0.05mm;fill:none" d="M45.269997,-43.77L32.269997,-43.77L45.269997,-43.77z"/>
    <circle transform="matrix(1,0,0,-1,124.570999,-144.550003)" style="stroke:#000000;stroke-width:0.05mm;fill:none" r="7.5" cx="0" cy="0"/>
    <path transform="matrix(1,0,0,-1,49.800999,-155.820007)" style="stroke:#000000;stroke-width:0.05mm;fill:none" d="M26.269997,-77.770004L26.269997,-64.770004L26.269997,-77.770004z"/>
    <path transform="matrix(1,0,0,-1,49.800999,-155.820007)" style="stroke:#000000;stroke-width:0.05mm;fill:none" d="M13.519997,-85.020004L13.519997,-103.519997L13.519997,-85.020004z"/>
    <path transform="matrix(1,0,0,-1,49.800999,-155.820007)" style="stroke:#000000;stroke-width:0.05mm;fill:none" d="M26.269997,-37.77C26.269997,-38.322285,25.822281,-38.77,25.269997,-38.77C25.822281,-38.77,26.269997,-38.322285,26.269997,-37.77z"/>
    <path transform="matrix(1,0,0,-1,49.800999,-155.820007)" style="stroke:#000000;stroke-width:0.05mm;fill:none" d="M1.269997,-101.370003L1.269997,-10.27C3.269997,-9.337387,4.269997,-6.337387,4.269997,-1.27L125.269997,-1.27C125.269997,-6.337387,126.269997,-9.337387,128.269989,-10.27L128.269989,-101.370003C126.269997,-102.302612,125.269997,-105.302612,125.269997,-110.370003L4.269997,-110.370003C4.269997,-105.302612,3.269997,-102.302612,1.269997,-101.370003z"/>
    <path transform="matrix(1,0,0,-1,49.800999,-155.820007)" style="stroke:#000000;stroke-width:0.05mm;fill:none" d="M3.269997,-99.369995L3.269997,-28.27L3.269997,-99.369995z"/>
    <path transform="matrix(1,0,0,-1,49.800999,-155.820007)" style="stroke:#000000;stroke-width:0.05mm;fill:none" d="M123.269997,-108.340683L124.970001,-103.669998L123.259338,-108.370003L123.269997,-108.340683z"/>
    <path transform="matrix(1,0,0,-1,49.800999,-155.820007)" style="stroke:#000000;stroke-width:0.05mm;fill:none" d="M46.269997,-77.770004C46.269997,-78.322281,45.822281,-78.770004,45.269997,-78.770004C45.822281,-78.770004,46.269997,-78.322281,46.269997,-77.770004z"/>
    <path transform="matrix(1,0,0,-1,49.800999,-155.820007)" style="stroke:#000000;stroke-width:0.05mm;fill:none" d="M77.269997,-38.77L90.269997,-38.77L77.269997,-38.77z"/>
    <path transform="matrix(1,0,0,-1,49.800999,-155.820007)" style="stroke:#000000;stroke-width:0.05mm;fill:none" d="M31.269997,-64.770004L31.269997,-77.770004L31.269997,-64.770004z"/>
    <path transform="matrix(1,0,0,-1,49.800999,-155.820007)" style="stroke:#000000;stroke-width:0.05mm;fill:none" d="M51.269997,-44.77L51.269997,-57.77L51.269997,-44.77z"/>
    <path transform="matrix(1,0,0,-1,49.800999,-155.820007)" style="stroke:#000000;stroke-width:0.05mm;fill:none" d="M3.269997,-28.27L3.269997,-20.27L3.269997,-28.27z"/>
    <path transform="matrix(1,0,0,-1,49.800999,-155.820007)" style="stroke:#000000;stroke-width:0.05mm;fill:none" d="M76.269997,-44.77L76.269997,-57.77L76.269997,-44.77z"/>
    <path transform="matrix(1,0,0,-1,49.800999,-155.820007)" style="stroke:#000000;stroke-width:0.05mm;fill:none" d="M24.019997,-103.519997L24.019997,-85.020004L24.019997,-103.519997z"/>
    <path transform="matrix(1,0,0,-1,49.800999,-155.820007)" style="stroke:#000000;stroke-width:0.05mm;fill:none" d="M66.269997,-77.770004C66.269997,-78.322281,65.822281,-78.770004,65.269997,-78.770004C65.822281,-78.770004,66.269997,-78.322281,66.269997,-77.770004z"/>
    <path transform="matrix(1,0,0,-1,49.800999,-155.820007)" style="stroke:#000000;stroke-width:0.05mm;fill:none" d="M32.269997,-58.77C31.717712,-58.77,31.269997,-58.322285,31.269997,-57.77C31.269997,-58.322285,31.717712,-58.77,32.269997,-58.77z"/>
    <path transform="matrix(1,0,0,-1,49.800999,-155.820007)" style="stroke:#000000;stroke-width:0.05mm;fill:none" d="M23.019997,-84.020004L14.519997,-84.020004L23.019997,-84.020004z"/>
    <path transform="matrix(1,0,0,-1,49.800999,-155.820007)" style="stroke:#000000;stroke-width:0.05mm;fill:none" d="M5.881493,-103.702499C5.672283,-104.21434,5.761635,-104.799767,6.113998,-105.225899C6.053875,-104.682159,5.976372,-104.174362,5.881493,-103.702499z"/>
    <path transform="matrix(1,0,0,-1,49.800999,-155.820007)" style="stroke:#000000;stroke-width:0.05mm;fill:none" d="M65.269997,-43.77L52.269997,-43.77L65.269997,-43.77z"/>
    <path transform="matrix(1,0,0,-1,49.800999,-155.820007)" style="stroke:#000000;stroke-width:0.05mm;fill:none" d="M26.269997,-37.77L26.269997,-24.77L26.269997,-37.77z"/>
    <path transform="matrix(1,0,0,-1,49.800999,-155.820007)" style="stroke:#000000;stroke-width:0.05mm;fill:none" d="M6.280655,-108.370003L6.269997,-108.370003L6.280655,-108.370003z"/>
    <path transform="matrix(1,0,0,-1,49.800999,-155.820007)" style="stroke:#000000;stroke-width:0.05mm;fill:none" d="M6.269985,-108.340683L4.569996,-103.669998L6.280655,-108.370003L6.269985,-108.340683z"/>
    <path transform="matrix(1,0,0,-1,49.800999,-155.820007)" style="stroke:#000000;stroke-width:0.05mm;fill:none" d="M77.269997,-38.77C76.717712,-38.77,76.269997,-38.322285,76.269997,-37.77C76.269997,-38.322285,76.717712,-38.77,77.269997,-38.77z"/>
    <path transform="matrix(1,0,0,-1,49.800999,-155.820007)" style="stroke:#000000;stroke-width:0.05mm;fill:none" d="M12.269997,-58.77C11.717712,-58.77,11.269997,-58.322285,11.269997,-57.77C11.269997,-58.322285,11.717712,-58.77,12.269997,-58.77z"/>
    <path transform="matrix(1,0,0,-1,49.800999,-155.820007)" style="stroke:#000000;stroke-width:0.05mm;fill:none" d="M126.269997,-20.27L126.269997,-28.27L126.269997,-20.27z"/>
    <path transform="matrix(1,0,0,-1,49.800999,-155.820007)" style="stroke:#000000;stroke-width:0.05mm;fill:none" d="M85.269997,-63.77L72.269997,-63.77L85.269997,-63.77z"/>
    <path transform="matrix(1,0,0,-1,49.800999,-155.820007)" style="stroke:#000000;stroke-width:0.05mm;fill:none" d="M6.269985,-108.340683C6.269993,-108.350449,6.269997,-108.360207,6.269997,-108.370003C6.269997,-108.360207,6.269993,-108.350449,6.269985,-108.340683z"/>
    <path transform="matrix(1,0,0,-1,49.800999,-155.820007)" style="stroke:#000000;stroke-width:0.05mm;fill:none" d="M123.425987,-105.225853C123.486122,-104.682137,123.563622,-104.174362,123.658501,-103.702499C123.732132,-103.882637,123.769997,-104.075394,123.769997,-104.269997C123.769997,-104.618988,123.648338,-104.957024,123.425987,-105.225899L123.425987,-105.225853z"/>
    <path transform="matrix(1,0,0,-1,49.800999,-155.820007)" style="stroke:#000000;stroke-width:0.05mm;fill:none" d="M32.269997,-38.77C31.717712,-38.77,31.269997,-38.322285,31.269997,-37.77C31.269997,-38.322285,31.717712,-38.77,32.269997,-38.77z"/>
    <path transform="matrix(1,0,0,-1,49.800999,-155.820007)" style="stroke:#000000;stroke-width:0.05mm;fill:none" d="M66.269997,-77.770004L66.269997,-64.770004L66.269997,-77.770004z"/>
    <path transform="matrix(1,0,0,-1,49.800999,-155.820007)" style="stroke:#000000;stroke-width:0.05mm;fill:none" d="M46.269997,-77.770004L46.269997,-64.770004L46.269997,-77.770004z"/>
    <path transform="matrix(1,0,0,-1,49.800999,-155.820007)" style="stroke:#000000;stroke-width:0.05mm;fill:none" d="M65.269997,-63.77L52.269997,-63.77L65.269997,-63.77z"/>
    <path transform="matrix(1,0,0,-1,49.800999,-155.820007)" style="stroke:#000000;stroke-width:0.05mm;fill:none" d="M32.269997,-78.770004L45.269997,-78.770004L32.269997,-78.770004z"/>
    <circle transform="matrix(1,0,0,-1,128.570999,-61.549999)" style="stroke:#000000;stroke-width:0.05mm;fill:none" r="6.2" cx="0" cy="0"/>
    <rect transform="matrix(1,0,0,-1,153.957001,-118.758003)" style="stroke:#d0d000;stroke-width:0.05mm;fill:none" x="-0.25" y="-10.746679" width="0.5" height="21.493359"/>
    <path transform="matrix(1,0,0,-1,170.973007,-72.202301)" style="stroke:#d0d000;stroke-width:0.05mm;fill:none" d="M-1.019531,-1.472656L-2.074219,-1.472656L-2.074219,0.421875L-2.359375,0.421875L-2.359375,-1.726563L-1.019531,-1.726563L-1.019531,-1.472656M0.867188,0.421875L0.578125,0.421875C0.354191,-0.152775,0.139286,-0.731068,-0.066406,-1.3125L-0.117188,-1.488281C-0.150887,-1.36983,-0.188674,-1.252563,-0.230469,-1.136719L-0.789063,0.421875L-1.097656,0.421875L-0.265625,-1.726563L0.027344,-1.726563L0.867188,0.421875M2.460938,-1.472656L1.402344,-1.472656L1.402344,0.421875L1.121094,0.421875L1.121094,-1.726563L2.460938,-1.726563L2.460938,-1.472656"/>
    <path transform="matrix(0.999829,0,0,-0.999996,153.820007,-99.385902)" style="stroke:#d0d000;stroke-width:0.05mm;fill:none" d="M-0.511719,5.902344L0.832031,5.902344L0.832031,6.238281L-0.511719,6.238281L-0.511719,7.125L1.039063,7.125L1.039063,7.464844L-0.890625,7.464844L-0.890625,4.601563L-0.511719,4.601563L-0.511719,5.902344M0.960938,0.335938L-0.449219,0.335938L-0.449219,2.863281L-0.828125,2.863281L-0.828125,0L0.960938,0L0.960938,0.335938M0.191406,-1.738281L-0.1875,-1.738281L-0.1875,-4.601563L0.191406,-4.601563L0.191406,-1.738281M-0.746094,-7.929688C-0.557293,-7.925269,-0.368411,-7.926572,-0.179688,-7.933594C-0.047432,-7.940047,0.077116,-7.997423,0.167969,-8.09375C0.307971,-8.252823,0.433454,-8.424055,0.542969,-8.605469L0.921875,-9.199219L1.398438,-9.199219L0.898438,-8.421875C0.810601,-8.281768,0.705623,-8.153171,0.585938,-8.039063C0.515914,-7.981858,0.438367,-7.934541,0.355469,-7.898438C0.532716,-7.878508,0.703431,-7.819825,0.855469,-7.726563C1.180536,-7.482534,1.262241,-7.029755,1.042969,-6.6875C0.922921,-6.489614,0.711727,-6.364951,0.480469,-6.355469C0.369167,-6.340237,0.256849,-6.333707,0.144531,-6.335938L-1.125,-6.335938L-1.125,-9.199219L-0.746094,-9.199219L-0.746094,-7.929688M-0.746094,-7.601563L-0.746094,-6.652344L0.160156,-6.652344C0.325964,-6.640501,0.490476,-6.687504,0.625,-6.785156C0.757717,-6.899893,0.808578,-7.083298,0.753906,-7.25C0.689548,-7.446849,0.507838,-7.581565,0.300781,-7.585938C0.223161,-7.597039,0.144814,-7.602262,0.066406,-7.601563L-0.746094,-7.601563"/>
    <path transform="matrix(1,0,0,-1,88.525002,-62.202301)" style="stroke:#d0d000;stroke-width:0.05mm;fill:none" d="M-2.539063,-0.769531C-2.398441,-0.764977,-2.2577,-0.766279,-2.117188,-0.773438C-1.978437,-0.787586,-1.853556,-0.863663,-1.777344,-0.980469C-1.606038,-1.223467,-1.443179,-1.472314,-1.289063,-1.726563L-0.929688,-1.726563L-1.304688,-1.140625C-1.370424,-1.036032,-1.449179,-0.940214,-1.539063,-0.855469C-1.591585,-0.812008,-1.649322,-0.775266,-1.710938,-0.746094C-1.540366,-0.733483,-1.379247,-0.663251,-1.253906,-0.546875C-1.040912,-0.302611,-1.061699,0.066361,-1.300781,0.285156C-1.427947,0.376598,-1.581742,0.423286,-1.738281,0.417969C-2.100152,0.429914,-2.462271,0.431215,-2.824219,0.421875L-2.824219,-1.726563L-2.539063,-1.726563L-2.539063,-0.769531M0.101563,0.167969L0.8125,0.167969L0.8125,0.421875L-0.890625,0.421875L-0.890625,0.167969L-0.183594,0.167969L-0.183594,-1.726563L0.101563,-1.726563L0.101563,0.167969M1.402344,-0.039063L2.527344,-1.726563L2.820313,-1.726563L2.820313,0.421875L2.546875,0.421875L2.546875,-1.261719L1.421875,0.421875L1.128906,0.421875L1.128906,-1.726563L1.402344,-1.726563L1.402344,-0.039063M-2.539063,-0.523438L-2.539063,0.183594C-2.276066,0.191683,-2.0129,0.19038,-1.75,0.179688C-1.587738,0.177784,-1.446805,0.06728,-1.40625,-0.089844C-1.368481,-0.257813,-1.462527,-0.427431,-1.625,-0.484375C-1.72308,-0.516979,-1.826554,-0.530245,-1.929688,-0.523438L-2.539063,-0.523438"/>
    <path transform="matrix(1,0,0,-1,161.412994,-80.434303)" style="stroke:#d0d000;stroke-width:0.05mm;fill:none" d="M-2.1875,-1.742188C-1.944988,-1.692013,-1.718361,-1.583393,-1.527344,-1.425781L-1.527344,-0.628906L-2.4375,-0.628906L-2.4375,-0.882813L-1.808594,-0.882813L-1.808594,-1.28125C-2.067963,-1.495348,-2.41951,-1.56034,-2.738281,-1.453125C-2.982655,-1.372256,-3.160893,-1.160787,-3.199219,-0.90625C-3.244801,-0.673531,-3.22451,-0.432747,-3.140625,-0.210938C-3.053559,0.008964,-2.855197,0.165565,-2.621094,0.199219C-2.51006,0.218656,-2.396611,0.219975,-2.285156,0.203125C-2.191338,0.185005,-2.102251,0.147775,-2.023438,0.09375C-1.919718,0.003968,-1.847263,-0.116334,-1.816406,-0.25L-1.5625,-0.179688L-1.628906,0.019531C-1.66679,0.100632,-1.71832,0.174624,-1.78125,0.238281C-1.850111,0.302012,-1.931193,0.351193,-2.019531,0.382813C-2.385467,0.524808,-2.797829,0.476553,-3.121094,0.253906C-3.345014,0.060522,-3.483838,-0.212918,-3.507813,-0.507813C-3.545442,-0.80516,-3.474735,-1.106012,-3.308594,-1.355469C-3.091479,-1.622793,-2.762169,-1.773005,-2.417969,-1.761719L-2.1875,-1.742188M-0.800781,-1.074219L0.097656,-1.074219L0.347656,-1.726563L0.671875,-1.726563L-0.207031,0.421875L-0.515625,0.421875L-1.339844,-1.726563L-1.039063,-1.726563L-0.800781,-1.074219M1.238281,0.421875L0.953125,0.421875L0.953125,-1.726563L1.238281,-1.726563L1.238281,0.421875M2.015625,-0.039063L3.144531,-1.726563L3.433594,-1.726563L3.433594,0.421875L3.164063,0.421875L3.164063,-1.261719L2.035156,0.421875L1.742188,0.421875L1.742188,-1.726563L2.015625,-1.726563L2.015625,-0.039063M-0.71875,-0.84375C-0.605628,-0.569901,-0.505258,-0.290948,-0.417969,-0.007813L-0.367188,0.195313C-0.252928,-0.15485,-0.127882,-0.501333,0.007813,-0.84375L-0.71875,-0.84375"/>
    <path transform="matrix(1,0,0,-1,108.778,-62.2612)" style="stroke:#d0d000;stroke-width:0.05mm;fill:none" d="M-1.910156,-1.742188C-1.811877,-1.718659,-1.717259,-1.681863,-1.628906,-1.632813C-1.370435,-1.479924,-1.266478,-1.157993,-1.386719,-0.882813C-1.492204,-0.696449,-1.675656,-0.56746,-1.886719,-0.53125C-2.077953,-0.484737,-2.268066,-0.433954,-2.457031,-0.378906C-2.54839,-0.361452,-2.626613,-0.302061,-2.667969,-0.21875C-2.686914,-0.164898,-2.692281,-0.107204,-2.683594,-0.050781C-2.644972,0.07037,-2.542986,0.160357,-2.417969,0.183594C-2.24333,0.23203,-2.057289,0.219627,-1.890625,0.148438C-1.762138,0.07653,-1.679619,-0.056089,-1.671875,-0.203125L-1.398438,-0.183594C-1.40115,0.065885,-1.55379,0.289449,-1.785156,0.382813C-2.047271,0.486067,-2.338472,0.48746,-2.601563,0.386719C-2.867079,0.285626,-3.014734,0.002061,-2.945313,-0.273438C-2.871081,-0.471204,-2.702252,-0.618012,-2.496094,-0.664063C-2.283499,-0.716528,-2.072478,-0.775145,-1.863281,-0.839844C-1.787194,-0.861158,-1.719192,-0.904679,-1.667969,-0.964844C-1.588326,-1.071899,-1.589924,-1.21892,-1.671875,-1.324219C-1.715653,-1.388602,-1.780619,-1.435599,-1.855469,-1.457031C-2.103387,-1.550883,-2.381474,-1.518852,-2.601563,-1.371094C-2.705984,-1.279685,-2.769288,-1.150264,-2.777344,-1.011719L-3.046875,-1.035156C-3.038364,-1.399712,-2.760899,-1.702249,-2.398438,-1.742188C-2.236745,-1.768577,-2.071849,-1.768577,-1.910156,-1.742188M3.0625,-1.695313C2.934817,-1.6417,2.813067,-1.574934,2.699219,-1.496094C2.806131,-1.391578,2.888778,-1.264942,2.941406,-1.125L3.003906,-0.902344C3.043497,-0.66988,3.02607,-0.431276,2.953125,-0.207031C2.817737,0.203211,2.427859,0.47533,1.996094,0.460938C1.668942,0.471019,1.358214,0.31712,1.167969,0.050781C0.900177,-0.377102,0.900177,-0.919773,1.167969,-1.347656C1.418724,-1.691053,1.856431,-1.842148,2.265625,-1.726563C2.354519,-1.706397,2.440036,-1.673506,2.519531,-1.628906C2.657538,-1.741196,2.813326,-1.829651,2.980469,-1.890625L3.0625,-1.695313M0.667969,-1.472656L-0.648438,-1.472656L-0.648438,-0.742188L0.539063,-0.742188L0.539063,-0.488281L-0.648438,-0.488281L-0.648438,0.167969L0.621094,0.167969L0.621094,0.421875L-0.933594,0.421875L-0.933594,-1.726563L0.667969,-1.726563L0.667969,-1.472656M1.84375,-1.503906C1.592318,-1.45254,1.388785,-1.268462,1.3125,-1.023438C1.243814,-0.778111,1.243814,-0.518764,1.3125,-0.273438C1.404863,0.026013,1.686837,0.226279,2,0.214844C2.317253,0.221044,2.597935,0.009726,2.679688,-0.296875C2.751378,-0.543687,2.747296,-0.806316,2.667969,-1.050781C2.629297,-1.159522,2.56498,-1.257337,2.480469,-1.335938C2.360062,-1.241633,2.221906,-1.172555,2.074219,-1.132813L2.003906,-1.339844C2.104298,-1.362593,2.199639,-1.403643,2.285156,-1.460938C2.145809,-1.519807,1.991835,-1.534796,1.84375,-1.503906"/>
    <path transform="matrix(1,0,0,-1,98.570999,-71.077301)" style="stroke:#d0d000;stroke-width:0.05mm;fill:none" d="M0,0.472656L-1.386719,-2.300781L1.386719,-2.300781L0,0.472656z"/>
    <path transform="matrix(1,0,0,-1,140.074997,-62.1968)" style="stroke:#d0d000;stroke-width:0.05mm;fill:none" d="M-1.105469,-1.753906C-0.677431,-1.708912,-0.32936,-1.38786,-0.25,-0.964844C-0.164122,-0.62114,-0.221961,-0.25718,-0.410156,0.042969C-0.601632,0.311092,-0.912777,0.467395,-1.242188,0.460938C-1.382287,0.461405,-1.521291,0.436251,-1.652344,0.386719C-1.910923,0.27784,-2.110171,0.062936,-2.199219,-0.203125C-2.278128,-0.44534,-2.291601,-0.704024,-2.238281,-0.953125C-2.136544,-1.480637,-1.636701,-1.833974,-1.105469,-1.753906M-4.074219,-0.039063L-2.945313,-1.726563L-2.65625,-1.726563L-2.65625,0.421875L-2.925781,0.421875L-2.925781,-1.261719L-4.054688,0.421875L-4.347656,0.421875L-4.347656,-1.726563L-4.074219,-1.726563L-4.074219,-0.039063M0.445313,-0.769531C0.585934,-0.764977,0.726675,-0.766279,0.867188,-0.773438C1.006038,-0.787345,1.130987,-0.863463,1.207031,-0.980469C1.378337,-1.223467,1.541196,-1.472314,1.695313,-1.726563L2.054688,-1.726563L1.679688,-1.140625C1.613951,-1.036032,1.535196,-0.940214,1.445313,-0.855469C1.39279,-0.812008,1.335053,-0.775266,1.273438,-0.746094C1.444401,-0.735203,1.606122,-0.664709,1.730469,-0.546875C1.943463,-0.302611,1.922676,0.066361,1.683594,0.285156C1.556464,0.376683,1.40265,0.423376,1.246094,0.417969C0.884222,0.429914,0.522104,0.431215,0.160156,0.421875L0.160156,-1.726563L0.445313,-1.726563L0.445313,-0.769531M2.582031,0.101563L3.203125,-1.726563L3.460938,-1.726563L4.082031,0.074219L4.082031,-1.726563L4.355469,-1.726563L4.355469,0.421875L3.976563,0.421875C3.756302,-0.186371,3.546608,-0.798515,3.347656,-1.414063C3.143188,-0.800385,2.939819,-0.191559,2.734375,0.421875L2.308594,0.421875L2.308594,-1.726563L2.582031,-1.726563L2.582031,0.101563M-1.394531,-1.503906C-1.644253,-1.454542,-1.847701,-1.273534,-1.925781,-1.03125C-1.996401,-0.782005,-1.995048,-0.51804,-1.921875,-0.269531C-1.827872,0.026724,-1.548946,0.224362,-1.238281,0.214844C-0.921028,0.221044,-0.640346,0.009726,-0.558594,-0.296875C-0.472251,-0.585487,-0.495906,-0.89578,-0.625,-1.167969C-0.780942,-1.435616,-1.092235,-1.571511,-1.394531,-1.503906M0.445313,-0.523438L0.445313,0.183594C0.708309,0.191683,0.971475,0.19038,1.234375,0.179688C1.39687,0.178285,1.538001,0.067626,1.578125,-0.089844C1.615894,-0.257813,1.521848,-0.427431,1.359375,-0.484375C1.261295,-0.516979,1.157821,-0.530245,1.054688,-0.523438L0.445313,-0.523438"/>
    <path transform="matrix(1,0,0,-1,161.444,-63.903702)" style="stroke:#d0d000;stroke-width:0.05mm;fill:none" d="M3.125,-1.753906C3.609688,-1.699702,3.983074,-1.299765,4.003906,-0.8125C4.05497,-0.468382,3.956952,-0.118927,3.734375,0.148438C3.540472,0.352698,3.269874,0.466037,2.988281,0.460938C2.846954,0.460922,2.706753,0.435791,2.574219,0.386719C2.31785,0.275919,2.120491,0.061522,2.03125,-0.203125C1.952341,-0.44534,1.938868,-0.704024,1.992188,-0.953125C2.093537,-1.480952,2.5936,-1.834445,3.125,-1.753906M-3.621094,-1.074219L-2.722656,-1.074219L-2.472656,-1.726563L-2.148438,-1.726563L-3.027344,0.421875L-3.335938,0.421875L-4.160156,-1.726563L-3.859375,-1.726563L-3.621094,-1.074219M-0.910156,-1.753906C-0.676868,-1.740594,-0.463852,-1.617421,-0.335938,-1.421875C-0.264607,-1.282835,-0.227133,-1.128925,-0.226563,-0.972656L-0.21875,-0.816406L-0.21875,0.421875L-0.503906,0.421875L-0.503906,-0.816406C-0.496502,-0.973519,-0.521778,-1.130495,-0.578125,-1.277344C-0.626011,-1.372727,-0.712941,-1.442556,-0.816406,-1.46875C-1.007057,-1.527817,-1.212442,-1.515328,-1.394531,-1.433594C-1.528482,-1.355985,-1.611659,-1.213395,-1.613281,-1.058594C-1.620569,-0.978064,-1.624479,-0.897266,-1.625,-0.816406L-1.625,0.421875L-1.910156,0.421875L-1.910156,-0.816406C-1.914353,-0.999501,-1.886595,-1.181911,-1.828125,-1.355469C-1.739978,-1.559442,-1.552011,-1.703008,-1.332031,-1.734375C-1.193213,-1.762257,-1.050957,-1.768843,-0.910156,-1.753906M1.078125,0.167969L1.789063,0.167969L1.789063,0.421875L0.085938,0.421875L0.085938,0.167969L0.792969,0.167969L0.792969,-1.726563L1.078125,-1.726563L1.078125,0.167969M2.835938,-1.503906C2.586076,-1.454774,2.382554,-1.2737,2.304688,-1.03125C2.234067,-0.782005,2.235421,-0.51804,2.308594,-0.269531C2.337204,-0.164833,2.392371,-0.0693,2.46875,0.007813C2.737882,0.27075,3.162106,0.289268,3.453125,0.050781C3.612896,-0.100091,3.706899,-0.307739,3.714844,-0.527344C3.740475,-0.74698,3.702522,-0.969278,3.605469,-1.167969C3.449262,-1.435256,3.138149,-1.571072,2.835938,-1.503906M-3.539063,-0.84375C-3.425941,-0.569901,-3.32557,-0.290948,-3.238281,-0.007813L-3.1875,0.195313C-3.07324,-0.15485,-2.948195,-0.501333,-2.8125,-0.84375L-3.539063,-0.84375"/>
    <path transform="matrix(1,0,0,-1,128.526001,-70.4702)" style="stroke:#d0d000;stroke-width:0.05mm;fill:none" d="M3.464844,-1.75C3.772992,-1.707621,4.032868,-1.498818,4.140625,-1.207031L4.191406,-1.042969L3.910156,-0.972656C3.884458,-1.130362,3.804261,-1.274164,3.683594,-1.378906C3.403309,-1.597227,3.001945,-1.557777,2.769531,-1.289063C2.724791,-1.237472,2.690319,-1.177809,2.667969,-1.113281L2.605469,-0.890625C2.567302,-0.667176,2.584743,-0.437768,2.65625,-0.222656C2.744363,0.054267,3.01089,0.235182,3.300781,0.214844C3.534259,0.23124,3.751494,0.093288,3.835938,-0.125L3.875,-0.230469L4.15625,-0.167969C4.077928,0.163635,3.799491,0.410787,3.460938,0.449219C3.138748,0.500974,2.811001,0.396559,2.578125,0.167969C2.418066,-0.009514,2.320668,-0.23449,2.300781,-0.472656C2.258272,-0.816247,2.346076,-1.163282,2.546875,-1.445313C2.691853,-1.625928,2.905676,-1.737796,3.136719,-1.753906C3.245858,-1.765697,3.356017,-1.764385,3.464844,-1.75M5.136719,0.460938L4.925781,0.460938L4.304688,-1.761719L4.515625,-1.761719L5.136719,0.460938M6.453125,-1.753906C6.881441,-1.707696,7.229985,-1.387669,7.3125,-0.964844C7.394348,-0.620533,7.335266,-0.257602,7.148438,0.042969C6.957377,0.311662,6.646026,0.468068,6.316406,0.460938C6.176306,0.461405,6.037302,0.436251,5.90625,0.386719C5.649587,0.27628,5.452138,0.061785,5.363281,-0.203125C5.297988,-0.401896,5.27536,-0.612201,5.296875,-0.820313C5.324109,-1.096601,5.455344,-1.352089,5.664063,-1.535156C5.88481,-1.715352,6.171107,-1.794721,6.453125,-1.753906M-6.296875,-1.714844C-6.10183,-1.707083,-5.916005,-1.629425,-5.773438,-1.496094C-5.615243,-1.323215,-5.516663,-1.104146,-5.492188,-0.871094C-5.468993,-0.703715,-5.471628,-0.533767,-5.5,-0.367188L-5.5625,-0.128906C-5.668443,0.186877,-5.960052,0.403634,-6.292969,0.414063C-6.61309,0.427901,-6.933602,0.430507,-7.253906,0.421875L-7.253906,-1.726563L-6.480469,-1.726563L-6.296875,-1.714844M-4.804688,-0.769531C-4.664066,-0.764977,-4.523325,-0.766279,-4.382813,-0.773438C-4.243962,-0.787345,-4.119013,-0.863463,-4.042969,-0.980469C-3.871663,-1.223467,-3.708804,-1.472314,-3.554688,-1.726563L-3.195313,-1.726563L-3.570313,-1.140625C-3.636049,-1.036033,-3.714804,-0.940214,-3.804688,-0.855469C-3.85721,-0.812008,-3.914947,-0.775266,-3.976563,-0.746094C-3.805599,-0.735203,-3.643878,-0.664709,-3.519531,-0.546875C-3.306537,-0.30261,-3.327324,0.066361,-3.566406,0.285156C-3.693536,0.376683,-3.84735,0.423376,-4.003906,0.417969C-4.365777,0.429914,-4.727896,0.431215,-5.089844,0.421875L-5.089844,-1.726563L-4.804688,-1.726563L-4.804688,-0.769531M-2.601563,0.421875L-2.886719,0.421875L-2.886719,-1.726563L-2.601563,-1.726563L-2.601563,0.421875M-1.792969,-0.75L-0.785156,-0.75L-0.785156,-0.496094L-1.792969,-0.496094L-1.792969,0.167969L-0.628906,0.167969L-0.628906,0.421875L-2.078125,0.421875L-2.078125,-1.726563L-1.792969,-1.726563L-1.792969,-0.75M0.566406,0.167969L1.277344,0.167969L1.277344,0.421875L-0.425781,0.421875L-0.425781,0.167969L0.28125,0.167969L0.28125,-1.726563L0.566406,-1.726563L0.566406,0.167969M6.164063,-1.503906C5.915463,-1.453784,5.713651,-1.272902,5.636719,-1.03125C5.563353,-0.782648,5.563353,-0.518133,5.636719,-0.269531C5.731193,0.026303,6.009888,0.223779,6.320313,0.214844C6.637756,0.221483,6.918616,0.010031,7,-0.296875C7.088027,-0.585406,7.064341,-0.896115,6.933594,-1.167969C6.807961,-1.389522,6.571054,-1.524469,6.316406,-1.519531L6.164063,-1.503906M-4.804688,-0.523438L-4.804688,0.183594C-4.541691,0.191683,-4.278525,0.19038,-4.015625,0.179688C-3.85313,0.178285,-3.711999,0.067626,-3.671875,-0.089844C-3.634106,-0.257813,-3.728152,-0.427431,-3.890625,-0.484375C-3.988705,-0.516979,-4.092179,-0.530245,-4.195313,-0.523438L-4.804688,-0.523438M-6.96875,-1.472656L-6.96875,0.167969L-6.398438,0.167969C-6.285104,0.169327,-6.173269,0.141031,-6.074219,0.085938C-5.890999,-0.04331,-5.780663,-0.252368,-5.777344,-0.476563C-5.755934,-0.66943,-5.7732,-0.864663,-5.828125,-1.050781C-5.85749,-1.152005,-5.911126,-1.244528,-5.984375,-1.320313C-6.076663,-1.404675,-6.195447,-1.454399,-6.320313,-1.460938C-6.536019,-1.478061,-6.752566,-1.481975,-6.96875,-1.472656"/>
    <rect transform="matrix(1,0,0,-1,153.957001,-71.870598)" style="stroke:#d0d000;stroke-width:0.05mm;fill:none" x="-0.25" y="-17.324703" width="0.5" height="34.649406"/>
    <path transform="matrix(1,0,0,-1,57.031898,-101.303001)" style="stroke:#d0d000;stroke-width:0.05mm;fill:none" d="M0.335938,9.035156L-0.328125,9.035156L-0.328125,4.023438L0.335938,4.023438L0.335938,9.035156M0.558594,-4.082031L0.90625,-4.003906L1.222656,-3.871094L1.507813,-3.679688C1.837869,-3.407763,2.078696,-3.04312,2.199219,-2.632813L2.257813,-2.4375L1.59375,-2.269531L1.511719,-2.566406C1.450051,-2.73802,1.361728,-2.898847,1.25,-3.042969L1.074219,-3.222656C0.878912,-3.379953,0.646027,-3.483607,0.398438,-3.523438C0.011141,-3.58559,-0.385777,-3.509526,-0.722656,-3.308594C-0.920067,-3.188069,-1.082875,-3.018533,-1.195313,-2.816406C-1.361548,-2.498053,-1.457463,-2.147696,-1.476563,-1.789063C-1.51604,-1.359198,-1.46684,-0.925708,-1.332031,-0.515625C-1.184019,-0.05553,-0.816209,0.300557,-0.351563,0.433594C-0.027555,0.52567,0.315208,0.528369,0.640625,0.441406C0.918994,0.361551,1.156525,0.178513,1.304688,-0.070313C1.395685,-0.218314,1.467858,-0.377093,1.519531,-0.542969L2.171875,-0.386719C2.108146,-0.170481,2.014814,0.035901,1.894531,0.226563L1.695313,0.476563L1.457031,0.6875L1.1875,0.855469L0.886719,0.976563L0.554688,1.046875C0.222293,1.089792,-0.115098,1.072592,-0.441406,0.996094C-0.744677,0.921364,-1.030116,0.787274,-1.28125,0.601563C-1.445001,0.475646,-1.58858,0.325481,-1.707031,0.15625C-1.895434,-0.117281,-2.028163,-0.425213,-2.097656,-0.75C-2.219458,-1.332973,-2.193947,-1.937184,-2.023438,-2.507813C-1.957452,-2.721287,-1.868383,-2.926932,-1.757813,-3.121094C-1.603637,-3.386738,-1.389631,-3.612782,-1.132813,-3.78125L-0.859375,-3.925781L-0.550781,-4.027344L-0.203125,-4.089844C0.050136,-4.118583,0.305977,-4.115959,0.558594,-4.082031M-1.140625,-10.039063L0.144531,-10.039063C0.447987,-10.046474,0.750852,-10.008287,1.042969,-9.925781C1.259673,-9.868918,1.456843,-9.754127,1.613281,-9.59375L1.789063,-9.363281L1.917969,-9.101563L1.996094,-8.820313C2.020717,-8.658753,2.025962,-8.494832,2.011719,-8.332031C1.97864,-7.994431,1.827909,-7.679141,1.585938,-7.441406C1.376148,-7.263808,1.120062,-7.149992,0.847656,-7.113281C0.595391,-7.077061,0.340776,-7.060087,0.085938,-7.0625L-1.804688,-7.0625L-1.804688,-12.074219L-1.140625,-12.074219L-1.140625,-10.039063M-1.140625,-9.445313L-1.140625,-7.65625C-0.644486,-7.64819,-0.14844,-7.649494,0.347656,-7.660156C0.530171,-7.649164,0.712916,-7.678511,0.882813,-7.746094C1.175558,-7.897543,1.35268,-8.20598,1.335938,-8.535156C1.339455,-8.665905,1.31688,-8.796043,1.269531,-8.917969C1.20239,-9.090464,1.072631,-9.231384,0.90625,-9.3125C0.763494,-9.378521,0.609989,-9.418221,0.453125,-9.429688L0.152344,-9.445313L-1.140625,-9.445313"/>
    <path transform="matrix(1,0,0,-1,128.595993,-53.9226)" style="stroke:#d0d000;stroke-width:0.05mm;fill:none" d="M5.421875,-1.742188C5.520914,-1.717121,5.616633,-1.680407,5.707031,-1.632813C5.965171,-1.479711,6.069066,-1.157972,5.949219,-0.882813C5.84224,-0.697715,5.659595,-0.569293,5.449219,-0.53125C5.257727,-0.485772,5.067577,-0.434979,4.878906,-0.378906C4.787309,-0.361906,4.708952,-0.302413,4.667969,-0.21875C4.61835,-0.099705,4.657166,0.037767,4.761719,0.113281C4.91068,0.19878,5.084345,0.230481,5.253906,0.203125C5.475181,0.194955,5.653775,0.018061,5.664063,-0.203125L5.933594,-0.183594C5.931995,0.066347,5.779077,0.290318,5.546875,0.382813C5.286118,0.486132,4.996114,0.487526,4.734375,0.386719C4.46686,0.288182,4.317963,0.002232,4.390625,-0.273438C4.415183,-0.365779,4.46855,-0.447881,4.542969,-0.507813C4.662352,-0.603575,4.803047,-0.669233,4.953125,-0.699219C5.128632,-0.737011,5.302048,-0.783951,5.472656,-0.839844C5.548744,-0.861158,5.616746,-0.904679,5.667969,-0.964844C5.747612,-1.071899,5.746014,-1.21892,5.664063,-1.324219C5.581515,-1.418397,5.467864,-1.479381,5.34375,-1.496094C5.132134,-1.535571,4.91336,-1.490694,4.734375,-1.371094C4.664278,-1.318621,4.613471,-1.24447,4.589844,-1.160156L4.558594,-1.011719L4.289063,-1.035156C4.292815,-1.355464,4.510395,-1.633838,4.820313,-1.714844C5.016465,-1.76758,5.221747,-1.776911,5.421875,-1.742188M-8.683594,-0.089844C-8.659729,-0.005982,-8.638883,0.078707,-8.621094,0.164063C-8.451874,-0.467434,-8.278778,-1.097363,-8.101563,-1.726563L-7.824219,-1.726563L-7.238281,0.421875L-7.523438,0.421875C-7.659622,-0.119616,-7.79129,-0.66324,-7.917969,-1.207031L-7.964844,-1.425781C-8.007221,-1.169057,-8.063288,-0.914797,-8.132813,-0.664063L-8.441406,0.421875L-8.785156,0.421875L-9.191406,-1.027344C-9.227575,-1.159238,-9.260141,-1.292108,-9.289063,-1.425781C-9.317013,-1.278271,-9.346973,-1.131077,-9.378906,-0.984375L-9.707031,0.421875L-10,0.421875L-9.429688,-1.726563L-9.136719,-1.726563L-8.683594,-0.089844M-6.652344,-1.074219L-5.753906,-1.074219L-5.503906,-1.726563L-5.179688,-1.726563L-6.058594,0.421875L-6.363281,0.421875L-7.1875,-1.726563L-6.886719,-1.726563L-6.652344,-1.074219M-4.65625,-0.769531C-4.514326,-0.764922,-4.372285,-0.766224,-4.230469,-0.773438C-4.092977,-0.788391,-3.969689,-0.864371,-3.894531,-0.980469C-3.719431,-1.221713,-3.55521,-1.47065,-3.402344,-1.726563L-3.046875,-1.726563L-3.421875,-1.140625C-3.497915,-1.006873,-3.601875,-0.890917,-3.726563,-0.800781L-3.828125,-0.746094C-3.65703,-0.73564,-3.49521,-0.665103,-3.371094,-0.546875C-3.153554,-0.30428,-3.174557,0.068531,-3.417969,0.285156C-3.543493,0.37688,-3.6962,0.423655,-3.851563,0.417969C-4.213454,0.429613,-4.575534,0.430914,-4.9375,0.421875L-4.9375,-1.726563L-4.65625,-1.726563L-4.65625,-0.769531M-2.515625,-0.039063L-1.386719,-1.726563L-1.09375,-1.726563L-1.09375,0.421875L-1.367188,0.421875L-1.367188,-1.261719L-2.496094,0.421875L-2.785156,0.421875L-2.785156,-1.726563L-2.515625,-1.726563L-2.515625,-0.039063M0.503906,-0.769531C0.64583,-0.764922,0.787871,-0.766224,0.929688,-0.773438C1.067179,-0.788391,1.190467,-0.86437,1.265625,-0.980469C1.440725,-1.221713,1.604946,-1.47065,1.757813,-1.726563L2.113281,-1.726563L1.738281,-1.140625C1.662242,-1.006873,1.558282,-0.890918,1.433594,-0.800781L1.332031,-0.746094C1.503127,-0.73564,1.664946,-0.665103,1.789063,-0.546875C2.006602,-0.30428,1.985599,0.068531,1.742188,0.285156C1.616663,0.37688,1.463956,0.423655,1.308594,0.417969C0.946702,0.429611,0.584622,0.430912,0.222656,0.421875L0.222656,-1.726563L0.503906,-1.726563L0.503906,-0.769531M3.984375,-1.472656L2.667969,-1.472656L2.667969,-0.742188L3.855469,-0.742188L3.855469,-0.488281L2.667969,-0.488281L2.667969,0.167969L3.933594,0.167969L3.933594,0.421875L2.382813,0.421875L2.382813,-1.726563L3.984375,-1.726563L3.984375,-1.472656M8.003906,-1.472656L6.6875,-1.472656L6.6875,-0.742188L7.875,-0.742188L7.875,-0.488281L6.6875,-0.488281L6.6875,0.167969L7.953125,0.167969L7.953125,0.421875L6.402344,0.421875L6.402344,-1.726563L8.003906,-1.726563L8.003906,-1.472656M9.238281,0.167969L9.949219,0.167969L9.949219,0.421875L8.246094,0.421875L8.246094,0.167969L8.953125,0.167969L8.953125,-1.726563L9.238281,-1.726563L9.238281,0.167969M-6.570313,-0.84375L-6.332031,-0.214844C-6.287699,-0.080022,-6.249897,0.056851,-6.21875,0.195313C-6.105137,-0.155533,-5.978745,-0.502133,-5.839844,-0.84375L-6.570313,-0.84375M-4.65625,-0.523438L-4.65625,0.183594C-4.391953,0.191403,-4.127489,0.190101,-3.863281,0.179688C-3.727186,0.176723,-3.60368,0.098401,-3.542969,-0.023438C-3.483677,-0.167683,-3.524781,-0.333682,-3.644531,-0.433594C-3.711409,-0.480607,-3.78962,-0.508925,-3.871094,-0.515625C-4.132561,-0.530117,-4.39455,-0.532724,-4.65625,-0.523438M0.503906,-0.523438L0.503906,0.183594C0.768203,0.191403,1.032667,0.190101,1.296875,0.179688C1.43297,0.176723,1.556476,0.098401,1.617188,-0.023438C1.67648,-0.167683,1.635375,-0.333682,1.515625,-0.433594C1.448747,-0.480607,1.370537,-0.508925,1.289063,-0.515625C1.027595,-0.530117,0.765606,-0.532724,0.503906,-0.523438"/>
    <path transform="matrix(1,0,0,-1,98.570999,-53.932701)" style="stroke:#d0d000;stroke-width:0.05mm;fill:none" d="M1.386719,0.410156L-1.386719,0.410156L0,-2.359375L1.386719,0.410156z"/>
    <path transform="matrix(1,0,0,-1,0,0)" style="stroke:none;fill:#00e000;fill-rule:evenodd" d="M154.207001,108.011322L153.707001,108.011322L153.707001,129.504684L154.207001,129.504684L154.207001,108.011322z"/>
    <path transform="matrix(1,0,0,-1,0,0)" style="stroke:none;fill:#00e000;fill-rule:evenodd" d="M169.953476,70.729645L168.898788,70.729645L168.898788,72.624176L168.613632,72.624176L168.613632,70.475739L169.953476,70.475739L169.953476,70.729645z"/>
    <path transform="matrix(1,0,0,-1,0,0)" style="stroke:none;fill:#00e000;fill-rule:evenodd" d="M171.840195,72.624176L171.551132,72.624176C171.327194,72.04953,171.112289,71.471237,170.906601,70.889801L170.85582,70.71402C170.822113,70.832474,170.784332,70.949738,170.742538,71.065582L170.183945,72.624176L169.875351,72.624176L170.707382,70.475739L171.000351,70.475739L171.840195,72.624176z"/>
    <path transform="matrix(1,0,0,-1,0,0)" style="stroke:none;fill:#00e000;fill-rule:evenodd" d="M173.433945,70.729645L172.375351,70.729645L172.375351,72.624176L172.094101,72.624176L172.094101,70.475739L173.433945,70.475739L173.433945,70.729645z"/>
    <path transform="matrix(1,0,0,-1,0,0)" style="stroke:none;fill:#00e000;fill-rule:evenodd" d="M153.30838,105.288223L154.651901,105.288223L154.651901,105.624161L153.30838,105.624161L153.30838,106.510872L154.858887,106.510872L154.858887,106.850716L152.929535,106.850716L152.929535,103.98745L153.30838,103.98745L153.30838,105.288223z"/>
    <path transform="matrix(1,0,0,-1,0,0)" style="stroke:none;fill:#00e000;fill-rule:evenodd" d="M154.780777,99.72184L153.370865,99.72184L153.370865,102.249176L152.99202,102.249176L152.99202,99.385902L154.780777,99.385902L154.780777,99.72184z"/>
    <path transform="matrix(1,0,0,-1,0,0)" style="stroke:none;fill:#00e000;fill-rule:evenodd" d="M154.011383,97.647629L153.632538,97.647629L153.632538,94.784355L154.011383,94.784355L154.011383,97.647629z"/>
    <path transform="matrix(1,0,0,-1,0,0)" style="stroke:none;fill:#00e000;fill-rule:evenodd" d="M153.074036,91.456245C153.262802,91.460663,153.45166,91.459366,153.64035,91.452339C153.772583,91.445885,153.89711,91.388512,153.987946,91.292183C154.12793,91.13311,154.253387,90.961884,154.362885,90.780472L154.74173,90.186722L155.218201,90.186722L154.718292,90.964058C154.630463,91.104172,154.525513,91.232765,154.405838,91.34687C154.335831,91.404076,154.258301,91.451393,154.175415,91.487495C154.352631,91.507423,154.523315,91.566109,154.675323,91.65937C155.000336,91.903397,155.082031,92.356178,154.862793,92.698425C154.742767,92.896317,154.531616,93.020973,154.3004,93.030457C154.189117,93.045692,154.076813,93.052223,153.964508,93.049988L152.695206,93.049988L152.695206,90.186722L153.074036,90.186722L153.074036,91.456245M153.074036,91.78437L153.074036,92.733582L153.980133,92.733582C154.14592,92.74543,154.310394,92.698425,154.444901,92.600777C154.577591,92.486038,154.628448,92.302635,154.573792,92.135933C154.50943,91.939087,154.327759,91.804367,154.120743,91.799995C154.043137,91.788895,153.964798,91.783669,153.886398,91.78437L153.074036,91.78437"/>
    <path transform="matrix(1,0,0,-1,0,0)" style="stroke:none;fill:#00e000;fill-rule:evenodd" d="M85.985939,61.43277C86.126564,61.437325,86.267303,61.43602,86.407814,61.428864C86.546562,61.414715,86.671448,61.338638,86.747658,61.221832C86.918961,60.978836,87.081825,60.729988,87.235939,60.475739L87.595314,60.475739L87.220314,61.061676C87.154579,61.166267,87.075821,61.262089,86.985939,61.346832C86.933418,61.390293,86.875679,61.427036,86.814064,61.456207C86.984634,61.468819,87.145752,61.539051,87.271095,61.655426C87.484093,61.899689,87.463303,62.268661,87.22422,62.487457C87.097054,62.578899,86.94326,62.625587,86.78672,62.62027C86.42485,62.632217,86.062729,62.633514,85.700783,62.624176L85.700783,60.475739L85.985939,60.475739L85.985939,61.43277M85.985939,61.678864L85.985939,62.385895C86.248932,62.393982,86.5121,62.392681,86.775002,62.381989C86.937263,62.380085,87.078194,62.269581,87.118752,62.112457C87.156517,61.944489,87.062477,61.774872,86.900002,61.717926C86.801918,61.685322,86.698448,61.672054,86.595314,61.678864L85.985939,61.678864"/>
    <path transform="matrix(1,0,0,-1,0,0)" style="stroke:none;fill:#00e000;fill-rule:evenodd" d="M88.626564,62.37027L89.337502,62.37027L89.337502,62.624176L87.634377,62.624176L87.634377,62.37027L88.341408,62.37027L88.341408,60.475739L88.626564,60.475739L88.626564,62.37027z"/>
    <path transform="matrix(1,0,0,-1,0,0)" style="stroke:none;fill:#00e000;fill-rule:evenodd" d="M89.927345,62.163239L91.052345,60.475739L91.345314,60.475739L91.345314,62.624176L91.071877,62.624176L91.071877,60.940582L89.946877,62.624176L89.653908,62.624176L89.653908,60.475739L89.927345,60.475739L89.927345,62.163239z"/>
    <path transform="matrix(1,0,0,-1,0,0)" style="stroke:none;fill:#00e000;fill-rule:evenodd" d="M159.225494,78.692116C159.468002,78.742287,159.694626,78.850906,159.885651,79.008522L159.885651,79.805397L158.975494,79.805397L158.975494,79.551491L159.604401,79.551491L159.604401,79.153053C159.345032,78.938957,158.993484,78.873962,158.674713,78.981178C158.430344,79.06205,158.252106,79.273514,158.213776,79.528053C158.168198,79.760773,158.188477,80.001556,158.272369,80.223366C158.359436,80.443268,158.5578,80.599869,158.791901,80.633522C158.902939,80.652962,159.016388,80.654282,159.127838,80.637428C159.221649,80.619308,159.310745,80.582077,159.389557,80.528053C159.493271,80.438271,159.565735,80.31797,159.596588,80.184303L159.850494,80.254616L159.784088,80.453835C159.746201,80.534935,159.694672,80.608925,159.631744,80.672585C159.562881,80.736313,159.481796,80.7855,159.393463,80.817116C159.027527,80.959114,158.615173,80.910858,158.291901,80.68821C158.067978,80.494827,157.929153,80.221382,157.905182,79.926491C157.867554,79.629143,157.938263,79.328293,158.104401,79.078835C158.321518,78.811508,158.650818,78.661301,158.995026,78.672585L159.225494,78.692116z"/>
    <path transform="matrix(1,0,0,-1,0,0)" style="stroke:none;fill:#00e000;fill-rule:evenodd" d="M160.612213,79.360085L161.510651,79.360085L161.760651,78.707741L162.084869,78.707741L161.205963,80.856178L160.897369,80.856178L160.073151,78.707741L160.373932,78.707741L160.612213,79.360085M160.694244,79.590553C160.807373,79.864403,160.90773,80.143356,160.995026,80.426491L161.045807,80.629616C161.160065,80.279457,161.28511,79.932968,161.420807,79.590553L160.694244,79.590553"/>
    <path transform="matrix(1,0,0,-1,0,0)" style="stroke:none;fill:#00e000;fill-rule:evenodd" d="M162.651276,80.856178L162.366119,80.856178L162.366119,78.707741L162.651276,78.707741L162.651276,80.856178z"/>
    <path transform="matrix(1,0,0,-1,0,0)" style="stroke:none;fill:#00e000;fill-rule:evenodd" d="M163.428619,80.395241L164.557526,78.707741L164.846588,78.707741L164.846588,80.856178L164.577057,80.856178L164.577057,79.172585L163.448151,80.856178L163.155182,80.856178L163.155182,78.707741L163.428619,78.707741L163.428619,80.395241z"/>
    <path transform="matrix(1,0,0,-1,0,0)" style="stroke:none;fill:#00e000;fill-rule:evenodd" d="M106.867844,60.519012C106.966125,60.542542,107.060738,60.579338,107.149094,60.628387C107.407562,60.781277,107.51152,61.103207,107.391281,61.378387C107.285797,61.564751,107.102341,61.693741,106.891281,61.72995C106.70005,61.776463,106.509933,61.827248,106.320969,61.882294C106.229607,61.899746,106.15139,61.959141,106.110031,62.04245C106.091087,62.096302,106.085716,62.153996,106.094406,62.210419C106.133026,62.33157,106.235016,62.421558,106.360031,62.444794C106.534668,62.493229,106.720711,62.480827,106.887375,62.409637C107.015862,62.33773,107.098381,62.205112,107.106125,62.058075L107.379562,62.077606C107.376846,62.327084,107.224213,62.550648,106.992844,62.644012C106.730728,62.747269,106.439529,62.748661,106.176437,62.647919C105.910919,62.546825,105.763268,62.26326,105.832687,61.987762C105.906921,61.789997,106.075745,61.643188,106.281906,61.597137C106.494499,61.54467,106.705521,61.486053,106.914719,61.421356C106.990807,61.400043,107.058807,61.356522,107.110031,61.296356C107.189674,61.189301,107.188072,61.042278,107.106125,60.936981C107.062347,60.872597,106.997383,60.8256,106.922531,60.804169C106.674614,60.710316,106.396523,60.742348,106.176437,60.890106C106.072014,60.981514,106.008713,61.110935,106.000656,61.249481L105.731125,61.226044C105.739639,60.861488,106.017105,60.558952,106.379562,60.519012C106.541252,60.492622,106.706154,60.492622,106.867844,60.519012z"/>
    <path transform="matrix(1,0,0,-1,0,0)" style="stroke:none;fill:#00e000;fill-rule:evenodd" d="M111.8405,60.565887C111.712814,60.619499,111.591064,60.686264,111.477219,60.765106C111.584129,60.869621,111.666779,60.996258,111.719406,61.1362L111.781906,61.358856C111.821495,61.59132,111.80407,61.829926,111.731125,62.054169C111.595734,62.464413,111.205856,62.73653,110.774094,62.722137C110.446945,62.73222,110.136215,62.57832,109.945969,62.311981C109.678177,61.884098,109.678177,61.341427,109.945969,60.913544C110.196724,60.570148,110.63443,60.419052,111.043625,60.534637C111.132523,60.554802,111.218033,60.587692,111.297531,60.632294C111.435539,60.520004,111.591324,60.431549,111.758469,60.370575L111.8405,60.565887M110.62175,60.757294C110.370316,60.808659,110.166786,60.992737,110.0905,61.237762C110.021812,61.483089,110.021812,61.742435,110.0905,61.987762C110.182861,62.287212,110.464836,62.48748,110.778,62.476044C111.095253,62.482243,111.375938,62.270927,111.457687,61.964325C111.529381,61.717514,111.525299,61.454884,111.445969,61.210419C111.407295,61.101677,111.342979,61.003864,111.258469,60.925262C111.138062,61.019566,110.999908,61.088646,110.852219,61.128387L110.781906,60.921356C110.882294,60.898605,110.977638,60.857555,111.063156,60.800262C110.923813,60.741394,110.769836,60.726406,110.62175,60.757294"/>
    <path transform="matrix(1,0,0,-1,0,0)" style="stroke:none;fill:#00e000;fill-rule:evenodd" d="M109.445969,60.788544L108.129562,60.788544L108.129562,61.519012L109.317062,61.519012L109.317062,61.772919L108.129562,61.772919L108.129562,62.429169L109.399094,62.429169L109.399094,62.683075L107.844406,62.683075L107.844406,60.534637L109.445969,60.534637L109.445969,60.788544z"/>
    <path transform="matrix(1,0,0,-1,0,0)" style="stroke:none;fill:#00e000;fill-rule:evenodd" d="M98.570999,71.549957L97.18428,68.77652L99.957718,68.77652L98.570999,71.549957z"/>
    <path transform="matrix(1,0,0,-1,0,0)" style="stroke:none;fill:#00e000;fill-rule:evenodd" d="M138.969528,60.442894C139.397568,60.487888,139.745636,60.808941,139.824997,61.231956C139.910873,61.575661,139.853043,61.939621,139.664841,62.239769C139.473358,62.507893,139.162216,62.664196,138.832809,62.657738C138.692703,62.658203,138.553711,62.633053,138.422653,62.583519C138.164078,62.47464,137.964828,62.259735,137.875778,61.993675C137.796875,61.751461,137.783401,61.492775,137.836716,61.243675C137.938446,60.716164,138.438293,60.362827,138.969528,60.442894M138.680466,60.692894C138.43074,60.742256,138.227295,60.923267,138.149216,61.16555C138.078598,61.414795,138.079956,61.678761,138.153122,61.927269C138.247131,62.223522,138.526047,62.421162,138.836716,62.411644C139.153961,62.417843,139.434647,62.206528,139.516403,61.899925C139.602753,61.611313,139.579086,61.301022,139.449997,61.028831C139.294052,60.761185,138.982758,60.62529,138.680466,60.692894"/>
    <path transform="matrix(1,0,0,-1,0,0)" style="stroke:none;fill:#00e000;fill-rule:evenodd" d="M136.000778,62.157738L137.129684,60.470238L137.418747,60.470238L137.418747,62.618675L137.149216,62.618675L137.149216,60.935081L136.020309,62.618675L135.727341,62.618675L135.727341,60.470238L136.000778,60.470238L136.000778,62.157738z"/>
    <path transform="matrix(1,0,0,-1,0,0)" style="stroke:none;fill:#00e000;fill-rule:evenodd" d="M140.520309,61.427269C140.660934,61.431824,140.801666,61.430519,140.942184,61.423363C141.081039,61.409454,141.205978,61.333336,141.282028,61.216331C141.453339,60.973335,141.616196,60.724487,141.770309,60.470238L142.129684,60.470238L141.754684,61.056175C141.68895,61.160767,141.610199,61.256588,141.520309,61.341331C141.467789,61.384792,141.410049,61.421535,141.348434,61.450706C141.519394,61.461597,141.681122,61.532089,141.805466,61.649925C142.018463,61.894188,141.997665,62.263161,141.758591,62.481956C141.631454,62.573483,141.477646,62.620178,141.321091,62.614769C140.959213,62.626717,140.597107,62.628014,140.235153,62.618675L140.235153,60.470238L140.520309,60.470238L140.520309,61.427269M140.520309,61.673363L140.520309,62.380394C140.78331,62.388481,141.046478,62.38718,141.309372,62.376488C141.471863,62.375084,141.612991,62.264427,141.653122,62.106956C141.690887,61.938988,141.596848,61.769371,141.434372,61.712425C141.336288,61.679821,141.232819,61.666553,141.129684,61.673363L140.520309,61.673363"/>
    <path transform="matrix(1,0,0,-1,0,0)" style="stroke:none;fill:#00e000;fill-rule:evenodd" d="M142.657028,62.298363L143.278122,60.470238L143.535934,60.470238L144.157028,62.271019L144.157028,60.470238L144.430466,60.470238L144.430466,62.618675L144.051559,62.618675C143.831299,62.010429,143.621613,61.398285,143.422653,60.782738C143.218185,61.396416,143.014816,62.005241,142.809372,62.618675L142.383591,62.618675L142.383591,60.470238L142.657028,60.470238L142.657028,62.298363z"/>
    <path transform="matrix(1,0,0,-1,0,0)" style="stroke:none;fill:#00e000;fill-rule:evenodd" d="M164.569,62.149796C165.053696,62.203999,165.427078,62.603939,165.447906,63.091202C165.498962,63.435318,165.400955,63.784775,165.178375,64.052139C164.984467,64.256401,164.713867,64.369736,164.432281,64.364639C164.290955,64.364624,164.150757,64.339493,164.018219,64.290421C163.761856,64.179619,163.564484,63.965225,163.47525,63.700577C163.396347,63.458363,163.382874,63.199677,163.436188,62.950577C163.537537,62.422749,164.037598,62.069256,164.569,62.149796M164.279938,62.399796C164.030075,62.448929,163.826553,62.630001,163.748688,62.872452C163.67807,63.121696,163.679428,63.385662,163.752594,63.634171C163.781204,63.738869,163.836365,63.8344,163.91275,63.911514C164.181885,64.174454,164.60611,64.19297,164.897125,63.954483C165.0569,63.803612,165.150894,63.595963,165.158844,63.376358C165.184479,63.156723,165.146515,62.934425,165.049469,62.735733C164.893265,62.468445,164.582153,62.33263,164.279938,62.399796"/>
    <path transform="matrix(1,0,0,-1,0,0)" style="stroke:none;fill:#00e000;fill-rule:evenodd" d="M157.822906,62.829483L158.721344,62.829483L158.971344,62.177139L159.295563,62.177139L158.416656,64.325577L158.108063,64.325577L157.283844,62.177139L157.584625,62.177139L157.822906,62.829483M157.904938,63.059952C158.018066,63.333801,158.118423,63.612755,158.205719,63.895889L158.2565,64.099014C158.370758,63.748852,158.495804,63.40237,158.6315,63.059952L157.904938,63.059952"/>
    <path transform="matrix(1,0,0,-1,0,0)" style="stroke:none;fill:#00e000;fill-rule:evenodd" d="M160.533844,62.149796C160.767136,62.163109,160.980148,62.286282,161.108063,62.481827C161.179398,62.620869,161.216873,62.774776,161.217438,62.931046L161.22525,63.087296L161.22525,64.325577L160.940094,64.325577L160.940094,63.087296C160.947495,62.930183,160.922226,62.773209,160.865875,62.626358C160.817993,62.530975,160.731064,62.461147,160.627594,62.434952C160.436951,62.375885,160.231552,62.388374,160.049469,62.470108C159.915512,62.547718,159.832336,62.690308,159.830719,62.845108C159.823425,62.925636,159.819519,63.006435,159.819,63.087296L159.819,64.325577L159.533844,64.325577L159.533844,63.087296C159.529648,62.904202,159.557404,62.72179,159.615875,62.548233C159.704025,62.344261,159.891983,62.200695,160.111969,62.169327C160.250793,62.141445,160.393036,62.134857,160.533844,62.149796z"/>
    <path transform="matrix(1,0,0,-1,0,0)" style="stroke:none;fill:#00e000;fill-rule:evenodd" d="M162.522125,64.071671L163.233063,64.071671L163.233063,64.325577L161.529938,64.325577L161.529938,64.071671L162.236969,64.071671L162.236969,62.177139L162.522125,62.177139L162.522125,64.071671z"/>
    <path transform="matrix(1,0,0,-1,0,0)" style="stroke:none;fill:#00e000;fill-rule:evenodd" d="M131.990845,68.7202C132.298996,68.762581,132.558868,68.971382,132.666626,69.263168L132.717407,69.427231L132.436157,69.497543C132.410461,69.339836,132.330261,69.196037,132.209595,69.091293C131.929306,68.872971,131.527939,68.912422,131.295532,69.181137C131.250793,69.232727,131.216324,69.292389,131.19397,69.356918L131.13147,69.579575C131.093307,69.803024,131.110748,70.032433,131.182251,70.247543C131.27037,70.524467,131.536896,70.705383,131.826782,70.685043C132.060257,70.701439,132.277496,70.563484,132.361938,70.3452L132.401001,70.239731L132.682251,70.302231C132.603928,70.633835,132.325485,70.880989,131.986938,70.919418C131.664749,70.971176,131.337006,70.86676,131.104126,70.638168C130.944061,70.460686,130.846664,70.23571,130.826782,69.997543C130.784271,69.653954,130.87207,69.306915,131.072876,69.024887C131.21785,68.844269,131.431671,68.732407,131.66272,68.716293C131.771866,68.704506,131.882019,68.705811,131.990845,68.7202z"/>
    <path transform="matrix(1,0,0,-1,0,0)" style="stroke:none;fill:#00e000;fill-rule:evenodd" d="M133.66272,70.931137L133.451782,70.931137L132.830688,68.708481L133.041626,68.708481L133.66272,70.931137z"/>
    <path transform="matrix(1,0,0,-1,0,0)" style="stroke:none;fill:#00e000;fill-rule:evenodd" d="M134.979126,68.716293C135.40744,68.762505,135.755981,69.082527,135.838501,69.505356C135.920349,69.84967,135.861267,70.212601,135.674438,70.513168C135.483383,70.78186,135.172028,70.938271,134.842407,70.931137C134.702301,70.931602,134.563309,70.906448,134.432251,70.856918C134.175583,70.746483,133.978134,70.531982,133.889282,70.267075C133.82399,70.068306,133.801361,69.858002,133.822876,69.649887C133.850113,69.373596,133.981339,69.118111,134.190063,68.935043C134.410812,68.754845,134.697113,68.675476,134.979126,68.716293M134.690063,68.966293C134.441467,69.016418,134.239655,69.197296,134.16272,69.43895C134.089355,69.687553,134.089355,69.952065,134.16272,70.200668C134.257187,70.496506,134.535889,70.693977,134.846313,70.685043C135.163757,70.691681,135.444611,70.480232,135.526001,70.173325C135.614029,69.884796,135.590347,69.574081,135.459595,69.302231C135.333969,69.080681,135.097061,68.945732,134.842407,68.950668L134.690063,68.966293"/>
    <path transform="matrix(1,0,0,-1,0,0)" style="stroke:none;fill:#00e000;fill-rule:evenodd" d="M122.229126,68.755356C122.424171,68.763115,122.609993,68.840775,122.752563,68.974106C122.910759,69.146988,123.009338,69.366051,123.033813,69.599106C123.057007,69.766487,123.054375,69.936432,123.026001,70.103012L122.963501,70.341293C122.857559,70.657074,122.565948,70.873833,122.233032,70.884262C121.91291,70.898102,121.5924,70.900703,121.272095,70.892075L121.272095,68.743637L122.045532,68.743637L122.229126,68.755356M121.557251,68.997543L121.557251,70.638168L122.127563,70.638168C122.240898,70.639526,122.35273,70.611229,122.451782,70.556137C122.635002,70.426888,122.745338,70.217834,122.748657,69.993637C122.770065,69.800766,122.7528,69.605537,122.697876,69.419418C122.66851,69.318192,122.614876,69.22567,122.541626,69.149887C122.449341,69.065521,122.330551,69.0158,122.205688,69.009262C121.989983,68.992142,121.773438,68.988228,121.557251,68.997543"/>
    <path transform="matrix(1,0,0,-1,0,0)" style="stroke:none;fill:#00e000;fill-rule:evenodd" d="M123.721313,69.700668C123.861938,69.705223,124.002678,69.703918,124.143188,69.696762C124.282036,69.682854,124.40699,69.606735,124.483032,69.489731C124.654335,69.246735,124.8172,68.997887,124.971313,68.743637L125.330688,68.743637L124.955688,69.329575C124.889954,69.434166,124.811195,69.529984,124.721313,69.614731C124.668793,69.658195,124.611053,69.694931,124.549438,69.724106C124.720398,69.734993,124.882126,69.805489,125.00647,69.923325C125.219467,70.167587,125.198677,70.53656,124.959595,70.755356C124.832466,70.846886,124.67865,70.893578,124.522095,70.888168C124.160225,70.900116,123.798103,70.901413,123.436157,70.892075L123.436157,68.743637L123.721313,68.743637L123.721313,69.700668M123.721313,69.946762L123.721313,70.653793C123.984306,70.66188,124.247475,70.660583,124.510376,70.649887C124.672867,70.648483,124.814003,70.537827,124.854126,70.380356C124.891891,70.212387,124.797852,70.04277,124.635376,69.985825C124.537292,69.953224,124.433823,69.939957,124.330688,69.946762L123.721313,69.946762"/>
    <path transform="matrix(1,0,0,-1,0,0)" style="stroke:none;fill:#00e000;fill-rule:evenodd" d="M125.924438,70.892075L125.639282,70.892075L125.639282,68.743637L125.924438,68.743637L125.924438,70.892075z"/>
    <path transform="matrix(1,0,0,-1,0,0)" style="stroke:none;fill:#00e000;fill-rule:evenodd" d="M126.733032,69.7202L127.740845,69.7202L127.740845,69.974106L126.733032,69.974106L126.733032,70.638168L127.897095,70.638168L127.897095,70.892075L126.447876,70.892075L126.447876,68.743637L126.733032,68.743637L126.733032,69.7202z"/>
    <path transform="matrix(1,0,0,-1,0,0)" style="stroke:none;fill:#00e000;fill-rule:evenodd" d="M129.092407,70.638168L129.803345,70.638168L129.803345,70.892075L128.10022,70.892075L128.10022,70.638168L128.807251,70.638168L128.807251,68.743637L129.092407,68.743637L129.092407,70.638168z"/>
    <path transform="matrix(1,0,0,-1,0,0)" style="stroke:none;fill:#00e000;fill-rule:evenodd" d="M154.207001,54.545895L153.707001,54.545895L153.707001,89.195297L154.207001,89.195297L154.207001,54.545895z"/>
    <path transform="matrix(1,0,0,-1,0,0)" style="stroke:none;fill:#00e000;fill-rule:evenodd" d="M57.367836,110.338158L56.703773,110.338158L56.703773,105.326439L57.367836,105.326439L57.367836,110.338158z"/>
    <path transform="matrix(1,0,0,-1,0,0)" style="stroke:none;fill:#00e000;fill-rule:evenodd" d="M57.590492,97.22097L57.938148,97.299095L58.254555,97.431908L58.539711,97.623314C58.869766,97.895241,59.110596,98.25988,59.231117,98.670189L59.289711,98.865501L58.625648,99.03347L58.543617,98.736595C58.481949,98.56498,58.393627,98.404152,58.281898,98.260033L58.106117,98.080345C57.910809,97.92305,57.677925,97.819397,57.430336,97.779564C57.043041,97.717407,56.646122,97.793472,56.309242,97.994408C56.111832,98.114929,55.949024,98.28447,55.836586,98.486595C55.670349,98.804947,55.574436,99.155304,55.555336,99.513939C55.515858,99.943802,55.56506,100.377296,55.699867,100.787376C55.847881,101.247475,56.215691,101.603561,56.680336,101.736595C57.004345,101.828674,57.347107,101.831367,57.672523,101.744408C57.950893,101.664551,58.188423,101.481514,58.336586,101.232689C58.427586,101.084686,58.499756,100.925911,58.55143,100.760033L59.203773,100.916283C59.140045,101.132523,59.046711,101.338905,58.92643,101.529564L58.727211,101.779564L58.48893,101.990501L58.219398,102.15847L57.918617,102.279564L57.586586,102.349876C57.254192,102.392792,56.916801,102.375595,56.590492,102.299095C56.28722,102.224365,56.001781,102.090279,55.750648,101.904564C55.586899,101.778648,55.443317,101.628479,55.324867,101.459251C55.136463,101.185722,55.003735,100.877785,54.934242,100.553001C54.812439,99.970032,54.837952,99.365814,55.008461,98.795189C55.074448,98.581711,55.163517,98.376068,55.274086,98.181908C55.428261,97.91626,55.642269,97.690216,55.899086,97.521751L56.172523,97.37722L56.481117,97.275658L56.828773,97.213158C57.082035,97.184418,57.337875,97.187042,57.590492,97.22097z"/>
    <path transform="matrix(1,0,0,-1,0,0)" style="stroke:none;fill:#00e000;fill-rule:evenodd" d="M55.891273,91.263939L57.17643,91.263939C57.479885,91.256531,57.782749,91.294716,58.074867,91.37722C58.291573,91.434082,58.488743,91.548874,58.64518,91.709251L58.820961,91.93972L58.949867,92.201439L59.027992,92.482689C59.052616,92.644249,59.057861,92.808167,59.043617,92.97097C59.01054,93.308571,58.859806,93.623863,58.617836,93.861595C58.408047,94.039192,58.151962,94.153008,57.879555,94.18972C57.627289,94.225937,57.372673,94.242912,57.117836,94.240501L55.227211,94.240501L55.227211,89.228783L55.891273,89.228783L55.891273,91.263939M55.891273,91.857689L55.891273,93.646751C56.387413,93.654816,56.883457,93.653503,57.379555,93.642845C57.562069,93.653839,57.744816,93.624489,57.914711,93.556908C58.207458,93.405457,58.384579,93.097023,58.367836,92.767845C58.371353,92.6371,58.348778,92.506958,58.30143,92.385033C58.234287,92.21254,58.10453,92.071617,57.938148,91.990501C57.795395,91.924484,57.641888,91.884781,57.485023,91.873314L57.184242,91.857689L55.891273,91.857689"/>
    <path transform="matrix(1,0,0,-1,0,0)" style="stroke:none;fill:#00e000;fill-rule:evenodd" d="M134.017868,52.180412C134.116913,52.205479,134.212631,52.242191,134.303024,52.289787C134.561157,52.44289,134.665054,52.764629,134.545212,53.039787C134.438232,53.224884,134.255585,53.353306,134.045212,53.39135C133.853714,53.436829,133.663574,53.487621,133.474899,53.543694C133.383301,53.560696,133.304947,53.620186,133.263962,53.70385C133.21434,53.822895,133.253159,53.960365,133.357712,54.035881C133.506668,54.12138,133.680344,54.15308,133.849899,54.125725C134.071167,54.117554,134.249771,53.940662,134.260056,53.719475L134.529587,53.739006C134.527985,53.988945,134.375076,54.212917,134.142868,54.305412C133.882111,54.40873,133.592102,54.410126,133.330368,54.309319C133.062851,54.210781,132.913956,53.924831,132.986618,53.649162C133.011169,53.55682,133.064545,53.47472,133.138962,53.414787C133.258347,53.319023,133.399033,53.253368,133.549118,53.223381C133.724625,53.185589,133.898041,53.138649,134.068649,53.082756C134.14473,53.061443,134.212738,53.017921,134.263962,52.957756C134.343597,52.8507,134.34201,52.703678,134.260056,52.598381C134.177505,52.504204,134.063858,52.443218,133.939743,52.426506C133.728134,52.387028,133.509354,52.431908,133.330368,52.551506C133.260269,52.603977,133.209457,52.678131,133.185837,52.762444L133.154587,52.910881L132.885056,52.887444C132.888809,52.567135,133.106384,52.288761,133.416306,52.207756C133.612457,52.155022,133.817734,52.145691,134.017868,52.180412z"/>
    <path transform="matrix(1,0,0,-1,0,0)" style="stroke:none;fill:#00e000;fill-rule:evenodd" d="M119.912399,53.832756C119.936264,53.916618,119.957108,54.001308,119.974899,54.086662C120.144119,53.455166,120.317215,52.825237,120.494431,52.196037L120.771774,52.196037L121.357712,54.344475L121.072556,54.344475C120.936371,53.802986,120.804703,53.259361,120.678024,52.715569L120.631149,52.496819C120.588776,52.753544,120.532707,53.007801,120.463181,53.258537L120.154587,54.344475L119.810837,54.344475L119.404587,52.895256C119.368416,52.763363,119.335854,52.630493,119.306931,52.496819C119.278976,52.644329,119.249023,52.791523,119.217087,52.938225L118.888962,54.344475L118.595993,54.344475L119.166306,52.196037L119.459274,52.196037L119.912399,53.832756z"/>
    <path transform="matrix(1,0,0,-1,0,0)" style="stroke:none;fill:#00e000;fill-rule:evenodd" d="M121.943649,52.848381L122.842087,52.848381L123.092087,52.196037L123.416306,52.196037L122.537399,54.344475L122.232712,54.344475L121.408493,52.196037L121.709274,52.196037L121.943649,52.848381M122.025681,53.07885L122.263962,53.707756C122.308296,53.842579,122.3461,53.97945,122.377243,54.117912C122.49086,53.767067,122.617249,53.420467,122.756149,53.07885L122.025681,53.07885"/>
    <path transform="matrix(1,0,0,-1,0,0)" style="stroke:none;fill:#00e000;fill-rule:evenodd" d="M123.939743,53.153069C124.081665,53.157677,124.223709,53.156376,124.365524,53.149162C124.503014,53.134209,124.626305,53.058228,124.701462,52.942131C124.876564,52.700886,125.040787,52.45195,125.193649,52.196037L125.549118,52.196037L125.174118,52.781975C125.098076,52.915726,124.994118,53.031681,124.869431,53.121819L124.767868,53.176506C124.938965,53.186958,125.100784,53.257496,125.224899,53.375725C125.442436,53.61832,125.421432,53.991131,125.178024,54.207756C125.052498,54.29948,124.899796,54.346256,124.744431,54.340569C124.382538,54.352211,124.020462,54.353516,123.658493,54.344475L123.658493,52.196037L123.939743,52.196037L123.939743,53.153069M123.939743,53.399162L123.939743,54.106194C124.204041,54.114002,124.468506,54.112701,124.732712,54.102287C124.868805,54.099323,124.99231,54.021,125.053024,53.899162C125.11232,53.754917,125.071213,53.588917,124.951462,53.489006C124.884583,53.441994,124.806374,53.413673,124.724899,53.406975C124.463432,53.392483,124.201447,53.389877,123.939743,53.399162"/>
    <path transform="matrix(1,0,0,-1,0,0)" style="stroke:none;fill:#00e000;fill-rule:evenodd" d="M126.080368,53.883537L127.209274,52.196037L127.502243,52.196037L127.502243,54.344475L127.228806,54.344475L127.228806,52.660881L126.099899,54.344475L125.810837,54.344475L125.810837,52.196037L126.080368,52.196037L126.080368,53.883537z"/>
    <path transform="matrix(1,0,0,-1,0,0)" style="stroke:none;fill:#00e000;fill-rule:evenodd" d="M129.099899,53.153069C129.241821,53.157677,129.383865,53.156376,129.525681,53.149162C129.663177,53.134209,129.786453,53.058228,129.861618,52.942131C130.036713,52.700886,130.200943,52.45195,130.353806,52.196037L130.709274,52.196037L130.334274,52.781975C130.25824,52.915726,130.154282,53.031681,130.029587,53.121819L129.928024,53.176506C130.099121,53.186958,130.260941,53.257496,130.385056,53.375725C130.6026,53.61832,130.581589,53.991131,130.338181,54.207756C130.212662,54.29948,130.059952,54.346256,129.904587,54.340569C129.542694,54.352211,129.180618,54.353512,128.818649,54.344475L128.818649,52.196037L129.099899,52.196037L129.099899,53.153069M129.099899,53.399162L129.099899,54.106194C129.364197,54.114002,129.628662,54.112701,129.892868,54.102287C130.028961,54.099323,130.152466,54.021,130.213181,53.899162C130.272476,53.754917,130.231369,53.588917,130.111618,53.489006C130.044739,53.441994,129.966522,53.413673,129.885056,53.406975C129.623581,53.392483,129.361603,53.389877,129.099899,53.399162"/>
    <path transform="matrix(1,0,0,-1,0,0)" style="stroke:none;fill:#00e000;fill-rule:evenodd" d="M132.580368,52.449944L131.263962,52.449944L131.263962,53.180412L132.451462,53.180412L132.451462,53.434319L131.263962,53.434319L131.263962,54.090569L132.529587,54.090569L132.529587,54.344475L130.978806,54.344475L130.978806,52.196037L132.580368,52.196037L132.580368,52.449944z"/>
    <path transform="matrix(1,0,0,-1,0,0)" style="stroke:none;fill:#00e000;fill-rule:evenodd" d="M136.599899,52.449944L135.283493,52.449944L135.283493,53.180412L136.470993,53.180412L136.470993,53.434319L135.283493,53.434319L135.283493,54.090569L136.549118,54.090569L136.549118,54.344475L134.998337,54.344475L134.998337,52.196037L136.599899,52.196037L136.599899,52.449944z"/>
    <path transform="matrix(1,0,0,-1,0,0)" style="stroke:none;fill:#00e000;fill-rule:evenodd" d="M137.834274,54.090569L138.545212,54.090569L138.545212,54.344475L136.842087,54.344475L136.842087,54.090569L137.549118,54.090569L137.549118,52.196037L137.834274,52.196037L137.834274,54.090569z"/>
    <path transform="matrix(1,0,0,-1,0,0)" style="stroke:none;fill:#00e000;fill-rule:evenodd" d="M99.957718,54.342857L97.18428,54.342857L98.570999,51.573326L99.957718,54.342857z"/>
</svg>
