<?xml version="1.0" encoding="UTF-8"?>
<svg xmlns="http://www.w3.org/2000/svg" width="127.000mm" height="109.100mm" viewBox="60.979725 -152.459549 127.000000 109.099998">
    <rect transform="matrix(1,0,0,-1,163.865723,-116.667549)" style="stroke:#d0d000;stroke-width:0.05mm;fill:none" x="-0.25" y="-10.746679" width="0.5" height="21.493359"/>
    <path transform="matrix(1,0,0,-1,180.881744,-70.111847)" style="stroke:#d0d000;stroke-width:0.05mm;fill:none" d="M-1.019531,-1.472656L-2.074219,-1.472656L-2.074219,0.421875L-2.359375,0.421875L-2.359375,-1.726563L-1.019531,-1.726563L-1.019531,-1.472656M0.867188,0.421875L0.578125,0.421875C0.354191,-0.152775,0.139286,-0.731068,-0.066406,-1.3125L-0.117188,-1.488281C-0.150887,-1.36983,-0.188674,-1.252563,-0.230469,-1.136719L-0.789063,0.421875L-1.097656,0.421875L-0.265625,-1.726563L0.027344,-1.726563L0.867188,0.421875M2.460938,-1.472656L1.402344,-1.472656L1.402344,0.421875L1.121094,0.421875L1.121094,-1.726563L2.460938,-1.726563L2.460938,-1.472656"/>
    <path transform="matrix(0.999829,0,0,-0.999996,163.728729,-97.295448)" style="stroke:#d0d000;stroke-width:0.05mm;fill:none" d="M-0.511719,5.902344L0.832031,5.902344L0.832031,6.238281L-0.511719,6.238281L-0.511719,7.125L1.039063,7.125L1.039063,7.464844L-0.890625,7.464844L-0.890625,4.601563L-0.511719,4.601563L-0.511719,5.902344M0.960938,0.335938L-0.449219,0.335938L-0.449219,2.863281L-0.828125,2.863281L-0.828125,0L0.960938,0L0.960938,0.335938M0.191406,-1.738281L-0.1875,-1.738281L-0.1875,-4.601563L0.191406,-4.601563L0.191406,-1.738281M-0.746094,-7.929688C-0.557293,-7.925269,-0.368411,-7.926572,-0.179688,-7.933594C-0.047432,-7.940047,0.077116,-7.997423,0.167969,-8.09375C0.307971,-8.252823,0.433454,-8.424055,0.542969,-8.605469L0.921875,-9.199219L1.398438,-9.199219L0.898438,-8.421875C0.810601,-8.281768,0.705623,-8.153171,0.585938,-8.039063C0.515914,-7.981858,0.438367,-7.934541,0.355469,-7.898438C0.532716,-7.878508,0.703431,-7.819825,0.855469,-7.726563C1.180536,-7.482534,1.262241,-7.029755,1.042969,-6.6875C0.922921,-6.489614,0.711727,-6.364951,0.480469,-6.355469C0.369167,-6.340237,0.256849,-6.333707,0.144531,-6.335938L-1.125,-6.335938L-1.125,-9.199219L-0.746094,-9.199219L-0.746094,-7.929688M-0.746094,-7.601563L-0.746094,-6.652344L0.160156,-6.652344C0.325964,-6.640501,0.490476,-6.687504,0.625,-6.785156C0.757717,-6.899893,0.808578,-7.083298,0.753906,-7.25C0.689548,-7.446849,0.507838,-7.581565,0.300781,-7.585938C0.223161,-7.597039,0.144814,-7.602262,0.066406,-7.601563L-0.746094,-7.601563"/>
    <path transform="matrix(1,0,0,-1,98.433731,-60.111847)" style="stroke:#d0d000;stroke-width:0.05mm;fill:none" d="M-2.539063,-0.769531C-2.398441,-0.764977,-2.2577,-0.766279,-2.117188,-0.773438C-1.978437,-0.787586,-1.853556,-0.863663,-1.777344,-0.980469C-1.606038,-1.223467,-1.443179,-1.472314,-1.289063,-1.726563L-0.929688,-1.726563L-1.304688,-1.140625C-1.370424,-1.036032,-1.449179,-0.940214,-1.539063,-0.855469C-1.591585,-0.812008,-1.649322,-0.775266,-1.710938,-0.746094C-1.540366,-0.733483,-1.379247,-0.663251,-1.253906,-0.546875C-1.040912,-0.302611,-1.061699,0.066361,-1.300781,0.285156C-1.427947,0.376598,-1.581742,0.423286,-1.738281,0.417969C-2.100152,0.429914,-2.462271,0.431215,-2.824219,0.421875L-2.824219,-1.726563L-2.539063,-1.726563L-2.539063,-0.769531M0.101563,0.167969L0.8125,0.167969L0.8125,0.421875L-0.890625,0.421875L-0.890625,0.167969L-0.183594,0.167969L-0.183594,-1.726563L0.101563,-1.726563L0.101563,0.167969M1.402344,-0.039063L2.527344,-1.726563L2.820313,-1.726563L2.820313,0.421875L2.546875,0.421875L2.546875,-1.261719L1.421875,0.421875L1.128906,0.421875L1.128906,-1.726563L1.402344,-1.726563L1.402344,-0.039063M-2.539063,-0.523438L-2.539063,0.183594C-2.276066,0.191683,-2.0129,0.19038,-1.75,0.179688C-1.587738,0.177784,-1.446805,0.06728,-1.40625,-0.089844C-1.368481,-0.257813,-1.462527,-0.427431,-1.625,-0.484375C-1.72308,-0.516979,-1.826554,-0.530245,-1.929688,-0.523438L-2.539063,-0.523438"/>
    <path transform="matrix(1,0,0,-1,171.321716,-78.343849)" style="stroke:#d0d000;stroke-width:0.05mm;fill:none" d="M-2.1875,-1.742188C-1.944988,-1.692013,-1.718361,-1.583393,-1.527344,-1.425781L-1.527344,-0.628906L-2.4375,-0.628906L-2.4375,-0.882813L-1.808594,-0.882813L-1.808594,-1.28125C-2.067963,-1.495348,-2.41951,-1.56034,-2.738281,-1.453125C-2.982655,-1.372256,-3.160893,-1.160787,-3.199219,-0.90625C-3.244801,-0.673531,-3.22451,-0.432747,-3.140625,-0.210938C-3.053559,0.008964,-2.855197,0.165565,-2.621094,0.199219C-2.51006,0.218656,-2.396611,0.219975,-2.285156,0.203125C-2.191338,0.185005,-2.102251,0.147775,-2.023438,0.09375C-1.919718,0.003968,-1.847263,-0.116334,-1.816406,-0.25L-1.5625,-0.179688L-1.628906,0.019531C-1.66679,0.100632,-1.71832,0.174624,-1.78125,0.238281C-1.850111,0.302012,-1.931193,0.351193,-2.019531,0.382813C-2.385467,0.524808,-2.797829,0.476553,-3.121094,0.253906C-3.345014,0.060522,-3.483838,-0.212918,-3.507813,-0.507813C-3.545442,-0.80516,-3.474735,-1.106012,-3.308594,-1.355469C-3.091479,-1.622793,-2.762169,-1.773005,-2.417969,-1.761719L-2.1875,-1.742188M-0.800781,-1.074219L0.097656,-1.074219L0.347656,-1.726563L0.671875,-1.726563L-0.207031,0.421875L-0.515625,0.421875L-1.339844,-1.726563L-1.039063,-1.726563L-0.800781,-1.074219M1.238281,0.421875L0.953125,0.421875L0.953125,-1.726563L1.238281,-1.726563L1.238281,0.421875M2.015625,-0.039063L3.144531,-1.726563L3.433594,-1.726563L3.433594,0.421875L3.164063,0.421875L3.164063,-1.261719L2.035156,0.421875L1.742188,0.421875L1.742188,-1.726563L2.015625,-1.726563L2.015625,-0.039063M-0.71875,-0.84375C-0.605628,-0.569901,-0.505258,-0.290948,-0.417969,-0.007813L-0.367188,0.195313C-0.252928,-0.15485,-0.127882,-0.501333,0.007813,-0.84375L-0.71875,-0.84375"/>
    <path transform="matrix(1,0,0,-1,118.686729,-60.170746)" style="stroke:#d0d000;stroke-width:0.05mm;fill:none" d="M-1.910156,-1.742188C-1.811877,-1.718659,-1.717259,-1.681863,-1.628906,-1.632813C-1.370435,-1.479924,-1.266478,-1.157993,-1.386719,-0.882813C-1.492204,-0.696449,-1.675656,-0.56746,-1.886719,-0.53125C-2.077953,-0.484737,-2.268066,-0.433954,-2.457031,-0.378906C-2.54839,-0.361452,-2.626613,-0.302061,-2.667969,-0.21875C-2.686914,-0.164898,-2.692281,-0.107204,-2.683594,-0.050781C-2.644972,0.07037,-2.542986,0.160357,-2.417969,0.183594C-2.24333,0.23203,-2.057289,0.219627,-1.890625,0.148438C-1.762138,0.07653,-1.679619,-0.056089,-1.671875,-0.203125L-1.398438,-0.183594C-1.40115,0.065885,-1.55379,0.289449,-1.785156,0.382813C-2.047271,0.486067,-2.338472,0.48746,-2.601563,0.386719C-2.867079,0.285626,-3.014734,0.002061,-2.945313,-0.273438C-2.871081,-0.471204,-2.702252,-0.618012,-2.496094,-0.664063C-2.283499,-0.716528,-2.072478,-0.775145,-1.863281,-0.839844C-1.787194,-0.861158,-1.719192,-0.904679,-1.667969,-0.964844C-1.588326,-1.071899,-1.589924,-1.21892,-1.671875,-1.324219C-1.715653,-1.388602,-1.780619,-1.435599,-1.855469,-1.457031C-2.103387,-1.550883,-2.381474,-1.518852,-2.601563,-1.371094C-2.705984,-1.279685,-2.769288,-1.150264,-2.777344,-1.011719L-3.046875,-1.035156C-3.038364,-1.399712,-2.760899,-1.702249,-2.398438,-1.742188C-2.236745,-1.768577,-2.071849,-1.768577,-1.910156,-1.742188M3.0625,-1.695313C2.934817,-1.6417,2.813067,-1.574934,2.699219,-1.496094C2.806131,-1.391578,2.888778,-1.264942,2.941406,-1.125L3.003906,-0.902344C3.043497,-0.66988,3.02607,-0.431276,2.953125,-0.207031C2.817737,0.203211,2.427859,0.47533,1.996094,0.460938C1.668942,0.471019,1.358214,0.31712,1.167969,0.050781C0.900177,-0.377102,0.900177,-0.919773,1.167969,-1.347656C1.418724,-1.691053,1.856431,-1.842148,2.265625,-1.726563C2.354519,-1.706397,2.440036,-1.673506,2.519531,-1.628906C2.657538,-1.741196,2.813326,-1.829651,2.980469,-1.890625L3.0625,-1.695313M0.667969,-1.472656L-0.648438,-1.472656L-0.648438,-0.742188L0.539063,-0.742188L0.539063,-0.488281L-0.648438,-0.488281L-0.648438,0.167969L0.621094,0.167969L0.621094,0.421875L-0.933594,0.421875L-0.933594,-1.726563L0.667969,-1.726563L0.667969,-1.472656M1.84375,-1.503906C1.592318,-1.45254,1.388785,-1.268462,1.3125,-1.023438C1.243814,-0.778111,1.243814,-0.518764,1.3125,-0.273438C1.404863,0.026013,1.686837,0.226279,2,0.214844C2.317253,0.221044,2.597935,0.009726,2.679688,-0.296875C2.751378,-0.543687,2.747296,-0.806316,2.667969,-1.050781C2.629297,-1.159522,2.56498,-1.257337,2.480469,-1.335938C2.360062,-1.241633,2.221906,-1.172555,2.074219,-1.132813L2.003906,-1.339844C2.104298,-1.362593,2.199639,-1.403643,2.285156,-1.460938C2.145809,-1.519807,1.991835,-1.534796,1.84375,-1.503906"/>
    <path transform="matrix(1,0,0,-1,108.479729,-68.986847)" style="stroke:#d0d000;stroke-width:0.05mm;fill:none" d="M0,0.472656L-1.386719,-2.300781L1.386719,-2.300781L0,0.472656z"/>
    <path transform="matrix(1,0,0,-1,149.983734,-60.106346)" style="stroke:#d0d000;stroke-width:0.05mm;fill:none" d="M-1.105469,-1.753906C-0.677431,-1.708912,-0.32936,-1.38786,-0.25,-0.964844C-0.164122,-0.62114,-0.221961,-0.25718,-0.410156,0.042969C-0.601632,0.311092,-0.912777,0.467395,-1.242188,0.460938C-1.382287,0.461405,-1.521291,0.436251,-1.652344,0.386719C-1.910923,0.27784,-2.110171,0.062936,-2.199219,-0.203125C-2.278128,-0.44534,-2.291601,-0.704024,-2.238281,-0.953125C-2.136544,-1.480637,-1.636701,-1.833974,-1.105469,-1.753906M-4.074219,-0.039063L-2.945313,-1.726563L-2.65625,-1.726563L-2.65625,0.421875L-2.925781,0.421875L-2.925781,-1.261719L-4.054688,0.421875L-4.347656,0.421875L-4.347656,-1.726563L-4.074219,-1.726563L-4.074219,-0.039063M0.445313,-0.769531C0.585934,-0.764977,0.726675,-0.766279,0.867188,-0.773438C1.006038,-0.787345,1.130987,-0.863463,1.207031,-0.980469C1.378337,-1.223467,1.541196,-1.472314,1.695313,-1.726563L2.054688,-1.726563L1.679688,-1.140625C1.613951,-1.036032,1.535196,-0.940214,1.445313,-0.855469C1.39279,-0.812008,1.335053,-0.775266,1.273438,-0.746094C1.444401,-0.735203,1.606122,-0.664709,1.730469,-0.546875C1.943463,-0.302611,1.922676,0.066361,1.683594,0.285156C1.556464,0.376683,1.40265,0.423376,1.246094,0.417969C0.884222,0.429914,0.522104,0.431215,0.160156,0.421875L0.160156,-1.726563L0.445313,-1.726563L0.445313,-0.769531M2.582031,0.101563L3.203125,-1.726563L3.460938,-1.726563L4.082031,0.074219L4.082031,-1.726563L4.355469,-1.726563L4.355469,0.421875L3.976563,0.421875C3.756302,-0.186371,3.546608,-0.798515,3.347656,-1.414063C3.143188,-0.800385,2.939819,-0.191559,2.734375,0.421875L2.308594,0.421875L2.308594,-1.726563L2.582031,-1.726563L2.582031,0.101563M-1.394531,-1.503906C-1.644253,-1.454542,-1.847701,-1.273534,-1.925781,-1.03125C-1.996401,-0.782005,-1.995048,-0.51804,-1.921875,-0.269531C-1.827872,0.026724,-1.548946,0.224362,-1.238281,0.214844C-0.921028,0.221044,-0.640346,0.009726,-0.558594,-0.296875C-0.472251,-0.585487,-0.495906,-0.89578,-0.625,-1.167969C-0.780942,-1.435616,-1.092235,-1.571511,-1.394531,-1.503906M0.445313,-0.523438L0.445313,0.183594C0.708309,0.191683,0.971475,0.19038,1.234375,0.179688C1.39687,0.178285,1.538001,0.067626,1.578125,-0.089844C1.615894,-0.257813,1.521848,-0.427431,1.359375,-0.484375C1.261295,-0.516979,1.157821,-0.530245,1.054688,-0.523438L0.445313,-0.523438"/>
    <path transform="matrix(1,0,0,-1,171.352722,-61.813248)" style="stroke:#d0d000;stroke-width:0.05mm;fill:none" d="M3.125,-1.753906C3.609688,-1.699702,3.983074,-1.299765,4.003906,-0.8125C4.05497,-0.468382,3.956952,-0.118927,3.734375,0.148438C3.540472,0.352698,3.269874,0.466037,2.988281,0.460938C2.846954,0.460922,2.706753,0.435791,2.574219,0.386719C2.31785,0.275919,2.120491,0.061522,2.03125,-0.203125C1.952341,-0.44534,1.938868,-0.704024,1.992188,-0.953125C2.093537,-1.480952,2.5936,-1.834445,3.125,-1.753906M-3.621094,-1.074219L-2.722656,-1.074219L-2.472656,-1.726563L-2.148438,-1.726563L-3.027344,0.421875L-3.335938,0.421875L-4.160156,-1.726563L-3.859375,-1.726563L-3.621094,-1.074219M-0.910156,-1.753906C-0.676868,-1.740594,-0.463852,-1.617421,-0.335938,-1.421875C-0.264607,-1.282835,-0.227133,-1.128925,-0.226563,-0.972656L-0.21875,-0.816406L-0.21875,0.421875L-0.503906,0.421875L-0.503906,-0.816406C-0.496502,-0.973519,-0.521778,-1.130495,-0.578125,-1.277344C-0.626011,-1.372727,-0.712941,-1.442556,-0.816406,-1.46875C-1.007057,-1.527817,-1.212442,-1.515328,-1.394531,-1.433594C-1.528482,-1.355985,-1.611659,-1.213395,-1.613281,-1.058594C-1.620569,-0.978064,-1.624479,-0.897266,-1.625,-0.816406L-1.625,0.421875L-1.910156,0.421875L-1.910156,-0.816406C-1.914353,-0.999501,-1.886595,-1.181911,-1.828125,-1.355469C-1.739978,-1.559442,-1.552011,-1.703008,-1.332031,-1.734375C-1.193213,-1.762257,-1.050957,-1.768843,-0.910156,-1.753906M1.078125,0.167969L1.789063,0.167969L1.789063,0.421875L0.085938,0.421875L0.085938,0.167969L0.792969,0.167969L0.792969,-1.726563L1.078125,-1.726563L1.078125,0.167969M2.835938,-1.503906C2.586076,-1.454774,2.382554,-1.2737,2.304688,-1.03125C2.234067,-0.782005,2.235421,-0.51804,2.308594,-0.269531C2.337204,-0.164833,2.392371,-0.0693,2.46875,0.007813C2.737882,0.27075,3.162106,0.289268,3.453125,0.050781C3.612896,-0.100091,3.706899,-0.307739,3.714844,-0.527344C3.740475,-0.74698,3.702522,-0.969278,3.605469,-1.167969C3.449262,-1.435256,3.138149,-1.571072,2.835938,-1.503906M-3.539063,-0.84375C-3.425941,-0.569901,-3.32557,-0.290948,-3.238281,-0.007813L-3.1875,0.195313C-3.07324,-0.15485,-2.948195,-0.501333,-2.8125,-0.84375L-3.539063,-0.84375"/>
    <path transform="matrix(1,0,0,-1,138.434723,-68.379745)" style="stroke:#d0d000;stroke-width:0.05mm;fill:none" d="M3.464844,-1.75C3.772992,-1.707621,4.032868,-1.498818,4.140625,-1.207031L4.191406,-1.042969L3.910156,-0.972656C3.884458,-1.130362,3.804261,-1.274164,3.683594,-1.378906C3.403309,-1.597227,3.001945,-1.557777,2.769531,-1.289063C2.724791,-1.237472,2.690319,-1.177809,2.667969,-1.113281L2.605469,-0.890625C2.567302,-0.667176,2.584743,-0.437768,2.65625,-0.222656C2.744363,0.054267,3.01089,0.235182,3.300781,0.214844C3.534259,0.23124,3.751494,0.093288,3.835938,-0.125L3.875,-0.230469L4.15625,-0.167969C4.077928,0.163635,3.799491,0.410787,3.460938,0.449219C3.138748,0.500974,2.811001,0.396559,2.578125,0.167969C2.418066,-0.009514,2.320668,-0.23449,2.300781,-0.472656C2.258272,-0.816247,2.346076,-1.163282,2.546875,-1.445313C2.691853,-1.625928,2.905676,-1.737796,3.136719,-1.753906C3.245858,-1.765697,3.356017,-1.764385,3.464844,-1.75M5.136719,0.460938L4.925781,0.460938L4.304688,-1.761719L4.515625,-1.761719L5.136719,0.460938M6.453125,-1.753906C6.881441,-1.707696,7.229985,-1.387669,7.3125,-0.964844C7.394348,-0.620533,7.335266,-0.257602,7.148438,0.042969C6.957377,0.311662,6.646026,0.468068,6.316406,0.460938C6.176306,0.461405,6.037302,0.436251,5.90625,0.386719C5.649587,0.27628,5.452138,0.061785,5.363281,-0.203125C5.297988,-0.401896,5.27536,-0.612201,5.296875,-0.820313C5.324109,-1.096601,5.455344,-1.352089,5.664063,-1.535156C5.88481,-1.715352,6.171107,-1.794721,6.453125,-1.753906M-6.296875,-1.714844C-6.10183,-1.707083,-5.916005,-1.629425,-5.773438,-1.496094C-5.615243,-1.323215,-5.516663,-1.104146,-5.492188,-0.871094C-5.468993,-0.703715,-5.471628,-0.533767,-5.5,-0.367188L-5.5625,-0.128906C-5.668443,0.186877,-5.960052,0.403634,-6.292969,0.414063C-6.61309,0.427901,-6.933602,0.430507,-7.253906,0.421875L-7.253906,-1.726563L-6.480469,-1.726563L-6.296875,-1.714844M-4.804688,-0.769531C-4.664066,-0.764977,-4.523325,-0.766279,-4.382813,-0.773438C-4.243962,-0.787345,-4.119013,-0.863463,-4.042969,-0.980469C-3.871663,-1.223467,-3.708804,-1.472314,-3.554688,-1.726563L-3.195313,-1.726563L-3.570313,-1.140625C-3.636049,-1.036033,-3.714804,-0.940214,-3.804688,-0.855469C-3.85721,-0.812008,-3.914947,-0.775266,-3.976563,-0.746094C-3.805599,-0.735203,-3.643878,-0.664709,-3.519531,-0.546875C-3.306537,-0.30261,-3.327324,0.066361,-3.566406,0.285156C-3.693536,0.376683,-3.84735,0.423376,-4.003906,0.417969C-4.365777,0.429914,-4.727896,0.431215,-5.089844,0.421875L-5.089844,-1.726563L-4.804688,-1.726563L-4.804688,-0.769531M-2.601563,0.421875L-2.886719,0.421875L-2.886719,-1.726563L-2.601563,-1.726563L-2.601563,0.421875M-1.792969,-0.75L-0.785156,-0.75L-0.785156,-0.496094L-1.792969,-0.496094L-1.792969,0.167969L-0.628906,0.167969L-0.628906,0.421875L-2.078125,0.421875L-2.078125,-1.726563L-1.792969,-1.726563L-1.792969,-0.75M0.566406,0.167969L1.277344,0.167969L1.277344,0.421875L-0.425781,0.421875L-0.425781,0.167969L0.28125,0.167969L0.28125,-1.726563L0.566406,-1.726563L0.566406,0.167969M6.164063,-1.503906C5.915463,-1.453784,5.713651,-1.272902,5.636719,-1.03125C5.563353,-0.782648,5.563353,-0.518133,5.636719,-0.269531C5.731193,0.026303,6.009888,0.223779,6.320313,0.214844C6.637756,0.221483,6.918616,0.010031,7,-0.296875C7.088027,-0.585406,7.064341,-0.896115,6.933594,-1.167969C6.807961,-1.389522,6.571054,-1.524469,6.316406,-1.519531L6.164063,-1.503906M-4.804688,-0.523438L-4.804688,0.183594C-4.541691,0.191683,-4.278525,0.19038,-4.015625,0.179688C-3.85313,0.178285,-3.711999,0.067626,-3.671875,-0.089844C-3.634106,-0.257813,-3.728152,-0.427431,-3.890625,-0.484375C-3.988705,-0.516979,-4.092179,-0.530245,-4.195313,-0.523438L-4.804688,-0.523438M-6.96875,-1.472656L-6.96875,0.167969L-6.398438,0.167969C-6.285104,0.169327,-6.173269,0.141031,-6.074219,0.085938C-5.890999,-0.04331,-5.780663,-0.252368,-5.777344,-0.476563C-5.755934,-0.66943,-5.7732,-0.864663,-5.828125,-1.050781C-5.85749,-1.152005,-5.911126,-1.244528,-5.984375,-1.320313C-6.076663,-1.404675,-6.195447,-1.454399,-6.320313,-1.460938C-6.536019,-1.478061,-6.752566,-1.481975,-6.96875,-1.472656"/>
    <rect transform="matrix(1,0,0,-1,163.865723,-69.780144)" style="stroke:#d0d000;stroke-width:0.05mm;fill:none" x="-0.25" y="-17.324703" width="0.5" height="34.649406"/>
    <path transform="matrix(1,0,0,-1,66.940628,-99.212547)" style="stroke:#d0d000;stroke-width:0.05mm;fill:none" d="M0.335938,9.035156L-0.328125,9.035156L-0.328125,4.023438L0.335938,4.023438L0.335938,9.035156M0.558594,-4.082031L0.90625,-4.003906L1.222656,-3.871094L1.507813,-3.679688C1.837869,-3.407763,2.078696,-3.04312,2.199219,-2.632813L2.257813,-2.4375L1.59375,-2.269531L1.511719,-2.566406C1.450051,-2.73802,1.361728,-2.898847,1.25,-3.042969L1.074219,-3.222656C0.878912,-3.379953,0.646027,-3.483607,0.398438,-3.523438C0.011141,-3.58559,-0.385777,-3.509526,-0.722656,-3.308594C-0.920067,-3.188069,-1.082875,-3.018533,-1.195313,-2.816406C-1.361548,-2.498053,-1.457463,-2.147696,-1.476563,-1.789063C-1.51604,-1.359198,-1.46684,-0.925708,-1.332031,-0.515625C-1.184019,-0.05553,-0.816209,0.300557,-0.351563,0.433594C-0.027555,0.52567,0.315208,0.528369,0.640625,0.441406C0.918994,0.361551,1.156525,0.178513,1.304688,-0.070313C1.395685,-0.218314,1.467858,-0.377093,1.519531,-0.542969L2.171875,-0.386719C2.108146,-0.170481,2.014814,0.035901,1.894531,0.226563L1.695313,0.476563L1.457031,0.6875L1.1875,0.855469L0.886719,0.976563L0.554688,1.046875C0.222293,1.089792,-0.115098,1.072592,-0.441406,0.996094C-0.744677,0.921364,-1.030116,0.787274,-1.28125,0.601563C-1.445001,0.475646,-1.58858,0.325481,-1.707031,0.15625C-1.895434,-0.117281,-2.028163,-0.425213,-2.097656,-0.75C-2.219458,-1.332973,-2.193947,-1.937184,-2.023438,-2.507813C-1.957452,-2.721287,-1.868383,-2.926932,-1.757813,-3.121094C-1.603637,-3.386738,-1.389631,-3.612782,-1.132813,-3.78125L-0.859375,-3.925781L-0.550781,-4.027344L-0.203125,-4.089844C0.050136,-4.118583,0.305977,-4.115959,0.558594,-4.082031M-1.140625,-10.039063L0.144531,-10.039063C0.447987,-10.046474,0.750852,-10.008287,1.042969,-9.925781C1.259673,-9.868918,1.456843,-9.754127,1.613281,-9.59375L1.789063,-9.363281L1.917969,-9.101563L1.996094,-8.820313C2.020717,-8.658753,2.025962,-8.494832,2.011719,-8.332031C1.97864,-7.994431,1.827909,-7.679141,1.585938,-7.441406C1.376148,-7.263808,1.120062,-7.149992,0.847656,-7.113281C0.595391,-7.077061,0.340776,-7.060087,0.085938,-7.0625L-1.804688,-7.0625L-1.804688,-12.074219L-1.140625,-12.074219L-1.140625,-10.039063M-1.140625,-9.445313L-1.140625,-7.65625C-0.644486,-7.64819,-0.14844,-7.649494,0.347656,-7.660156C0.530171,-7.649164,0.712916,-7.678511,0.882813,-7.746094C1.175558,-7.897543,1.35268,-8.20598,1.335938,-8.535156C1.339455,-8.665905,1.31688,-8.796043,1.269531,-8.917969C1.20239,-9.090464,1.072631,-9.231384,0.90625,-9.3125C0.763494,-9.378521,0.609989,-9.418221,0.453125,-9.429688L0.152344,-9.445313L-1.140625,-9.445313"/>
    <path transform="matrix(1,0,0,-1,138.50473,-51.832146)" style="stroke:#d0d000;stroke-width:0.05mm;fill:none" d="M5.421875,-1.742188C5.520914,-1.717121,5.616633,-1.680407,5.707031,-1.632813C5.965171,-1.479711,6.069066,-1.157972,5.949219,-0.882813C5.84224,-0.697715,5.659595,-0.569293,5.449219,-0.53125C5.257727,-0.485772,5.067577,-0.434979,4.878906,-0.378906C4.787309,-0.361906,4.708952,-0.302413,4.667969,-0.21875C4.61835,-0.099705,4.657166,0.037767,4.761719,0.113281C4.91068,0.19878,5.084345,0.230481,5.253906,0.203125C5.475181,0.194955,5.653775,0.018061,5.664063,-0.203125L5.933594,-0.183594C5.931995,0.066347,5.779077,0.290318,5.546875,0.382813C5.286118,0.486132,4.996114,0.487526,4.734375,0.386719C4.46686,0.288182,4.317963,0.002232,4.390625,-0.273438C4.415183,-0.365779,4.46855,-0.447881,4.542969,-0.507813C4.662352,-0.603575,4.803047,-0.669233,4.953125,-0.699219C5.128632,-0.737011,5.302048,-0.783951,5.472656,-0.839844C5.548744,-0.861158,5.616746,-0.904679,5.667969,-0.964844C5.747612,-1.071899,5.746014,-1.21892,5.664063,-1.324219C5.581515,-1.418397,5.467864,-1.479381,5.34375,-1.496094C5.132134,-1.535571,4.91336,-1.490694,4.734375,-1.371094C4.664278,-1.318621,4.613471,-1.24447,4.589844,-1.160156L4.558594,-1.011719L4.289063,-1.035156C4.292815,-1.355464,4.510395,-1.633838,4.820313,-1.714844C5.016465,-1.76758,5.221747,-1.776911,5.421875,-1.742188M-8.683594,-0.089844C-8.659729,-0.005982,-8.638883,0.078707,-8.621094,0.164063C-8.451874,-0.467434,-8.278778,-1.097363,-8.101563,-1.726563L-7.824219,-1.726563L-7.238281,0.421875L-7.523438,0.421875C-7.659622,-0.119616,-7.79129,-0.66324,-7.917969,-1.207031L-7.964844,-1.425781C-8.007221,-1.169057,-8.063288,-0.914797,-8.132813,-0.664063L-8.441406,0.421875L-8.785156,0.421875L-9.191406,-1.027344C-9.227575,-1.159238,-9.260141,-1.292108,-9.289063,-1.425781C-9.317013,-1.278271,-9.346973,-1.131077,-9.378906,-0.984375L-9.707031,0.421875L-10,0.421875L-9.429688,-1.726563L-9.136719,-1.726563L-8.683594,-0.089844M-6.652344,-1.074219L-5.753906,-1.074219L-5.503906,-1.726563L-5.179688,-1.726563L-6.058594,0.421875L-6.363281,0.421875L-7.1875,-1.726563L-6.886719,-1.726563L-6.652344,-1.074219M-4.65625,-0.769531C-4.514326,-0.764922,-4.372285,-0.766224,-4.230469,-0.773438C-4.092977,-0.788391,-3.969689,-0.864371,-3.894531,-0.980469C-3.719431,-1.221713,-3.55521,-1.47065,-3.402344,-1.726563L-3.046875,-1.726563L-3.421875,-1.140625C-3.497915,-1.006873,-3.601875,-0.890917,-3.726563,-0.800781L-3.828125,-0.746094C-3.65703,-0.73564,-3.49521,-0.665103,-3.371094,-0.546875C-3.153554,-0.30428,-3.174557,0.068531,-3.417969,0.285156C-3.543493,0.37688,-3.6962,0.423655,-3.851563,0.417969C-4.213454,0.429613,-4.575534,0.430914,-4.9375,0.421875L-4.9375,-1.726563L-4.65625,-1.726563L-4.65625,-0.769531M-2.515625,-0.039063L-1.386719,-1.726563L-1.09375,-1.726563L-1.09375,0.421875L-1.367188,0.421875L-1.367188,-1.261719L-2.496094,0.421875L-2.785156,0.421875L-2.785156,-1.726563L-2.515625,-1.726563L-2.515625,-0.039063M0.503906,-0.769531C0.64583,-0.764922,0.787871,-0.766224,0.929688,-0.773438C1.067179,-0.788391,1.190467,-0.86437,1.265625,-0.980469C1.440725,-1.221713,1.604946,-1.47065,1.757813,-1.726563L2.113281,-1.726563L1.738281,-1.140625C1.662242,-1.006873,1.558282,-0.890918,1.433594,-0.800781L1.332031,-0.746094C1.503127,-0.73564,1.664946,-0.665103,1.789063,-0.546875C2.006602,-0.30428,1.985599,0.068531,1.742188,0.285156C1.616663,0.37688,1.463956,0.423655,1.308594,0.417969C0.946702,0.429611,0.584622,0.430912,0.222656,0.421875L0.222656,-1.726563L0.503906,-1.726563L0.503906,-0.769531M3.984375,-1.472656L2.667969,-1.472656L2.667969,-0.742188L3.855469,-0.742188L3.855469,-0.488281L2.667969,-0.488281L2.667969,0.167969L3.933594,0.167969L3.933594,0.421875L2.382813,0.421875L2.382813,-1.726563L3.984375,-1.726563L3.984375,-1.472656M8.003906,-1.472656L6.6875,-1.472656L6.6875,-0.742188L7.875,-0.742188L7.875,-0.488281L6.6875,-0.488281L6.6875,0.167969L7.953125,0.167969L7.953125,0.421875L6.402344,0.421875L6.402344,-1.726563L8.003906,-1.726563L8.003906,-1.472656M9.238281,0.167969L9.949219,0.167969L9.949219,0.421875L8.246094,0.421875L8.246094,0.167969L8.953125,0.167969L8.953125,-1.726563L9.238281,-1.726563L9.238281,0.167969M-6.570313,-0.84375L-6.332031,-0.214844C-6.287699,-0.080022,-6.249897,0.056851,-6.21875,0.195313C-6.105137,-0.155533,-5.978745,-0.502133,-5.839844,-0.84375L-6.570313,-0.84375M-4.65625,-0.523438L-4.65625,0.183594C-4.391953,0.191403,-4.127489,0.190101,-3.863281,0.179688C-3.727186,0.176723,-3.60368,0.098401,-3.542969,-0.023438C-3.483677,-0.167683,-3.524781,-0.333682,-3.644531,-0.433594C-3.711409,-0.480607,-3.78962,-0.508925,-3.871094,-0.515625C-4.132561,-0.530117,-4.39455,-0.532724,-4.65625,-0.523438M0.503906,-0.523438L0.503906,0.183594C0.768203,0.191403,1.032667,0.190101,1.296875,0.179688C1.43297,0.176723,1.556476,0.098401,1.617188,-0.023438C1.67648,-0.167683,1.635375,-0.333682,1.515625,-0.433594C1.448747,-0.480607,1.370537,-0.508925,1.289063,-0.515625C1.027595,-0.530117,0.765606,-0.532724,0.503906,-0.523438"/>
    <path transform="matrix(1,0,0,-1,108.479729,-51.842247)" style="stroke:#d0d000;stroke-width:0.05mm;fill:none" d="M1.386719,0.410156L-1.386719,0.410156L0,-2.359375L1.386719,0.410156z"/>
    <path transform="matrix(1,0,0,-1,59.709728,-153.729553)" style="stroke:#000000;stroke-width:0.05mm;fill:none" d="M1.269997,-101.370003L1.269997,-10.27C3.269997,-9.337387,4.269997,-6.337387,4.269997,-1.27L125.269997,-1.27C125.269997,-6.337387,126.269997,-9.337387,128.269989,-10.27L128.269989,-101.370003C126.269997,-102.302612,125.269997,-105.302612,125.269997,-110.370003L4.269997,-110.370003C4.269997,-105.302612,3.269997,-102.302612,1.269997,-101.370003z"/>
</svg>
